<svg width="24" height="24" viewBox="0 0 24 24" fill="none" xmlns="http://www.w3.org/2000/svg">
<path d="M19.0255 16.7392C18.8549 14.8034 17.6332 12.0539 14.6786 11.9213C10.3229 11.933 9.69155 15.3029 10.101 16.7955C10.4445 18.0495 11.3564 19.0492 12.652 18.9357C13.9477 18.8221 14.924 17.6774 14.7922 16.3839C14.7695 15.012 15.9333 15.048 15.9684 16.5655C16.0161 18.5856 14.6515 20.3588 12.6389 20.536C10.6261 20.7118 9.00459 19.1978 8.66766 17.2064C8.46403 15.9979 8.6955 13.6827 10.7507 11.8736C13.3918 9.54891 16.2688 12.3365 16.0351 8.56528C15.7993 4.7596 14.8427 4.67907 12.3759 3.19664C10.7448 2.21593 10.4657 0.660285 10.5573 0.0509102C10.5609 0.0216134 10.5609 -0.0223554 10.5031 0.0143009C8.97525 0.973785 8.96283 2.73305 9.85561 4.10414C10.2841 4.76114 11.1696 5.09949 11.2604 6.13955C11.3842 7.55021 10.5727 7.98085 9.90394 8.56313C9.23597 9.14541 8.44055 9.77016 7.24083 11.0043C5.32481 12.976 4.82091 15.4677 4.974 17.5793C5.14317 19.5143 6.08142 21.1981 7.45983 22.3546C8.84044 23.5119 10.662 24.1425 12.597 23.9726C14.5328 23.8027 16.2159 22.8644 17.3739 21.4853C18.5304 20.1053 19.1947 18.6742 19.0255 16.7392Z" fill="url(#paint0_linear_245_1792)"/>
<defs>
<linearGradient id="paint0_linear_245_1792" x1="12" y1="0.000366211" x2="12" y2="24" gradientUnits="userSpaceOnUse">
<stop stop-color="#A85FF0"/>
<stop offset="1" stop-color="#5A2DD9"/>
</linearGradient>
</defs>
</svg>
