<?xml version="1.0" standalone="no"?>
<!DOCTYPE svg PUBLIC "-//W3C//DTD SVG 20010904//EN"
 "http://www.w3.org/TR/2001/REC-SVG-20010904/DTD/svg10.dtd">
<svg version="1.0" xmlns="http://www.w3.org/2000/svg"
 width="500.000000pt" height="500.000000pt" viewBox="0 0 500.000000 500.000000"
 preserveAspectRatio="xMidYMid meet">

<g transform="translate(0.000000,500.000000) scale(0.100000,-0.100000)"
fill="#000000" stroke="none">
<path d="M1335 4816 c-35 -15 -65 -55 -65 -86 0 -47 28 -76 113 -117 82 -40
127 -80 127 -112 0 -30 -47 -115 -137 -253 -127 -193 -147 -245 -148 -378 0
-96 2 -110 29 -162 50 -100 206 -238 268 -238 44 0 76 17 93 51 24 46 13 92
-32 126 -72 55 -132 115 -147 148 -40 83 -13 165 124 375 117 180 143 241 144
335 1 120 -62 204 -208 275 -99 48 -122 53 -161 36z"/>
<path d="M2275 4816 c-35 -15 -65 -55 -65 -86 0 -47 28 -76 113 -117 82 -40
127 -80 127 -112 0 -30 -47 -115 -137 -253 -127 -193 -147 -245 -148 -378 0
-96 2 -110 29 -162 50 -100 206 -238 268 -238 44 0 76 17 93 51 24 46 13 92
-32 126 -72 55 -132 115 -147 148 -40 83 -13 165 124 375 117 180 143 241 144
335 1 120 -62 204 -208 275 -99 48 -122 53 -161 36z"/>
<path d="M3205 4816 c-35 -15 -65 -55 -65 -86 0 -47 28 -76 113 -117 82 -40
127 -80 127 -112 0 -30 -47 -115 -137 -253 -127 -193 -147 -245 -148 -378 0
-96 2 -110 29 -162 50 -100 206 -238 268 -238 44 0 76 17 93 51 24 46 13 92
-32 126 -72 55 -132 115 -147 148 -40 83 -13 165 124 375 117 180 143 241 144
335 1 120 -62 204 -208 275 -99 48 -122 53 -161 36z"/>
<path d="M4516 4586 c-22 -8 -48 -23 -58 -33 -10 -11 -194 -323 -407 -694
l-389 -674 -1630 -5 c-1627 -5 -1631 -5 -1658 -26 -59 -43 -69 -68 -69 -164 0
-74 3 -93 21 -116 39 -53 70 -68 144 -72 l70 -4 2 -1138 c3 -1132 3 -1139 24
-1166 11 -15 33 -37 48 -48 l27 -21 1899 0 1899 0 27 21 c15 11 37 33 48 48
21 27 21 34 24 1166 l2 1138 60 4 c64 5 98 23 134 72 18 23 21 42 21 116 0 96
-10 121 -69 164 -26 20 -45 21 -295 26 l-267 5 309 535 c364 630 371 645 362
701 -9 51 -50 98 -119 138 -67 37 -110 45 -160 27z"/>
</g>
</svg>
