<?xml version="1.0" encoding="utf-8"?>
<!-- Uploaded to: SVG Repo, www.svgrepo.com, Generator: SVG Repo Mixer Tools -->
<svg fill="#000000" version="1.1" id="earth" xmlns="http://www.w3.org/2000/svg" xmlns:xlink="http://www.w3.org/1999/xlink" 
	 width="800px" height="800px" viewBox="0 0 256 175" enable-background="new 0 0 256 175" xml:space="preserve">
<path d="M64.699,55.61H2v58.699h33.411c6.25,0,12.499,2.451,17.279,7.23l37.866,37.866c9.313,9.191,22.303,13.725,34.312,13.48
	h100.731c8.088,0,14.828-6.617,14.828-14.828c0-8.088-6.617-14.583-14.828-14.583h-61.885c-1.225,2.696-3.064,5.514-5.269,7.475
	c-4.534,4.534-10.784,7.23-17.279,7.23s-12.745-2.451-17.279-7.23l-43.626-43.626c-1.961-1.961-1.961-5.024,0-6.985
	s5.024-1.961,6.74,0l43.871,43.871c5.76,5.76,15.073,5.76,20.832,0c5.76-5.76,5.76-15.073,0-20.832l-54.41-54.41
	c-9.068-8.946-20.832-13.48-32.597-13.48V55.61z M230.598,23.779c-2.421,2.306-5.649,3.228-9.223,3.228
	c-4.496,0-8.646-1.845-11.067-5.303c-2.306,3.574-6.456,5.303-11.067,5.303c-4.496,0-8.646-1.845-10.952-5.418
	c-2.306,3.574-6.456,5.418-11.182,5.418c-3.343,0-6.456-0.807-8.761-2.882l-1.729-12.566c2.421,3.228,6.225,5.188,10.491,5.188
	c4.611,0,8.761-2.306,11.182-5.879c2.421,3.574,6.456,5.879,11.067,5.879s8.761-2.306,11.067-5.879
	c2.421,3.458,6.456,5.879,11.067,5.879c4.611,0,8.761-2.421,11.067-5.995L230.598,23.779z M233.941,129.954L254,2.106l-13.488,0.115
	l-18.215,114.245h-45.421L158.662,2.222l-13.488-0.115l20.059,127.848H233.941z"/>
</svg>