<svg width="766" height="766" viewBox="0 0 766 766" fill="none" xmlns="http://www.w3.org/2000/svg">
<g clip-path="url(#clip0_29_2)">
<path d="M559.277 113.828C560.564 53.4986 511.962 3.56387 450.72 2.29583C389.479 1.02779 338.789 48.9066 337.502 109.236C336.215 169.566 384.817 219.5 446.059 220.768C507.3 222.036 557.99 174.158 559.277 113.828Z" fill="black"/>
<path d="M713.109 413.254L531.679 281.891C504.753 262.313 472.057 250.946 436.156 250.314C436.156 250.314 307.296 247.156 301.526 248.419L124.584 273.681L106.633 160.634L338.069 178.949L325.888 8.43042L83.5536 62.1122L84.1947 72.8485C73.9371 61.4806 57.9097 55.7967 41.2413 58.9544C14.3152 63.3753 -4.27653 87.3741 0.852233 113.268L35.4714 334.942C39.9591 361.467 64.3207 379.782 91.2467 375.361L308.578 342.52L295.115 703.135L536.808 707.556L543.219 409.465L636.178 476.409L632.973 675.979C632.973 675.979 632.973 675.979 632.331 677.242C631.69 703.767 652.846 725.871 679.772 726.503C706.698 727.134 729.137 706.293 729.778 679.768L734.266 455.568C736.189 437.884 727.214 421.464 713.109 413.254ZM313.707 127.162L163.691 65.2699L307.296 33.6924L313.707 127.162Z" fill="black"/>
<path d="M313.116 128.171L164.273 64.5903L117.986 77.2056L124.793 136.75L315.385 157.943L313.116 128.171Z" fill="#4797D8" stroke="#4797D8"/>
</g>
<defs>
<clipPath id="clip0_29_2">
<rect width="766" height="766" fill="white"/>
</clipPath>
</defs>
</svg>
