<svg width="128" height="128" viewBox="0 0 128 128" fill="none" xmlns="http://www.w3.org/2000/svg">
<path d="M78.0762 52.7964C72.8487 52.7964 67.9336 55.0157 64.0119 59.0305C60.1011 54.9746 55.2432 52.7964 49.9214 52.7964C40.6293 52.7964 32.421 59.5366 29.9606 69.1868C28.6712 74.2419 28.4016 82.288 34.4346 91.9091C39.8233 100.502 49.0788 108.417 61.9434 115.435C62.5832 115.784 63.2887 115.958 63.9954 115.958C64.7009 115.958 65.4075 115.784 66.0467 115.436C78.9154 108.418 88.1737 100.502 93.5647 91.9097C99.6006 82.2886 99.3315 74.243 98.0427 69.188C95.5812 59.5366 87.3711 52.7964 78.0762 52.7964ZM63.9948 106.767C35.8736 90.6986 37.1624 75.6197 38.2632 71.3039C39.7313 65.5451 44.6344 61.3652 49.9208 61.3652C53.9424 61.3652 57.6396 63.8125 60.3296 68.2563C61.1054 69.5382 62.4953 70.3214 63.9942 70.3219C65.4926 70.3219 66.8831 69.5393 67.6588 68.258C70.3523 63.813 74.0512 61.3652 78.0757 61.3652C83.3655 61.3652 88.2703 65.5451 89.7384 71.3039C90.8392 75.6192 92.1257 90.6974 63.9948 106.767Z" fill="#FE6363"/>
<path d="M45.5165 45.4507C54.7274 45.4507 62.2211 37.9576 62.2211 28.7472C62.2211 19.5357 54.7274 12.042 45.5165 12.042C36.305 12.042 28.8107 19.5363 28.8107 28.7472C28.8107 37.9576 36.305 45.4507 45.5165 45.4507ZM45.5165 20.6108C50.0031 20.6108 53.6523 24.2611 53.6523 28.7472C53.6523 33.2327 50.0025 36.8819 45.5165 36.8819C41.0298 36.8819 37.3795 33.2327 37.3795 28.7472C37.3795 24.2606 41.0292 20.6108 45.5165 20.6108Z" fill="white"/>
<path d="M82.4864 45.4507C91.6973 45.4507 99.191 37.9576 99.191 28.7472C99.191 19.5357 91.6973 12.042 82.4864 12.042C73.2755 12.042 65.7817 19.5363 65.7817 28.7472C65.7812 37.9576 73.2749 45.4507 82.4864 45.4507ZM82.4864 20.6108C86.9725 20.6108 90.6222 24.2611 90.6222 28.7472C90.6222 33.2327 86.9725 36.8819 82.4864 36.8819C77.9997 36.8819 74.3506 33.2327 74.3506 28.7472C74.35 24.2606 77.9997 20.6108 82.4864 20.6108Z" fill="#B86D29"/>
<path d="M15.4616 37.3713C6.93618 37.3713 0 44.3081 0 52.8346C0 61.3601 6.93618 68.2957 15.4616 68.2957C23.9881 68.2957 30.9243 61.3595 30.9243 52.8346C30.9249 44.3081 23.9881 37.3713 15.4616 37.3713ZM15.4616 59.7268C11.661 59.7268 8.56883 56.6352 8.56883 52.8346C8.56883 49.0335 11.661 45.9407 15.4616 45.9407C19.2627 45.9407 22.3555 49.0335 22.3555 52.8346C22.3561 56.6352 19.2633 59.7268 15.4616 59.7268Z" fill="#B86D29"/>
<path d="M112.537 37.3713C104.011 37.3713 97.0757 44.3081 97.0757 52.8341C97.0757 61.3595 104.012 68.2951 112.537 68.2951C121.064 68.2951 128 61.3589 128 52.8341C128 44.3081 121.064 37.3713 112.537 37.3713ZM112.537 59.7268C108.737 59.7268 105.645 56.6346 105.645 52.8346C105.645 49.0335 108.737 45.9407 112.537 45.9407C116.338 45.9407 119.431 49.0335 119.431 52.8346C119.431 56.6352 116.338 59.7268 112.537 59.7268Z" fill="black"/>
</svg>
