<svg width="128" height="128" viewBox="0 0 128 128" fill="none" xmlns="http://www.w3.org/2000/svg">
<path d="M63.9948 107.343L63.7467 107.202C49.6273 99.1335 42.8325 91.2805 39.7206 84.846C36.6055 78.4046 37.2043 73.4322 37.7787 71.1803C39.2936 65.2383 44.3687 60.8652 49.9208 60.8652C54.1686 60.8652 58.0069 63.4537 60.7574 67.9973L60.7574 67.9974C61.4425 69.1295 62.67 69.8214 63.9942 69.8219L63.9948 107.343ZM63.9948 107.343L64.2428 107.202M63.9948 107.343L64.2428 107.202M64.2428 107.202C78.3671 99.133 85.1649 91.2799 88.2786 84.8454C91.3955 78.4042 90.7973 73.4321 90.2229 71.1804C88.708 65.2381 83.6311 60.8652 78.0757 60.8652C73.8251 60.8652 69.9851 63.4541 67.2312 67.9989L67.2311 67.999M64.2428 107.202L67.2311 67.999M67.2311 67.999C66.5461 69.1304 65.3181 69.8219 63.9944 69.8219L67.2311 67.999ZM63.652 59.3776L64.0096 59.7484L64.3696 59.3799C68.2078 55.4506 72.9978 53.2964 78.0762 53.2964C87.1203 53.2964 95.1475 59.8593 97.5583 69.3115C98.8167 74.2478 99.097 82.1504 93.1411 91.6439C87.8115 100.139 78.6322 108.003 65.8074 114.997C65.2428 115.304 64.6186 115.458 63.9954 115.458C63.3711 115.458 62.7481 115.304 62.1829 114.996C49.3621 108.002 40.1855 100.138 34.8582 91.6435C28.9052 82.1499 29.186 74.2468 30.4451 69.3104L30.4451 69.3104C32.8547 59.8592 40.8802 53.2964 49.9214 53.2964C55.096 53.2964 59.8272 55.4109 63.652 59.3776Z" fill="#FE6363" stroke="black"/>
<path d="M61.7211 28.7472C61.7211 37.6814 54.4513 44.9507 45.5165 44.9507C36.581 44.9507 29.3107 37.6813 29.3107 28.7472C29.3107 19.8124 36.5811 12.542 45.5165 12.542C54.4512 12.542 61.7211 19.8118 61.7211 28.7472ZM54.1523 28.7472C54.1523 23.9851 50.2793 20.1108 45.5165 20.1108C40.7531 20.1108 36.8795 23.9844 36.8795 28.7472C36.8795 33.509 40.7538 37.3819 45.5165 37.3819C50.2786 37.3819 54.1523 33.5089 54.1523 28.7472Z" fill="white" stroke="black"/>
<path d="M82.4864 20.1108C87.2486 20.1108 91.1222 23.985 91.1222 28.7472C91.1222 33.5089 87.2485 37.3819 82.4864 37.3819C77.7237 37.3819 73.8506 33.5089 73.8506 28.7473L82.4864 20.1108ZM82.4864 20.1108C77.7236 20.1108 73.85 23.9844 73.8506 28.7472L82.4864 20.1108ZM66.2817 28.7472V28.7472C66.2817 19.8124 73.5516 12.542 82.4864 12.542C91.4211 12.542 98.691 19.8118 98.691 28.7472C98.691 37.6814 91.4212 44.9507 82.4864 44.9507C73.551 44.9507 66.2812 37.6814 66.2817 28.7472Z" fill="#B86D29" stroke="black"/>
<path d="M15.4616 60.2268C11.3849 60.2268 8.06883 56.9114 8.06883 52.8346C8.06883 48.7575 11.3848 45.4407 15.4616 45.4407C19.5388 45.4407 22.8555 48.7573 22.8555 52.8346L15.4616 60.2268ZM15.4616 60.2268C19.5392 60.2268 22.8561 56.9115 22.8555 52.8346L15.4616 60.2268ZM30.4243 52.8346V52.8346C30.4243 61.0833 23.712 67.7957 15.4616 67.7957C7.2123 67.7957 0.5 61.0839 0.5 52.8346C0.5 44.5842 7.21237 37.8713 15.4616 37.8713C23.712 37.8713 30.4249 44.5842 30.4243 52.8346Z" fill="#B86D29" stroke="black"/>
<path d="M112.537 37.3713C104.011 37.3713 97.0757 44.3081 97.0757 52.8341C97.0757 61.3595 104.012 68.2951 112.537 68.2951C121.064 68.2951 128 61.3589 128 52.8341C128 44.3081 121.064 37.3713 112.537 37.3713ZM112.537 59.7268C108.737 59.7268 105.645 56.6346 105.645 52.8346C105.645 49.0335 108.737 45.9407 112.537 45.9407C116.338 45.9407 119.431 49.0335 119.431 52.8346C119.431 56.6352 116.338 59.7268 112.537 59.7268Z" fill="black"/>
</svg>
