<svg width="128" height="128" viewBox="0 0 128 128" fill="none" xmlns="http://www.w3.org/2000/svg">
<path d="M127.044 60.8796C125.669 59.3093 123.267 59.1648 121.696 60.5513L110.528 70.4381L78.9815 98.3521C76.9932 100.106 74.462 101.047 71.8605 101.047C71.1027 101.047 70.3447 100.973 69.5832 100.813L51.552 96.8168L29.7785 92.0121L14.509 88.6331L12.3255 88.1448C11.634 87.9103 11.0207 87.6058 10.4817 87.2033C9.61448 86.5743 8.92698 85.7581 8.45448 84.8206C7.96998 83.8791 7.71623 82.8323 7.71623 81.7658C7.71623 81.1136 7.82573 80.4298 8.02098 79.7618C8.25923 79.0391 8.59923 78.3868 9.01698 77.8086C9.63023 76.9413 10.4622 76.2538 11.3997 75.7851C12.3255 75.2968 13.3685 75.0468 14.4387 75.0468C14.6185 75.0468 14.7982 75.0626 14.9777 75.0626L30.716 78.4611L67.216 86.3556C71.7355 87.3478 76.4505 86.1211 79.9192 83.0508L102.361 63.2813L125.275 43.0978C127.333 41.2736 128.2 38.4533 127.497 35.8008C126.81 33.1251 124.677 31.0821 121.986 30.5038L119.13 29.8906L98.3137 25.3906L71.9502 19.6998C67.4345 18.7076 62.7197 19.9343 59.247 23.0083L24.0322 53.9421L13.4425 63.2466L4.22748 71.3403C3.84848 71.7738 3.52423 72.2076 3.23523 72.6763C3.07123 72.8756 2.92673 73.0553 2.78198 73.2741C1.87973 74.5046 1.15698 75.9108 0.668732 77.4498C0.215482 78.8756 0.000732422 80.3406 0.000732422 81.7663C0.000732422 84.8561 0.992983 87.8016 2.74673 90.2233C3.62948 91.4538 4.69598 92.5358 5.94598 93.4381C7.17248 94.3443 8.58273 95.0671 10.118 95.5358L10.282 95.5906L26.3445 99.1141L41.5592 102.438L67.9772 108.22C69.2585 108.509 70.5592 108.638 71.86 108.638C76.2857 108.638 80.606 107.048 84.0045 104.063L84.9067 103.27L116.274 75.4968L126.719 66.2468C128.29 64.8521 128.434 62.4536 127.044 60.8796Z" fill="#D4AF37"/>
</svg>
