<svg width="1000" height="1000" viewBox="0 0 1000 1000" fill="none" xmlns="http://www.w3.org/2000/svg">
<path d="M992.531 475.621C981.789 463.353 963.022 462.225 950.752 473.057L863.502 550.297L617.043 768.375C601.51 782.078 581.734 789.432 561.41 789.432C555.49 789.432 549.568 788.851 543.619 787.6L402.75 756.381L232.645 718.844L113.352 692.445L96.293 688.631C90.8906 686.799 86.0996 684.42 81.8887 681.275C75.1133 676.361 69.7422 669.984 66.0508 662.66C62.2656 655.305 60.2832 647.127 60.2832 638.795C60.2832 633.699 61.1387 628.357 62.6641 623.139C64.5254 617.492 67.1816 612.396 70.4453 607.879C75.2363 601.103 81.7363 595.732 89.0605 592.07C96.293 588.256 104.441 586.303 112.803 586.303C114.207 586.303 115.611 586.426 117.014 586.426L239.969 612.976L525.125 674.652C560.434 682.404 597.27 672.82 624.369 648.834L799.693 494.385L978.709 336.701C994.791 322.449 1001.57 300.416 996.074 279.693C990.703 258.789 974.041 242.828 953.014 238.31L930.705 233.519L768.076 198.363L562.111 153.904C526.832 146.152 489.998 155.736 462.867 179.752L187.752 421.422L105.02 494.113L33.0273 557.346C30.0664 560.732 27.5332 564.121 25.2754 567.783C23.9941 569.34 22.8652 570.744 21.7344 572.453C14.6855 582.066 9.03906 593.053 5.22461 605.076C1.68359 616.215 0.00585938 627.66 0.00585938 638.799C0.00585938 662.937 7.75781 685.949 21.459 704.869C28.3555 714.482 36.6875 722.935 46.4531 729.984C56.0352 737.064 67.0527 742.711 79.0469 746.373L80.3281 746.801L205.816 774.328L324.682 800.299L531.072 845.465C541.082 847.723 551.244 848.73 561.406 848.73C595.982 848.73 629.734 836.31 656.285 812.994L663.334 806.799L908.391 589.818L989.994 517.553C1002.27 506.656 1003.39 487.918 992.531 475.621Z" fill="black"/>
</svg>
