<svg xmlns="http://www.w3.org/2000/svg" width="1500" height="1500" viewBox="0 0 1500 1500" version="1.1"><path d="M 1405.698 985.384 C 1393.350 989.983, 1380.913 1004.241, 1369.638 1026.724 C 1356.938 1052.049, 1347.469 1084.088, 1344.988 1110.127 C 1342.714 1133.991, 1349.651 1152.137, 1367.373 1168.688 C 1388.636 1188.546, 1418.510 1192.678, 1444.300 1179.330 C 1453.624 1174.504, 1468.157 1160.285, 1473.254 1151 C 1482.705 1133.786, 1483.892 1117.750, 1477.874 1088.579 C 1473.836 1069.009, 1464.704 1042.386, 1456.246 1025.523 C 1447.802 1008.688, 1433.787 991.993, 1423.840 986.918 C 1418.563 984.226, 1410.612 983.554, 1405.698 985.384 M 1284.500 1302.327 C 1273.004 1307.922, 1262.495 1320.880, 1251.938 1342.476 C 1236.737 1373.574, 1227.279 1411.023, 1228.215 1436.409 C 1228.922 1455.607, 1234.270 1468.067, 1247.551 1481.460 C 1255.081 1489.053, 1265.703 1495.394, 1275.932 1498.402 C 1283.109 1500.514, 1306.222 1500.582, 1314 1498.515 C 1325.059 1495.575, 1333.913 1490.278, 1343.114 1481.096 C 1359.790 1464.454, 1365.317 1446.231, 1361.955 1418.974 C 1357.076 1379.414, 1336.330 1328.785, 1317.622 1310.782 C 1309.597 1303.060, 1304.985 1300.752, 1296.644 1300.290 C 1290.606 1299.955, 1288.726 1300.270, 1284.500 1302.327" stroke="none" fill="#0493fb" fill-rule="evenodd"/><path d="M 290 0.689 C 288.075 0.891, 281.550 1.972, 275.500 3.089 C 148.917 26.472, 49.412 124.392, 24.084 250.500 C 18.974 275.947, 16.979 308.507, 18.939 334.500 C 24.526 408.605, 53.599 475.056, 103.529 527.846 C 109.820 534.497, 112.099 537.555, 111.434 538.449 C 110.920 539.141, 108.826 541.910, 106.781 544.603 C 101.751 551.226, 96.536 562.093, 93.814 571.623 C 90.616 582.823, 90.614 601.982, 93.811 613.837 C 97.835 628.761, 105.183 640.976, 117.163 652.652 C 121.198 656.585, 207.300 735.281, 308.500 827.532 C 435.777 943.554, 494.966 996.874, 500.500 1000.493 C 510.630 1007.117, 519.230 1010.517, 531.111 1012.593 C 553.023 1016.422, 577.001 1011.060, 593.879 998.558 C 602.844 991.917, 612.128 980.959, 654.507 927 C 678.049 897.025, 698.120 871.633, 699.110 870.573 C 700.672 868.900, 733.986 863.799, 951.205 831.969 C 1127.932 806.072, 1201.727 795.617, 1202.273 796.396 C 1202.697 797.003, 1205.369 801.446, 1208.209 806.268 C 1234.254 850.487, 1279.167 885.435, 1327.915 899.414 C 1348.650 905.360, 1370.313 908.171, 1379.770 906.143 C 1392.312 903.453, 1401.900 896.028, 1407.523 884.650 C 1413.831 871.888, 1414.963 882.678, 1388.062 699.252 C 1371.513 586.412, 1363.340 533.312, 1361.951 529.599 C 1357.978 518.979, 1348.492 509.779, 1337.550 505.933 C 1330.023 503.288, 1318.860 503.353, 1310.718 506.091 C 1302.244 508.940, 1284.308 518.049, 1274 524.738 C 1248.487 541.293, 1222.456 568.247, 1207.882 593.202 C 1197.136 611.602, 1186.787 637.571, 1183.851 653.504 C 1182.901 658.664, 1182.138 660.411, 1180.557 661.047 C 1177.554 662.255, 825.048 713.382, 824.373 712.707 C 824.060 712.393, 863.516 661.838, 912.055 600.363 C 960.593 538.887, 1002.210 485.644, 1004.537 482.045 C 1013.891 467.576, 1017.339 455.255, 1017.282 436.500 C 1017.248 425.428, 1016.851 422.194, 1014.609 414.693 C 1009.778 398.534, 1003.744 388.963, 989.835 375.392 C 975.165 361.077, 686.202 98.021, 679.500 92.879 C 661.823 79.316, 636.851 73.315, 615.500 77.499 C 598.624 80.806, 585.795 87.012, 574.343 97.410 C 570.956 100.484, 568.008 103, 567.791 103 C 567.574 103, 561.345 97.017, 553.948 89.705 C 506.113 42.412, 448.046 12.634, 383 2.037 C 371.814 0.214, 366.453 0.017, 332 0.160 C 310.825 0.248, 291.925 0.486, 290 0.689 M 311.500 101.603 C 271.114 107.447, 245.178 116.735, 215.952 135.819 C 201.657 145.153, 192.223 152.955, 180.466 165.165 C 141.863 205.254, 121 256.764, 121 311.983 C 121 367.015, 141.237 417.972, 179.214 458.570 C 182.522 462.106, 185.757 465, 186.403 465 C 187.561 465, 489.623 178.460, 491.436 175.642 C 493.520 172.401, 471.167 151.116, 452.064 138.152 C 426.930 121.094, 402.881 111.015, 371.500 104.386 C 361.148 102.199, 356.409 101.804, 337 101.510 C 324.625 101.322, 313.150 101.364, 311.500 101.603" stroke="none" fill="#94fc43" fill-rule="evenodd"/></svg>