<?xml version="1.0" standalone="no"?>
<!DOCTYPE svg PUBLIC "-//W3C//DTD SVG 20010904//EN"
 "http://www.w3.org/TR/2001/REC-SVG-20010904/DTD/svg10.dtd">
<svg version="1.0" xmlns="http://www.w3.org/2000/svg"
 width="1500.000000pt" height="1500.000000pt" viewBox="0 0 1500.000000 1500.000000"
 preserveAspectRatio="xMidYMid meet">

<g transform="translate(0.000000,1500.000000) scale(0.100000,-0.100000)"
fill="#000000" stroke="none">
<path d="M897 13969 c-149 -16 -299 -67 -426 -146 -90 -56 -226 -184 -286
-268 -88 -124 -153 -287 -175 -440 -8 -59 -10 -1110 -8 -3955 l3 -3875 27 -96
c54 -196 137 -337 281 -476 135 -130 283 -209 486 -261 61 -15 548 -17 6636
-20 4494 -2 6599 0 6661 7 174 20 351 87 490 186 85 61 211 198 267 292 26 43
63 123 82 177 70 195 65 -122 65 4091 0 2568 -3 3838 -10 3895 -36 293 -170
528 -400 699 -144 108 -311 171 -501 191 -123 12 -13072 12 -13192 -1z m13201
-694 c110 -33 191 -130 212 -253 7 -48 10 -1126 8 -3862 l-3 -3795 -26 -55
c-50 -107 -128 -168 -243 -189 -86 -16 -13024 -16 -13098 0 -134 29 -220 109
-253 236 -13 50 -15 517 -15 3848 0 3364 2 3798 15 3850 27 104 98 182 197
216 51 18 284 18 6604 19 5843 0 6556 -2 6602 -15z"/>
<path d="M2263 12591 c-140 -48 -202 -140 -218 -320 -18 -218 -121 -321 -340
-340 -55 -5 -116 -15 -135 -22 -85 -30 -150 -95 -187 -189 -17 -43 -18 -164
-18 -2515 l0 -2470 23 -57 c13 -32 42 -77 65 -101 61 -63 119 -87 232 -98 121
-11 159 -21 216 -58 91 -57 124 -123 144 -287 9 -67 23 -131 35 -158 46 -97
140 -160 263 -176 97 -13 10217 -13 10314 0 85 11 154 43 204 97 58 60 80 114
90 220 5 52 13 112 19 133 24 90 120 186 210 210 21 6 81 14 133 19 186 18
291 111 318 283 6 40 9 953 7 2483 -3 2368 -3 2421 -22 2474 -26 72 -100 152
-168 181 -33 14 -87 25 -147 31 -137 12 -207 41 -265 109 -49 59 -67 107 -81
226 -8 65 -24 136 -36 164 -25 58 -91 123 -157 153 l-47 22 -5200 2 c-4976 2
-5202 2 -5252 -16z m5481 -2046 c492 -87 919 -473 1061 -960 94 -324 67 -670
-75 -960 -76 -156 -143 -249 -269 -376 -125 -125 -214 -190 -358 -263 -740
-371 -1636 5 -1898 797 -46 140 -65 265 -65 427 0 162 18 276 65 417 171 512
614 872 1151 933 97 11 280 4 388 -15z m-3851 -860 c79 -10 196 -76 265 -149
70 -75 106 -144 127 -241 18 -87 18 -113 0 -200 -20 -94 -56 -165 -121 -235
-103 -111 -218 -162 -364 -162 -283 1 -500 216 -500 497 0 215 129 398 330
470 50 18 151 33 190 29 14 -2 46 -6 73 -9z m7447 -15 c209 -61 350 -252 350
-475 0 -281 -217 -496 -500 -497 -146 0 -261 51 -364 162 -65 70 -101 141
-121 235 -18 87 -18 113 -1 197 33 155 129 279 270 349 121 59 230 68 366 29z"/>
<path d="M875 3933 c-253 -77 -349 -386 -185 -594 42 -52 119 -102 190 -123
49 -15 631 -16 6615 -16 5965 0 6566 1 6616 16 162 47 270 191 270 359 0 169
-107 310 -272 359 -48 14 -687 16 -6618 15 -5857 0 -6571 -2 -6616 -16z"/>
<path d="M4295 2670 c-2397 -4 -2835 -7 -2865 -19 -158 -63 -250 -194 -250
-356 0 -173 106 -311 275 -361 57 -16 372 -17 6013 -10 5242 7 5959 9 6003 22
304 91 369 493 107 667 -111 73 193 67 -3307 65 -1730 -2 -4419 -5 -5976 -8z"/>
</g>
</svg>
