<?xml version="1.0" standalone="no"?>
<!DOCTYPE svg PUBLIC "-//W3C//DTD SVG 20010904//EN"
 "http://www.w3.org/TR/2001/REC-SVG-20010904/DTD/svg10.dtd">
<svg version="1.0" xmlns="http://www.w3.org/2000/svg"
 width="1500.000000pt" height="1500.000000pt" viewBox="0 0 1500.000000 1500.000000"
 preserveAspectRatio="xMidYMid meet">

<g transform="translate(0.000000,1500.000000) scale(0.100000,-0.100000)"
fill="#000000" stroke="none">
<path d="M7900 14994 c-503 -47 -943 -200 -1339 -465 -236 -159 -445 -348
-621 -564 -176 -216 -358 -539 -455 -810 -207 -574 -215 -1213 -25 -1800 235
-722 749 -1312 1435 -1645 251 -122 499 -199 793 -246 150 -25 193 -27 417
-27 224 0 267 2 417 27 593 96 1091 342 1513 748 461 443 745 1010 836 1668
28 202 15 590 -27 830 -77 431 -273 868 -552 1229 -100 129 -369 394 -502 493
-402 299 -811 468 -1320 544 -101 15 -475 26 -570 18z m507 -449 c886 -114
1639 -734 1922 -1582 148 -442 163 -907 45 -1353 -205 -775 -808 -1400 -1581
-1640 -430 -132 -946 -133 -1374 0 -384 119 -718 325 -1001 618 -344 357 -557
788 -635 1282 -13 87 -18 174 -18 360 0 213 3 262 24 375 55 306 163 590 321
846 182 294 494 603 776 771 316 187 605 283 989 331 86 11 425 6 532 -8z"/>
<path d="M7893 14250 c-98 -11 -137 -50 -116 -117 15 -46 63 -62 153 -52 41 4
121 8 176 8 96 1 103 2 128 27 37 38 36 84 -5 118 -29 25 -35 26 -152 25 -67
-1 -150 -5 -184 -9z"/>
<path d="M8745 14128 c-48 -29 -59 -78 -25 -121 11 -14 55 -39 97 -57 43 -18
99 -43 125 -56 81 -41 137 -25 154 43 13 49 -12 74 -141 137 -125 61 -176 75
-210 54z"/>
<path d="M7153 14025 c-48 -25 -110 -62 -138 -83 -42 -32 -50 -44 -53 -75 -4
-47 32 -87 77 -87 28 0 110 41 249 124 67 40 78 104 25 146 -37 29 -62 25
-160 -25z"/>
<path d="M9481 13659 c-34 -13 -50 -39 -51 -77 0 -28 14 -50 78 -125 121 -143
126 -147 167 -147 46 0 85 36 85 79 0 61 -197 284 -247 280 -4 0 -19 -5 -32
-10z"/>
<path d="M8050 13617 l0 -42 -97 -18 c-208 -38 -361 -112 -479 -233 -183 -186
-225 -449 -111 -683 24 -49 58 -92 132 -167 110 -110 183 -167 406 -316 l149
-99 0 -461 0 -461 -59 7 c-288 33 -470 199 -546 501 l-23 90 -41 3 -41 3 2
-303 3 -303 110 -38 c145 -50 322 -85 473 -93 l122 -7 0 -104 0 -103 80 0 80
0 0 110 c0 61 4 110 9 110 34 0 189 34 251 55 203 69 365 225 436 420 71 194
48 434 -58 613 -68 115 -250 269 -524 444 l-113 73 -1 413 0 412 28 -6 c61
-14 176 -69 230 -108 126 -93 222 -233 287 -418 27 -76 28 -78 61 -78 l34 0 0
276 0 275 -97 46 c-162 75 -403 143 -507 143 -36 0 -36 0 -36 45 l0 45 -80 0
-80 0 0 -43z m0 -532 l0 -365 -27 17 c-126 79 -254 198 -290 268 -35 67 -42
159 -18 222 21 56 92 134 151 169 34 20 128 48 177 53 4 1 7 -163 7 -364z
m235 -1195 c92 -73 159 -151 197 -228 31 -63 33 -73 33 -172 -1 -86 -5 -113
-22 -152 -41 -88 -148 -171 -250 -193 l-33 -7 0 401 c0 221 3 401 6 401 3 0
35 -23 69 -50z"/>
<path d="M6543 13520 c-23 -9 -122 -137 -170 -218 -44 -75 -11 -142 71 -142
39 0 39 0 153 160 78 110 86 146 39 186 -28 25 -56 29 -93 14z"/>
<path d="M9933 12920 c-33 -14 -56 -55 -50 -92 7 -49 63 -251 76 -276 6 -11
19 -23 28 -26 10 -2 28 -7 39 -11 15 -4 31 3 53 21 25 21 31 33 31 66 0 59
-59 266 -84 294 -25 27 -62 37 -93 24z"/>
<path d="M6142 12727 c-22 -24 -42 -101 -61 -240 -9 -65 -8 -83 4 -106 27 -52
96 -60 137 -14 16 18 44 160 55 284 5 52 3 57 -22 77 -37 29 -85 28 -113 -1z"/>
<path d="M9991 12034 c-11 -14 -23 -42 -26 -63 -3 -20 -15 -83 -26 -140 -27
-139 -11 -181 71 -181 44 0 75 36 89 101 26 120 42 231 36 250 -20 61 -106 81
-144 33z"/>
<path d="M6131 11854 c-27 -35 -26 -69 4 -184 34 -125 62 -182 98 -193 40 -13
86 9 103 49 12 29 11 42 -16 131 -16 54 -34 116 -39 138 -15 59 -43 85 -91 85
-30 0 -43 -6 -59 -26z"/>
<path d="M9723 11240 c-12 -5 -39 -35 -61 -67 -22 -32 -60 -85 -86 -117 -35
-46 -46 -68 -46 -96 0 -37 29 -76 60 -80 59 -8 86 13 185 153 48 67 65 99 65
123 0 46 -8 63 -41 79 -32 17 -44 18 -76 5z"/>
<path d="M6525 11090 c-53 -21 -63 -89 -21 -145 48 -62 177 -194 197 -200 51
-17 109 27 109 81 0 27 -14 49 -77 121 -146 164 -151 167 -208 143z"/>
<path d="M8995 10569 c-71 -38 -136 -77 -142 -86 -22 -29 -16 -81 13 -110 37
-37 77 -28 218 48 127 69 153 96 141 150 -8 34 -48 69 -79 68 -11 0 -79 -31
-151 -70z"/>
<path d="M7193 10540 c-12 -5 -26 -18 -32 -29 -17 -31 -13 -86 7 -103 40 -36
254 -128 297 -128 39 0 79 42 79 83 0 50 -22 70 -117 108 -45 18 -103 43 -129
56 -50 25 -70 27 -105 13z"/>
<path d="M8112 10341 c-72 -5 -86 -9 -103 -30 -30 -37 -25 -84 13 -116 l33
-28 140 7 c77 4 151 12 164 19 55 26 65 93 21 137 -22 22 -81 24 -268 11z"/>
<path d="M12920 9694 c-249 -47 -456 -232 -526 -469 -23 -79 -24 -237 -1 -325
25 -98 98 -235 173 -328 108 -136 260 -242 447 -315 l109 -42 -34 -28 c-60
-51 -164 -116 -271 -171 -107 -54 -304 -136 -329 -136 -8 0 -32 24 -53 52
-495 654 -1187 1174 -2015 1512 -100 41 -246 96 -256 96 -2 0 -4 -259 -4 -575
l0 -575 -2045 0 -2045 0 0 545 c0 375 -3 545 -11 545 -13 0 -268 -102 -424
-170 -366 -160 -842 -430 -1244 -707 l-113 -78 -107 105 c-119 118 -221 194
-382 286 -625 356 -1480 434 -1667 151 -24 -36 -27 -50 -26 -126 1 -80 5 -97
66 -261 86 -228 181 -467 334 -833 137 -326 234 -570 234 -585 0 -11 -156
-141 -310 -259 -458 -350 -840 -536 -1276 -623 -445 -88 -615 -188 -669 -396
-21 -80 -19 -235 5 -379 10 -66 69 -520 131 -1010 88 -706 115 -893 128 -906
9 -9 97 -62 196 -119 1132 -647 1449 -821 1890 -1036 567 -277 1097 -491 1714
-692 l145 -47 285 -897 286 -898 717 0 718 0 0 675 c0 669 0 675 20 675 11 0
111 -11 223 -25 477 -58 876 -84 1407 -92 431 -6 649 2 960 37 96 11 182 20
192 20 17 0 18 -33 18 -645 l0 -645 717 2 718 3 331 1040 c321 1003 334 1041
366 1066 232 185 307 249 424 362 673 649 1071 1488 1181 2487 25 234 23 667
-6 909 -28 238 -61 414 -116 626 -82 315 -171 551 -322 848 -52 103 -94 189
-92 191 2 1 42 18 89 36 344 137 675 380 817 602 28 43 47 61 73 69 19 7 73
31 120 54 281 142 504 399 669 775 48 108 55 134 55 190 1 78 -20 121 -81 163
-78 55 -184 44 -250 -26 -17 -17 -48 -72 -68 -122 -75 -185 -182 -358 -279
-454 l-54 -53 -7 78 c-11 137 -26 226 -52 309 -80 253 -234 424 -456 507 -74
28 -95 31 -212 34 -71 1 -141 0 -155 -2z m259 -417 c89 -42 160 -143 197 -278
18 -68 26 -328 11 -381 -7 -25 -12 -28 -53 -28 -163 0 -370 110 -479 255 -61
81 -79 130 -79 217 -1 69 2 80 29 119 82 117 243 158 374 96z m-10176 -3147
c274 -85 355 -436 146 -635 -87 -83 -131 -100 -259 -100 -93 0 -112 3 -162 27
-78 36 -142 98 -179 173 -76 155 -49 325 70 442 106 104 242 137 384 93z"/>
</g>
</svg>
