<?xml version="1.0" standalone="no"?>
<!DOCTYPE svg PUBLIC "-//W3C//DTD SVG 20010904//EN"
 "http://www.w3.org/TR/2001/REC-SVG-20010904/DTD/svg10.dtd">
<svg version="1.0" xmlns="http://www.w3.org/2000/svg"
 width="1500.000000pt" height="1500.000000pt" viewBox="0 0 1500.000000 1500.000000"
 preserveAspectRatio="xMidYMid meet">

<g transform="translate(0.000000,1500.000000) scale(0.100000,-0.100000)"
fill="#000000" stroke="none">
<path d="M13695 14980 c-172 -46 -302 -135 -397 -273 -22 -32 -613 -1137
-1315 -2455 -701 -1318 -1278 -2401 -1283 -2405 -4 -5 -66 10 -136 33 -441
144 -862 169 -1259 75 -395 -93 -776 -349 -1049 -703 -115 -150 -290 -451
-320 -552 -72 -237 -478 -1020 -591 -1140 -18 -19 -43 -55 -55 -80 -13 -25
-59 -94 -104 -154 -388 -526 -875 -992 -1417 -1353 -312 -209 -836 -486 -1178
-623 -692 -277 -1476 -454 -2171 -490 -107 -5 -240 -9 -295 -8 -77 1 -109 -3
-140 -16 -62 -28 -118 -79 -150 -137 -27 -48 -30 -63 -30 -139 1 -108 15 -138
137 -285 413 -500 958 -1049 1453 -1466 1721 -1447 3944 -2425 6241 -2743 435
-61 680 -77 765 -53 159 47 673 490 1075 928 781 850 1513 2055 2044 3364 48
118 91 209 114 239 49 64 66 108 73 186 4 44 31 136 83 285 141 398 313 940
335 1055 4 19 26 100 50 180 73 249 89 359 90 625 0 239 -7 306 -50 490 -124
527 -447 989 -900 1288 -49 32 -111 70 -137 83 -27 13 -48 29 -48 34 0 5 405
1133 901 2507 496 1374 916 2542 935 2595 32 91 34 105 34 226 0 136 -15 204
-70 312 -81 159 -259 331 -436 420 -38 19 -71 38 -74 41 -14 16 -191 83 -276
105 -126 31 -339 34 -449 4z m-3538 -5604 c67 -14 179 -45 250 -68 117 -38
133 -46 184 -95 76 -72 135 -98 224 -95 62 1 79 -3 155 -38 47 -21 148 -65
225 -98 310 -133 1016 -442 1200 -527 52 -24 100 -55 135 -89 61 -58 124 -85
205 -88 119 -4 399 -191 554 -370 214 -248 336 -542 360 -868 8 -115 2 -270
-14 -375 -10 -61 -55 -239 -63 -247 -14 -12 -279 12 -401 37 -225 46 -403 117
-536 214 -92 68 -131 118 -174 223 -66 157 -246 229 -404 161 -55 -23 -74 -26
-167 -26 -232 2 -481 106 -673 283 -73 67 -105 116 -131 197 -20 61 -83 136
-137 163 -71 37 -129 43 -224 25 -72 -13 -103 -14 -186 -5 -332 37 -824 297
-879 466 -19 55 -105 137 -165 157 -30 10 -96 18 -165 21 -161 6 -271 39 -424
126 -71 41 -184 122 -256 183 l-33 28 21 37 c38 67 140 206 206 280 206 233
418 354 716 408 125 22 445 11 597 -20z m-2434 -2614 c74 -61 225 -144 337
-185 162 -60 447 -106 566 -92 l51 6 56 -88 c260 -408 753 -654 1259 -629
l126 7 46 -68 c176 -263 429 -461 708 -554 193 -65 457 -93 655 -71 l91 11
129 -127 c155 -154 252 -224 437 -317 201 -101 405 -163 620 -187 61 -7 110
-17 113 -24 8 -21 -230 -551 -393 -874 -220 -437 -429 -799 -679 -1176 -476
-717 -1044 -1360 -1523 -1723 l-83 -63 -82 6 c-261 21 -676 82 -1022 151 -254
50 -755 169 -840 198 l-39 14 94 63 c644 429 1320 1118 1874 1908 136 194 156
235 156 328 0 163 -126 293 -287 295 -71 1 -125 -14 -178 -50 -43 -29 -49 -36
-212 -267 -382 -541 -822 -1024 -1284 -1409 -286 -238 -594 -450 -826 -567
l-121 -61 -249 93 c-447 167 -842 341 -1248 549 -260 133 -667 362 -672 377
-2 5 27 20 64 33 552 196 1234 610 1733 1050 294 259 660 635 708 726 23 43
27 62 27 135 0 64 -5 94 -19 120 -36 66 -75 107 -138 141 -56 30 -71 33 -138
33 -125 -1 -158 -21 -337 -215 -156 -167 -333 -340 -503 -489 -619 -545 -1387
-952 -2000 -1060 l-105 -18 -38 24 c-81 53 -446 332 -615 470 -305 251 -496
426 -842 772 -311 311 -333 336 -310 343 14 3 84 12 155 18 778 71 1589 310
2365 698 406 202 653 352 995 601 441 321 872 733 1209 1154 l78 98 39 -33
c22 -17 63 -51 92 -75z"/>
<path d="M990 12580 c-507 -95 -891 -486 -976 -992 -30 -182 -6 -426 59 -598
82 -217 224 -409 406 -545 363 -273 829 -320 1238 -124 186 89 375 254 485
423 67 103 128 243 160 365 28 105 31 131 31 276 1 171 -12 260 -58 396 -120
351 -406 639 -752 755 -186 63 -407 79 -593 44z"/>
<path d="M3752 11680 c-109 -29 -187 -74 -272 -160 -87 -86 -131 -163 -160
-276 -36 -141 -18 -294 52 -427 42 -81 164 -203 245 -245 80 -42 198 -72 283
-72 85 0 204 30 283 72 92 49 205 165 251 258 86 178 86 362 -1 539 -47 95
-158 211 -250 259 -132 69 -291 89 -431 52z"/>
<path d="M3260 9589 c-565 -73 -1044 -412 -1291 -914 -32 -66 -72 -160 -88
-210 -133 -403 -98 -873 95 -1256 50 -100 163 -264 247 -359 348 -392 885
-599 1402 -540 272 32 511 120 750 277 125 83 332 288 427 423 314 446 383
1026 182 1535 -203 517 -664 910 -1195 1019 -173 35 -375 45 -529 25z"/>
</g>
</svg>
