<svg xmlns="http://www.w3.org/2000/svg" width="1500" height="1500" viewBox="0 0 1500 1500" version="1.1"><path d="" stroke="none" fill="#080404" fill-rule="evenodd"/><path d="M 467.917 181.051 C 429.868 183.789, 388.442 195.050, 350.761 212.898 C 298.439 237.681, 242.018 283.258, 204.432 331.100 C 164.649 381.741, 137.878 444.187, 128.594 508 C 124.454 536.453, 123.926 583.575, 127.456 609.500 C 138.176 688.229, 169.753 756.571, 222.303 814.780 C 228.122 821.226, 331.347 924.873, 451.692 1045.107 C 640.813 1234.054, 671.657 1264.472, 679.031 1269.303 C 693.441 1278.745, 704.612 1283.667, 723 1288.675 C 732.409 1291.237, 767.591 1291.237, 777 1288.675 C 795.388 1283.667, 806.559 1278.745, 820.969 1269.303 C 828.341 1264.473, 859.166 1234.079, 1047.839 1045.607 C 1167.925 925.648, 1271.650 821.399, 1278.339 813.942 C 1331.879 754.251, 1363.375 684.680, 1373.158 604.500 C 1375.231 587.506, 1374.936 534.158, 1372.673 517.026 C 1360.840 427.419, 1320.238 347.749, 1255.847 287.787 C 1196.393 232.423, 1137.720 200.340, 1070.639 186.513 C 963.648 164.460, 848.386 202.055, 758.205 288.418 L 749.911 296.361 742.705 289.331 C 665.473 213.979, 564.308 174.115, 467.917 181.051 M 475.500 306.619 C 449.709 309.265, 426.063 316.190, 402 328.145 C 375.917 341.104, 356.818 354.825, 330.246 379.695 C 275.051 431.356, 246.609 502.364, 251.056 577.397 C 253.085 611.630, 261.318 642.593, 276.675 673.750 L 283.207 687 372.102 687 L 460.997 687 499.115 610.771 C 520.079 568.845, 538.800 532.057, 540.717 529.021 C 549.321 515.393, 562.830 505.690, 579.052 501.487 C 586.445 499.571, 600.931 499.582, 608.540 501.510 C 616.696 503.576, 629.511 510.071, 635.263 515.052 C 646.262 524.579, 645.991 523.987, 692.401 640.006 L 735.579 747.945 750.939 727.419 C 767.757 704.946, 772.974 699.660, 783.500 694.427 C 797.793 687.322, 793.872 687.638, 872.357 687.257 C 940.874 686.923, 943.483 686.979, 951.357 688.944 C 970.036 693.607, 984.484 704.660, 992.754 720.614 C 997.929 730.597, 999.970 738.912, 999.970 750 C 999.970 774.891, 986.464 796.353, 964.316 806.657 C 951.270 812.727, 948.278 812.995, 893.185 813.042 L 843.500 813.084 805 864.620 C 782.588 894.621, 764.093 918.404, 760.740 921.535 C 753.496 928.299, 741.137 934.468, 730.500 936.630 C 715.719 939.634, 699.739 936.816, 686.213 928.821 C 679.161 924.652, 669.513 914.983, 665.199 907.761 C 663.383 904.721, 645.152 860.372, 624.684 809.206 L 587.470 716.177 570.033 750.836 L 552.597 785.495 544.548 793.567 C 535.810 802.331, 529.210 806.518, 518.441 810.130 C 511.583 812.430, 510.824 812.464, 454.748 812.979 L 397.996 813.500 574.005 989.500 L 750.014 1165.500 969.857 945.500 C 1209.711 705.476, 1198.096 717.631, 1215.169 688.787 C 1231.822 660.654, 1243.052 627.917, 1247.512 594.500 C 1249.669 578.338, 1249.677 547.404, 1247.528 531 C 1239.846 472.343, 1213.055 420.224, 1169.754 379.695 C 1143.182 354.825, 1124.083 341.104, 1098 328.145 C 1070.411 314.439, 1045.053 307.701, 1016 306.359 C 992.825 305.289, 963.365 310.286, 938.357 319.531 C 915.112 328.123, 885.799 344.948, 865 361.634 C 853.530 370.836, 836.274 387.627, 827.606 398.019 C 819.978 407.163, 812.942 417.696, 805.907 430.500 C 797.493 445.812, 782.867 457.730, 766.500 462.609 C 758.519 464.989, 742.833 464.979, 734 462.588 C 717.657 458.166, 702.656 446.101, 694.103 430.500 C 683.014 410.272, 672.750 396.887, 655.355 379.971 C 640.849 365.864, 630.401 357.421, 613.738 346.339 C 584.406 326.830, 550.779 313.339, 519.391 308.487 C 508.838 306.856, 483.643 305.783, 475.500 306.619" stroke="none" fill="#040404" fill-rule="evenodd"/></svg>