<svg width="24" height="25" viewBox="0 0 24 25" fill="none" xmlns="http://www.w3.org/2000/svg">
<g clip-path="url(#clip0_265_4802)">
<path d="M11.9032 0.53275C11.0984 0.60795 10.3944 0.85275 9.76076 1.27675C9.38316 1.53115 9.04876 1.83355 8.76716 2.17915C8.48556 2.52475 8.19436 3.04155 8.03916 3.47515C7.70796 4.39355 7.69516 5.41595 7.99916 6.35515C8.37516 7.51035 9.19756 8.45435 10.2952 8.98715C10.6968 9.18235 11.0936 9.30555 11.564 9.38075C11.804 9.42075 11.8728 9.42395 12.2312 9.42395C12.5896 9.42395 12.6584 9.42075 12.8984 9.38075C13.8472 9.22715 14.644 8.83355 15.3192 8.18395C16.0568 7.47515 16.5112 6.56795 16.6568 5.51515C16.7016 5.19195 16.6808 4.57115 16.6136 4.18715C16.4904 3.49755 16.1768 2.79835 15.7304 2.22075C15.5704 2.01435 15.14 1.59035 14.9272 1.43195C14.284 0.95355 13.6296 0.68315 12.8152 0.56155C12.6536 0.53755 12.0552 0.51995 11.9032 0.53275ZM12.7144 1.25115C14.132 1.43355 15.3368 2.42555 15.7896 3.78235C16.0264 4.48955 16.0504 5.23355 15.8616 5.94715C15.5336 7.18715 14.5688 8.18715 13.332 8.57115C12.644 8.78235 11.8184 8.78395 11.1336 8.57115C10.5192 8.38075 9.98476 8.05115 9.53196 7.58235C8.98156 7.01115 8.64076 6.32155 8.51596 5.53115C8.49516 5.39195 8.48716 5.25275 8.48716 4.95515C8.48716 4.61435 8.49196 4.53595 8.52556 4.35515C8.61356 3.86555 8.78636 3.41115 9.03916 3.00155C9.33036 2.53115 9.82956 2.03675 10.2808 1.76795C10.7864 1.46875 11.2488 1.31515 11.8632 1.23835C12.0008 1.22075 12.5432 1.22875 12.7144 1.25115Z" fill="url(#paint0_linear_265_4802)"/>
<path d="M12.7144 1.25115C14.132 1.43355 15.3368 2.42555 15.7896 3.78235C16.0264 4.48955 16.0504 5.23355 15.8616 5.94715C15.5336 7.18715 14.5688 8.18715 13.332 8.57115C12.644 8.78235 11.8184 8.78395 11.1336 8.57115C10.5192 8.38075 9.98476 8.05115 9.53196 7.58235C8.98156 7.01115 8.64076 6.32155 8.51596 5.53115C8.49516 5.39195 8.48716 5.25275 8.48716 4.95515C8.48716 4.61435 8.49196 4.53595 8.52556 4.35515C8.61356 3.86555 8.78636 3.41115 9.03916 3.00155C9.33036 2.53115 9.82956 2.03675 10.2808 1.76795C10.7864 1.46875 11.2488 1.31515 11.8632 1.23835C12.0008 1.22075 12.5432 1.22875 12.7144 1.25115Z" fill="url(#paint1_linear_265_4802)"/>
<path d="M12.7144 1.25115C14.132 1.43355 15.3368 2.42555 15.7896 3.78235C16.0264 4.48955 16.0504 5.23355 15.8616 5.94715C15.5336 7.18715 14.5688 8.18715 13.332 8.57115C12.644 8.78235 11.8184 8.78395 11.1336 8.57115C10.5192 8.38075 9.98476 8.05115 9.53196 7.58235C8.98156 7.01115 8.64076 6.32155 8.51596 5.53115C8.49516 5.39195 8.48716 5.25275 8.48716 4.95515C8.48716 4.61435 8.49196 4.53595 8.52556 4.35515C8.61356 3.86555 8.78636 3.41115 9.03916 3.00155C9.33036 2.53115 9.82956 2.03675 10.2808 1.76795C10.7864 1.46875 11.2488 1.31515 11.8632 1.23835C12.0008 1.22075 12.5432 1.22875 12.7144 1.25115Z" fill="url(#paint2_linear_265_4802)"/>
<path d="M12.0396 1.73404L11.7869 1.77727C11.2451 1.86853 10.8466 2.04625 10.5392 2.33684C10.0625 2.78354 9.9531 3.41516 10.2501 3.97713C10.3126 4.09481 10.4011 4.19808 10.5939 4.3782C10.8804 4.64238 11.0706 4.77927 11.6515 5.1371L12.0396 5.37486V7.58913L11.8859 7.57232C11.1357 7.49307 10.6616 7.0944 10.4637 6.36912L10.4037 6.15298L10.1901 6.13857L10.1954 6.86625L10.2032 7.59394L10.4897 7.6852C10.8674 7.80528 11.3285 7.88933 11.7218 7.90854L12.0396 7.92536V8.42249H12.4564V8.15831C12.4564 8.01181 12.4668 7.89413 12.4798 7.89413C12.5684 7.89413 12.9721 7.81248 13.1336 7.76205C13.6624 7.59634 14.0844 7.22169 14.2694 6.75338C14.4543 6.28747 14.3944 5.71108 14.1183 5.2812C13.9412 5.00502 13.4671 4.63517 12.7533 4.21489L12.459 4.03957L12.4564 3.04772V2.05826L12.5293 2.07267C12.6882 2.10629 12.9878 2.23838 13.1284 2.33204C13.4567 2.55539 13.7067 2.89161 13.876 3.33591C13.9464 3.51843 13.949 3.52323 14.0349 3.52323H14.1235V2.19995L13.8708 2.08948C13.4488 1.90936 12.8211 1.74605 12.5502 1.74605C12.4564 1.74605 12.4564 1.74605 12.4564 1.63798V1.52991H12.0396V1.73404ZM12.0396 2.91082V3.78741L11.9693 3.74658C11.6411 3.55685 11.3076 3.27106 11.2139 3.10295C11.1227 2.94205 11.1045 2.7211 11.167 2.5698C11.2217 2.43531 11.4066 2.24798 11.5603 2.16393C11.6489 2.1159 11.8937 2.04865 12.0214 2.03664C12.0318 2.03424 12.0396 2.4281 12.0396 2.91082ZM12.6517 5.78073C12.8914 5.95605 13.0659 6.14337 13.1649 6.32829C13.2457 6.4796 13.2509 6.50361 13.2509 6.74137C13.2483 6.94791 13.2378 7.01275 13.1936 7.10641C13.0868 7.31775 12.808 7.51708 12.5423 7.56992L12.4564 7.58673V6.62369C12.4564 6.09294 12.4642 5.66065 12.472 5.66065C12.4798 5.66065 12.5632 5.71589 12.6517 5.78073Z" fill="url(#paint3_linear_265_4802)"/>
<path d="M12.0396 1.63318V1.73404L11.7869 1.77727C11.2451 1.86853 10.8466 2.04625 10.5392 2.33684C10.0625 2.78354 9.9531 3.41516 10.2501 3.97713C10.3126 4.09481 10.4011 4.19808 10.5939 4.3782C10.8804 4.64237 11.0706 4.77927 11.6515 5.1371L12.0396 5.37486V6.482V7.58913L11.8859 7.57232C11.1357 7.49307 10.6616 7.0944 10.4637 6.36912L10.4037 6.15298L10.2969 6.14577L10.1901 6.13857L10.1954 6.86625L10.2032 7.59393L10.4897 7.6852C10.8674 7.80528 11.3285 7.88933 11.7218 7.90854L12.0396 7.92536V8.17512V8.42249H12.248H12.4564V8.15831C12.4564 8.01181 12.4668 7.89413 12.4798 7.89413C12.5684 7.89413 12.9721 7.81248 13.1336 7.76205C13.6624 7.59634 14.0844 7.22169 14.2694 6.75338C14.4543 6.28747 14.3944 5.71108 14.1183 5.2812C13.9412 5.00502 13.4671 4.63517 12.7533 4.21489L12.459 4.03957L12.4564 3.04772V2.05826L12.5293 2.07267C12.6882 2.10629 12.9878 2.23838 13.1284 2.33204C13.4566 2.55539 13.7067 2.89161 13.876 3.33591C13.9464 3.51843 13.949 3.52323 14.0349 3.52323H14.1235V2.86039V2.19995L13.8708 2.08948C13.4488 1.90936 12.8211 1.74605 12.5502 1.74605C12.4564 1.74605 12.4564 1.74605 12.4564 1.63798V1.52991H12.248H12.0396V1.63318ZM12.0396 2.91082V3.78741L11.9693 3.74658C11.6411 3.55685 11.3076 3.27106 11.2139 3.10295C11.1227 2.94205 11.1045 2.7211 11.167 2.5698C11.2217 2.43531 11.4066 2.24798 11.5603 2.16393C11.6489 2.1159 11.8937 2.04865 12.0214 2.03664C12.0318 2.03424 12.0396 2.4281 12.0396 2.91082ZM12.6517 5.78073C12.8914 5.95605 13.0659 6.14337 13.1649 6.32829C13.2457 6.47959 13.2509 6.50361 13.2509 6.74137C13.2483 6.94791 13.2378 7.01275 13.1936 7.10641C13.0868 7.31775 12.808 7.51708 12.5423 7.56992L12.4564 7.58673V6.62369C12.4564 6.09294 12.4642 5.66065 12.472 5.66065C12.4798 5.66065 12.5632 5.71589 12.6517 5.78073Z" fill="url(#paint4_linear_265_4802)"/>
<path d="M19.9352 9.01279C19.5368 9.08799 19.2056 9.38399 19.0936 9.76319C19.0568 9.88959 19.0552 10.1424 19.092 10.2832C19.132 10.44 19.2488 10.6592 19.3688 10.808C19.5416 11.0256 19.7848 11.1952 20.084 11.312L20.2584 11.3792L20.204 11.424C20.108 11.5056 19.9416 11.6096 19.7704 11.6976C19.5992 11.784 19.284 11.9152 19.244 11.9152C19.2312 11.9152 19.1928 11.8768 19.1592 11.832C18.3672 10.7856 17.26 9.95359 15.9352 9.41279C15.7752 9.34719 15.5416 9.25919 15.5256 9.25919C15.5224 9.25919 15.5192 9.67359 15.5192 10.1792V11.0992H12.2472H8.97516V10.2272C8.97516 9.62719 8.97036 9.35519 8.95756 9.35519C8.93676 9.35519 8.52876 9.51839 8.27916 9.62719C7.69356 9.88319 6.93196 10.3152 6.28876 10.7584L6.10796 10.8832L5.93676 10.7152C5.74636 10.5264 5.58316 10.4048 5.32556 10.2576C4.32556 9.68799 2.95756 9.56319 2.65836 10.016C2.61996 10.0736 2.61516 10.096 2.61676 10.2176C2.61836 10.3456 2.62476 10.3728 2.72236 10.6352C2.85996 11 3.01196 11.3824 3.25676 11.968C3.47596 12.4896 3.63116 12.88 3.63116 12.904C3.63116 12.9216 3.38156 13.1296 3.13516 13.3184C2.40236 13.8784 1.79116 14.176 1.09356 14.3152C0.381563 14.456 0.109563 14.616 0.0231632 14.9488C-0.0104368 15.0768 -0.00723676 15.3248 0.0311632 15.5552C0.0471632 15.6608 0.141563 16.3872 0.240763 17.1712C0.381563 18.3008 0.424763 18.6 0.445563 18.6208C0.459963 18.6352 0.600763 18.72 0.759163 18.8112C2.57036 19.8464 3.07756 20.1248 3.78316 20.4688C4.69036 20.912 5.53836 21.2544 6.52556 21.576L6.75756 21.6512L7.21356 23.0864L7.67116 24.5232H8.81836H9.96716V23.4432C9.96716 22.3728 9.96716 22.3632 9.99916 22.3632C10.0168 22.3632 10.1768 22.3808 10.356 22.4032C11.1192 22.496 11.7576 22.5376 12.6072 22.5504C13.2968 22.56 13.6456 22.5472 14.1432 22.4912C14.2968 22.4736 14.4344 22.4592 14.4504 22.4592C14.4776 22.4592 14.4792 22.512 14.4792 23.4912V24.5232L15.6264 24.52L16.7752 24.5152L17.3048 22.8512C17.8184 21.2464 17.8392 21.1856 17.8904 21.1456C18.2616 20.8496 18.3816 20.7472 18.5688 20.5664C19.6456 19.528 20.2824 18.1856 20.4584 16.5872C20.4984 16.2128 20.4952 15.52 20.4488 15.1328C20.404 14.752 20.3512 14.4704 20.2632 14.1312C20.132 13.6272 19.9896 13.2496 19.748 12.7744C19.6648 12.6096 19.5976 12.472 19.6008 12.4688C19.604 12.4672 19.668 12.44 19.7432 12.4112C20.2936 12.192 20.8232 11.8032 21.0504 11.448C21.0952 11.3792 21.1256 11.3504 21.1672 11.3376C21.1976 11.3264 21.284 11.288 21.3592 11.2512C21.8088 11.024 22.1656 10.6128 22.4296 10.0112C22.5064 9.83839 22.5176 9.79679 22.5176 9.70719C22.5192 9.58239 22.4856 9.51359 22.388 9.44639C22.2632 9.35839 22.0936 9.37599 21.988 9.48799C21.9608 9.51519 21.9112 9.60319 21.8792 9.68319C21.7592 9.97919 21.588 10.256 21.4328 10.4096L21.3464 10.4944L21.3352 10.3696C21.3176 10.1504 21.2936 10.008 21.252 9.87519C21.124 9.47039 20.8776 9.19679 20.5224 9.06399C20.404 9.01919 20.3704 9.01439 20.1832 9.00959C20.0696 9.00799 19.9576 9.00959 19.9352 9.01279ZM20.3496 9.67999C20.492 9.74719 20.6056 9.90879 20.6648 10.1248C20.6936 10.2336 20.7064 10.6496 20.6824 10.7344C20.6712 10.7744 20.6632 10.7792 20.5976 10.7792C20.3368 10.7792 20.0056 10.6032 19.8312 10.3712C19.7336 10.2416 19.7048 10.1632 19.7048 10.024C19.7032 9.91359 19.708 9.89599 19.7512 9.83359C19.8824 9.64639 20.14 9.58079 20.3496 9.67999ZM4.06796 14.7152C4.50636 14.8512 4.63596 15.4128 4.30156 15.7312C4.16236 15.864 4.09196 15.8912 3.88716 15.8912C3.73836 15.8912 3.70796 15.8864 3.62796 15.848C3.50316 15.7904 3.40076 15.6912 3.34156 15.5712C3.21996 15.3232 3.26316 15.0512 3.45356 14.864C3.62316 14.6976 3.84076 14.6448 4.06796 14.7152Z" fill="url(#paint5_linear_265_4802)"/>
</g>
<defs>
<linearGradient id="paint0_linear_265_4802" x1="12.2305" y1="9.42395" x2="12.2305" y2="0.52845" gradientUnits="userSpaceOnUse">
<stop stop-color="#88701C"/>
<stop offset="1" stop-color="#BE9E2E"/>
</linearGradient>
<linearGradient id="paint1_linear_265_4802" x1="12.2372" y1="1.22876" x2="12.2372" y2="8.73015" gradientUnits="userSpaceOnUse">
<stop stop-color="#EFCB4F"/>
<stop offset="1" stop-color="#B39736"/>
</linearGradient>
<linearGradient id="paint2_linear_265_4802" x1="12.2372" y1="1.22876" x2="12.2372" y2="8.73015" gradientUnits="userSpaceOnUse">
<stop stop-color="#EFCB4F"/>
<stop offset="1" stop-color="#B39736"/>
</linearGradient>
<linearGradient id="paint3_linear_265_4802" x1="12.2372" y1="1.22876" x2="12.2372" y2="8.73015" gradientUnits="userSpaceOnUse">
<stop stop-color="#EFCB4F"/>
<stop offset="1" stop-color="#B39736"/>
</linearGradient>
<linearGradient id="paint4_linear_265_4802" x1="12.2305" y1="8.42249" x2="12.2305" y2="1.52991" gradientUnits="userSpaceOnUse">
<stop stop-color="#88701C"/>
<stop offset="1" stop-color="#BE9E2E"/>
</linearGradient>
<linearGradient id="paint5_linear_265_4802" x1="11.2588" y1="24.5232" x2="11.2588" y2="9.00896" gradientUnits="userSpaceOnUse">
<stop stop-color="#BF704E"/>
<stop offset="1" stop-color="#D29C85"/>
</linearGradient>
<clipPath id="clip0_265_4802">
<rect width="24" height="24" fill="white" transform="translate(0 0.528442)"/>
</clipPath>
</defs>
</svg>
