<svg width="24" height="24" viewBox="0 0 24 24" fill="none" xmlns="http://www.w3.org/2000/svg">
<g clip-path="url(#clip0_245_2504)">
<path d="M21.912 0.0319462C21.6368 0.105547 21.4288 0.247946 21.2768 0.468746C21.2416 0.519947 20.296 2.28794 19.1728 4.39675C18.0512 6.50555 17.128 8.23835 17.12 8.24475C17.1136 8.25275 17.0144 8.22875 16.9024 8.19195C16.1968 7.96155 15.5232 7.92155 14.888 8.07195C14.256 8.22075 13.6464 8.63035 13.2096 9.19675C13.0256 9.43675 12.7456 9.91835 12.6976 10.0799C12.5824 10.4591 11.9328 11.7119 11.752 11.9039C11.7232 11.9343 11.6832 11.9919 11.664 12.0319C11.6432 12.0719 11.5696 12.1823 11.4976 12.2783C10.8768 13.1199 10.0976 13.8655 9.2304 14.4431C8.7312 14.7775 7.8928 15.2207 7.3456 15.4399C6.2384 15.8831 4.984 16.1663 3.872 16.2239C3.7008 16.2319 3.488 16.2383 3.4 16.2367C3.2768 16.2351 3.2256 16.2415 3.176 16.2623C3.0768 16.3071 2.9872 16.3887 2.936 16.4815C2.8928 16.5583 2.888 16.5823 2.888 16.7039C2.8896 16.8767 2.912 16.9247 3.1072 17.1599C3.768 17.9599 4.64 18.8383 5.432 19.5055C8.1856 21.8207 11.7424 23.3855 15.4176 23.8943C16.1136 23.9919 16.5056 24.0175 16.6416 23.9791C16.896 23.9039 17.7184 23.1951 18.3616 22.4943C19.6112 21.1343 20.7824 19.2063 21.632 17.1119C21.7088 16.9231 21.7776 16.7775 21.8144 16.7295C21.8928 16.6271 21.92 16.5567 21.9312 16.4319C21.9376 16.3615 21.9808 16.2143 22.064 15.9759C22.2896 15.3391 22.5648 14.4719 22.6 14.2879C22.6064 14.2575 22.6416 14.1279 22.68 13.9999C22.7968 13.6015 22.8224 13.4255 22.824 12.9999C22.824 12.6175 22.8128 12.5103 22.744 12.2159C22.5456 11.3727 22.0288 10.6335 21.304 10.1551C21.2256 10.1039 21.1264 10.0431 21.0848 10.0223C21.0416 10.0015 21.008 9.97595 21.008 9.96795C21.008 9.95995 21.656 8.15515 22.4496 5.95675C23.2432 3.75834 23.9152 1.88955 23.9456 1.80475C23.9968 1.65915 24 1.63675 24 1.44315C24 1.22555 23.976 1.11675 23.888 0.943947C23.7584 0.689547 23.4736 0.414347 23.1904 0.271946C23.1296 0.241547 23.0768 0.211147 23.072 0.206347C23.0496 0.180746 22.7664 0.0735455 22.6304 0.0383453C22.4288 -0.0112553 22.088 -0.0160542 21.912 0.0319462ZM16.2512 8.99835C16.3584 9.02075 16.5376 9.07035 16.6512 9.10715C16.8384 9.16795 16.864 9.18075 16.9456 9.25915C17.0672 9.37435 17.1616 9.41595 17.304 9.41115C17.4032 9.40955 17.4304 9.41595 17.552 9.47195C17.6272 9.50555 17.7888 9.57595 17.912 9.62875C18.408 9.84155 19.5376 10.3359 19.832 10.4719C19.9152 10.5103 19.992 10.5599 20.048 10.6143C20.1456 10.7071 20.2464 10.7503 20.376 10.7551C20.5664 10.7615 21.0144 11.0607 21.2624 11.3471C21.6048 11.7439 21.8 12.2143 21.8384 12.7359C21.8512 12.9199 21.8416 13.1679 21.816 13.3359C21.8 13.4335 21.728 13.7183 21.7152 13.7311C21.6928 13.7503 21.2688 13.7119 21.0736 13.6719C20.7136 13.5983 20.4288 13.4847 20.216 13.3295C20.0688 13.2207 20.0064 13.1407 19.9376 12.9727C19.832 12.7215 19.544 12.6063 19.2912 12.7151C19.2032 12.7519 19.1728 12.7567 19.024 12.7567C18.6528 12.7535 18.2544 12.5871 17.9472 12.3039C17.8304 12.1967 17.7792 12.1183 17.7376 11.9887C17.7056 11.8911 17.6048 11.7711 17.5184 11.7279C17.4048 11.6687 17.312 11.6591 17.16 11.6879C17.0448 11.7087 16.9952 11.7103 16.8624 11.6959C16.3312 11.6367 15.544 11.2207 15.456 10.9503C15.4256 10.8623 15.288 10.7311 15.192 10.6991C15.144 10.6831 15.0384 10.6703 14.928 10.6655C14.6704 10.6559 14.4944 10.6031 14.2496 10.4639C14.136 10.3983 13.9552 10.2687 13.84 10.1711L13.7872 10.1263L13.8208 10.0671C13.8816 9.95995 14.0448 9.73755 14.1504 9.61915C14.48 9.24635 14.8192 9.05275 15.296 8.96635C15.496 8.93115 16.008 8.94875 16.2512 8.99835ZM12.3568 13.1807C12.4752 13.2783 12.7168 13.4111 12.896 13.4767C13.1552 13.5727 13.6112 13.6463 13.8016 13.6239L13.8832 13.6143L13.9728 13.7551C14.3888 14.4079 15.1776 14.8015 15.9872 14.7615L16.1888 14.7503L16.2624 14.8591C16.544 15.2799 16.9488 15.5967 17.3952 15.7455C17.704 15.8495 18.1264 15.8943 18.4432 15.8591L18.5888 15.8415L18.7952 16.0447C19.0432 16.2911 19.1984 16.4031 19.4944 16.5519C19.816 16.7135 20.1424 16.8127 20.4864 16.8511C20.584 16.8623 20.6624 16.8783 20.6672 16.8895C20.68 16.9231 20.2992 17.7711 20.0384 18.2879C19.6864 18.9871 19.352 19.5663 18.952 20.1695C18.1904 21.3167 17.2816 22.3455 16.5152 22.9263L16.3824 23.0271L16.2512 23.0175C15.8336 22.9839 15.1696 22.8863 14.616 22.7759C14.2096 22.6959 13.408 22.5055 13.272 22.4591L13.2096 22.4367L13.36 22.3359C14.3904 21.6495 15.472 20.5471 16.3584 19.2831C16.576 18.9727 16.608 18.9071 16.608 18.7583C16.608 18.4975 16.4064 18.2895 16.1488 18.2863C16.0352 18.2847 15.9488 18.3087 15.864 18.3663C15.7952 18.4127 15.7856 18.4239 15.5248 18.7935C14.9136 19.6591 14.2096 20.4319 13.4704 21.0479C13.0128 21.4287 12.52 21.7679 12.1488 21.9551L11.9552 22.0527L11.5568 21.9039C10.8416 21.6367 10.2096 21.3583 9.56 21.0255C9.144 20.8127 8.4928 20.4463 8.4848 20.4223C8.4816 20.4143 8.528 20.3903 8.5872 20.3695C9.4704 20.0559 10.5616 19.3935 11.36 18.6895C11.8304 18.2751 12.416 17.6735 12.4928 17.5279C12.5296 17.4591 12.536 17.4287 12.536 17.3119C12.536 17.2095 12.528 17.1615 12.5056 17.1199C12.448 17.0143 12.3856 16.9487 12.2848 16.8943C12.1952 16.8463 12.1712 16.8415 12.064 16.8415C11.864 16.8431 11.8112 16.8751 11.5248 17.1855C11.2752 17.4527 10.992 17.7295 10.72 17.9679C9.7296 18.8399 8.5008 19.4911 7.52 19.6639L7.352 19.6927L7.2912 19.6543C7.1616 19.5695 6.5776 19.1231 6.3072 18.9023C5.8192 18.5007 5.5136 18.2207 4.96 17.6671C4.4624 17.1695 4.4272 17.1295 4.464 17.1183C4.4864 17.1135 4.5984 17.0991 4.712 17.0895C5.9568 16.9759 7.2544 16.5935 8.496 15.9727C9.1456 15.6495 9.5408 15.4095 10.088 15.0111C10.7936 14.4975 11.4832 13.8383 12.0224 13.1647L12.1472 13.0079L12.2096 13.0607C12.2448 13.0879 12.3104 13.1423 12.3568 13.1807Z" fill="url(#paint0_linear_245_2504)"/>
<path d="M16.6512 9.1071C16.5376 9.0703 16.3584 9.0207 16.2512 8.9983C16.008 8.9487 15.496 8.9311 15.296 8.9663C14.8192 9.0527 14.48 9.2463 14.1504 9.6191C14.0448 9.7375 13.8816 9.9599 13.8208 10.0671L13.7872 10.1263L13.84 10.1711C13.9552 10.2687 14.136 10.3983 14.2496 10.4639C14.4944 10.6031 14.6704 10.6559 14.928 10.6655C15.0384 10.6703 15.144 10.6831 15.192 10.6991C15.288 10.7311 15.4256 10.8623 15.456 10.9503C15.544 11.2207 16.3312 11.6367 16.8624 11.6959C16.9952 11.7103 17.0448 11.7087 17.16 11.6879C17.312 11.6591 17.4048 11.6687 17.5184 11.7279C17.6048 11.7711 17.7056 11.8911 17.7376 11.9887C17.7792 12.1183 17.8304 12.1967 17.9472 12.3039C18.2544 12.5871 18.6528 12.7535 19.024 12.7567C19.1728 12.7567 19.2032 12.7519 19.2912 12.7151C19.544 12.6063 19.832 12.7215 19.9376 12.9727C20.0064 13.1407 20.0688 13.2207 20.216 13.3295C20.4288 13.4847 20.7136 13.5983 21.0736 13.6719C21.2688 13.7119 21.6928 13.7503 21.7152 13.7311C21.728 13.7183 21.8 13.4335 21.816 13.3359C21.8416 13.1679 21.8512 12.9199 21.8384 12.7359C21.8 12.2143 21.6048 11.7439 21.2624 11.3471C21.0144 11.0607 20.5664 10.7615 20.376 10.7551C20.2464 10.7503 20.1456 10.7071 20.048 10.6143C19.992 10.5599 19.9152 10.5103 19.832 10.4719C19.5376 10.3359 18.408 9.8415 17.912 9.6287C17.7888 9.5759 17.6272 9.5055 17.552 9.4719C17.4304 9.4159 17.4032 9.4095 17.304 9.4111C17.1616 9.4159 17.0672 9.3743 16.9456 9.2591C16.864 9.1807 16.8384 9.1679 16.6512 9.1071Z" fill="url(#paint1_linear_245_2504)"/>
<path d="M12.896 13.4767C12.7168 13.4111 12.4752 13.2783 12.3568 13.1807L12.3495 13.1747C12.3037 13.1368 12.243 13.0865 12.2096 13.0607L12.1472 13.0079L12.0224 13.1647C11.4832 13.8383 10.7936 14.4975 10.088 15.0111C9.5408 15.4095 9.1456 15.6495 8.496 15.9727C7.2544 16.5935 5.9568 16.9759 4.712 17.0895C4.5984 17.0991 4.4864 17.1135 4.464 17.1183C4.4272 17.1295 4.4624 17.1695 4.96 17.6671C5.5136 18.2207 5.8192 18.5007 6.3072 18.9023C6.5776 19.1231 7.1616 19.5695 7.2912 19.6543L7.352 19.6927L7.52 19.6639C8.5008 19.4911 9.7296 18.8399 10.72 17.9679C10.992 17.7295 11.2752 17.4527 11.5248 17.1855C11.8112 16.8751 11.864 16.8431 12.064 16.8415C12.1712 16.8415 12.1952 16.8463 12.2848 16.8943C12.3856 16.9487 12.448 17.0143 12.5056 17.1199C12.528 17.1615 12.536 17.2095 12.536 17.3119C12.536 17.4287 12.5296 17.4591 12.4928 17.5279C12.416 17.6735 11.8304 18.2751 11.36 18.6895C10.5616 19.3935 9.4704 20.0559 8.5872 20.3695C8.528 20.3903 8.4816 20.4143 8.4848 20.4223C8.4928 20.4463 9.144 20.8127 9.56 21.0255C10.2096 21.3583 10.8416 21.6367 11.5568 21.9039L11.9552 22.0527L12.1488 21.9551C12.52 21.7679 13.0128 21.4287 13.4704 21.0479C14.2096 20.4319 14.9136 19.6591 15.5248 18.7935C15.7856 18.4239 15.7952 18.4127 15.864 18.3663C15.9488 18.3087 16.0352 18.2847 16.1488 18.2863C16.4064 18.2895 16.608 18.4975 16.608 18.7583C16.608 18.9071 16.576 18.9727 16.3584 19.2831C15.472 20.5471 14.3904 21.6495 13.36 22.3359L13.2096 22.4367L13.272 22.4591C13.408 22.5055 14.2096 22.6959 14.616 22.7759C15.1696 22.8863 15.8336 22.9839 16.2512 23.0175L16.3824 23.0271L16.5152 22.9263C17.2816 22.3455 18.1904 21.3167 18.952 20.1695C19.352 19.5663 19.6864 18.9871 20.0384 18.2879C20.2992 17.7711 20.68 16.9231 20.6672 16.8895C20.6624 16.8783 20.584 16.8623 20.4864 16.8511C20.1424 16.8127 19.816 16.7135 19.4944 16.5519C19.1984 16.4031 19.0432 16.2911 18.7952 16.0447L18.5888 15.8415L18.4432 15.8591C18.1264 15.8943 17.704 15.8495 17.3952 15.7455C16.9488 15.5967 16.544 15.2799 16.2624 14.8591L16.1888 14.7503L15.9872 14.7615C15.1776 14.8015 14.3888 14.4079 13.9728 13.7551L13.8832 13.6143L13.8016 13.6239C13.6112 13.6463 13.1552 13.5727 12.896 13.4767Z" fill="url(#paint2_linear_245_2504)"/>
<path d="M1.584 3.87192C0.7728 4.02392 0.1584 4.64952 0.0224 5.45912C-0.0256 5.75032 0.0128 6.14072 0.1168 6.41592C0.248 6.76312 0.4752 7.07032 0.7664 7.28792C1.3472 7.72472 2.0928 7.79992 2.7472 7.48632C3.0448 7.34392 3.3472 7.07992 3.5232 6.80952C3.6304 6.64472 3.728 6.42072 3.7792 6.22552C3.824 6.05752 3.8288 6.01592 3.8288 5.78392C3.8304 5.51032 3.8096 5.36792 3.736 5.15032C3.544 4.58872 3.0864 4.12792 2.5328 3.94232C2.2352 3.84152 1.8816 3.81592 1.584 3.87192Z" fill="url(#paint3_linear_245_2504)"/>
<path d="M6.0032 5.31195C5.8288 5.35835 5.704 5.43035 5.568 5.56795C5.4288 5.70555 5.3584 5.82875 5.312 6.00955C5.2544 6.23515 5.2832 6.47995 5.3952 6.69275C5.4624 6.82235 5.6576 7.01755 5.7872 7.08475C5.9152 7.15195 6.104 7.19995 6.24 7.19995C6.376 7.19995 6.5664 7.15195 6.6928 7.08475C6.84 7.00635 7.0208 6.82075 7.0944 6.67195C7.232 6.38715 7.232 6.09275 7.0928 5.80955C7.0176 5.65755 6.84 5.47195 6.6928 5.39515C6.4816 5.28475 6.2272 5.25275 6.0032 5.31195Z" fill="url(#paint4_linear_245_2504)"/>
<path d="M5.216 8.65751C4.312 8.77431 3.5456 9.31671 3.1504 10.1199C3.0992 10.2255 3.0352 10.3759 3.0096 10.4559C2.7968 11.1007 2.8528 11.8527 3.1616 12.4655C3.2416 12.6255 3.4224 12.8879 3.5568 13.0399C4.1136 13.6671 4.9728 13.9983 5.8 13.9039C6.2352 13.8527 6.6176 13.7119 7 13.4607C7.2 13.3279 7.5312 12.9999 7.6832 12.7839C8.1856 12.0703 8.296 11.1423 7.9744 10.3279C7.6496 9.50071 6.912 8.87191 6.0624 8.69752C5.7856 8.64151 5.4624 8.62551 5.216 8.65751Z" fill="url(#paint5_linear_245_2504)"/>
</g>
<defs>
<linearGradient id="paint0_linear_245_2504" x1="13.444" y1="23.9962" x2="13.444" y2="-0.00157356" gradientUnits="userSpaceOnUse">
<stop stop-color="#948712"/>
<stop offset="1" stop-color="#B5AA49"/>
</linearGradient>
<linearGradient id="paint1_linear_245_2504" x1="13.1487" y1="23.0271" x2="13.1487" y2="8.94784" gradientUnits="userSpaceOnUse">
<stop stop-color="#C0B90E"/>
<stop offset="1" stop-color="#ECE319"/>
</linearGradient>
<linearGradient id="paint2_linear_245_2504" x1="13.1487" y1="23.0271" x2="13.1487" y2="8.94784" gradientUnits="userSpaceOnUse">
<stop stop-color="#C0B90E"/>
<stop offset="1" stop-color="#ECE319"/>
</linearGradient>
<linearGradient id="paint3_linear_245_2504" x1="1.91541" y1="7.67786" x2="1.91541" y2="3.84284" gradientUnits="userSpaceOnUse">
<stop stop-color="#BDBBBB"/>
<stop offset="1" stop-color="#CCCCCC"/>
</linearGradient>
<linearGradient id="paint4_linear_245_2504" x1="6.24024" y1="7.19995" x2="6.24024" y2="5.28268" gradientUnits="userSpaceOnUse">
<stop stop-color="#333333"/>
<stop offset="1" stop-color="#403F3F"/>
</linearGradient>
<linearGradient id="paint5_linear_245_2504" x1="5.51916" y1="13.9198" x2="5.51916" y2="8.64121" gradientUnits="userSpaceOnUse">
<stop stop-color="#878686"/>
<stop offset="1" stop-color="#A6A6A6"/>
</linearGradient>
<clipPath id="clip0_245_2504">
<rect width="24" height="24" fill="white"/>
</clipPath>
</defs>
</svg>
