<svg width="24" height="24" viewBox="0 0 24 24" fill="none" xmlns="http://www.w3.org/2000/svg">
<path d="M22.1333 1.6228H1.86666C0.835734 1.6228 0 2.45854 0 3.48946V5.61121C0 5.75844 0.119391 5.87788 0.266672 5.87788H23.7333C23.8807 5.87788 24 5.75849 24 5.61121V3.48946C24 2.45854 23.1643 1.6228 22.1333 1.6228ZM3.36586 4.35205C3.03352 4.35205 2.76417 4.08266 2.76417 3.75037C2.76417 3.41812 3.03356 3.14868 3.36586 3.14868C3.69816 3.14868 3.96755 3.41807 3.96755 3.75037C3.96759 4.08266 3.6982 4.35205 3.36586 4.35205ZM5.29486 4.35205C4.96252 4.35205 4.69317 4.08266 4.69317 3.75037C4.69317 3.41812 4.96256 3.14868 5.29486 3.14868C5.62716 3.14868 5.89655 3.41807 5.89655 3.75037C5.89655 4.08266 5.62716 4.35205 5.29486 4.35205ZM7.22386 4.35205C6.89156 4.35205 6.62217 4.08266 6.62217 3.75037C6.62217 3.41812 6.89156 3.14868 7.22386 3.14868C7.5562 3.14868 7.82555 3.41807 7.82555 3.75037C7.82555 4.08266 7.55616 4.35205 7.22386 4.35205Z" fill="url(#paint0_linear_245_1801)"/>
<path d="M23.7333 6.94458H0.266672C0.119438 6.94458 0 7.06392 0 7.21125V20.5106C0 21.5415 0.835734 22.3772 1.86666 22.3772H22.1333C23.1643 22.3772 24 21.5415 24 20.5106V7.21125C24 7.06397 23.8807 6.94458 23.7333 6.94458ZM7.5938 17.3217C7.80206 17.53 7.80206 17.8677 7.5938 18.0759C7.48964 18.18 7.35314 18.2322 7.21669 18.2322C7.08014 18.2322 6.94373 18.1801 6.83958 18.0759L3.77175 15.0081C3.56348 14.7998 3.56348 14.4622 3.77175 14.2539L6.83958 11.1861C7.04784 10.9778 7.38553 10.9778 7.59389 11.1861C7.80216 11.3943 7.80216 11.732 7.59389 11.9403L4.90312 14.631L7.5938 17.3217ZM14.9322 10.9618L10.3529 18.8934C10.2541 19.0645 10.0748 19.1602 9.89053 19.1602C9.80002 19.1602 9.70833 19.1371 9.62433 19.0886C9.36923 18.9413 9.28181 18.6151 9.42914 18.36L14.0085 10.4284C14.1557 10.1733 14.4818 10.0859 14.737 10.2332C14.9921 10.3805 15.0795 10.7067 14.9322 10.9618ZM20.2283 15.0081L17.1604 18.0759C17.0563 18.18 16.9197 18.2322 16.7833 18.2322C16.6468 18.2322 16.5104 18.1801 16.4062 18.0759C16.1979 17.8677 16.1979 17.53 16.4062 17.3217L19.0969 14.631L16.4062 11.9403C16.1979 11.732 16.1979 11.3943 16.4062 11.1861C16.6145 10.9778 16.9521 10.9778 17.1605 11.1861L20.2283 14.2539C20.3283 14.3539 20.3846 14.4896 20.3846 14.631C20.3845 14.7725 20.3283 14.9081 20.2283 15.0081Z" fill="url(#paint1_linear_245_1801)"/>
<defs>
<linearGradient id="paint0_linear_245_1801" x1="12" y1="1.6228" x2="12" y2="5.87788" gradientUnits="userSpaceOnUse">
<stop stop-color="#2F61FF"/>
<stop offset="1" stop-color="#003DFF"/>
</linearGradient>
<linearGradient id="paint1_linear_245_1801" x1="12" y1="6.94458" x2="12" y2="22.3772" gradientUnits="userSpaceOnUse">
<stop stop-color="#2F61FF"/>
<stop offset="1" stop-color="#003DFF"/>
</linearGradient>
</defs>
</svg>
