<svg width="24" height="24" viewBox="0 0 24 24" fill="none" xmlns="http://www.w3.org/2000/svg">
<g clip-path="url(#clip0_245_2508)">
<path d="M15.0597 5.8894C14.8119 5.8894 14.582 5.81571 14.3894 5.69037L12.7459 6.91793C12.8255 7.11396 12.8702 7.32822 12.8702 7.5529C12.8702 7.66558 12.859 7.77569 12.8374 7.88247L14.3023 8.59413C14.4653 8.46841 14.6684 8.39322 14.8893 8.39322C15.4197 8.39322 15.8498 8.82326 15.8498 9.35369C15.8498 9.88455 15.4197 10.3145 14.8893 10.3145C14.3611 10.3145 13.9333 9.88858 13.9288 9.36185L12.4632 8.65019C12.1537 9.01179 11.6946 9.24166 11.182 9.24166C11.0705 9.24166 10.9618 9.23013 10.8562 9.20927L10.2751 10.4127C10.4894 10.6348 10.6211 10.9357 10.6211 11.2679C10.6211 11.949 10.069 12.501 9.38827 12.501C8.7075 12.501 8.1548 11.949 8.1548 11.2679C8.1548 10.5872 8.70755 10.0351 9.38827 10.0351C9.42774 10.0351 9.46716 10.0373 9.50658 10.0411L10.0869 8.83727C9.79379 8.58696 9.58768 8.23765 9.51924 7.84071L7.14891 7.63985C6.9406 8.12829 6.45699 8.47047 5.89233 8.47047C5.13793 8.47047 4.52715 7.85894 4.52715 7.10454C4.52715 6.35051 5.13793 5.7393 5.89233 5.7393C6.53738 5.7393 7.07677 6.18719 7.2196 6.78869L9.59138 6.98955C9.66582 6.78012 9.77963 6.58966 9.92546 6.42752L8.58929 4.40758C8.53646 4.41616 8.48213 4.42174 8.4271 4.42174C7.85719 4.42174 7.39519 3.95974 7.39519 3.38946C7.39519 2.81955 7.85719 2.35718 8.4271 2.35718C8.99771 2.35718 9.45971 2.81955 9.45971 3.38946C9.45971 3.59069 9.40093 3.77782 9.30127 3.93668L10.6367 5.95587C10.8078 5.89746 10.9909 5.86432 11.1821 5.86432C11.5801 5.86432 11.9454 6.00307 12.2341 6.23374L13.8775 5.00618C13.8448 4.89494 13.8262 4.77818 13.8262 4.65616C13.8262 3.97544 14.3782 3.42335 15.0597 3.42335C15.7404 3.42335 16.2924 3.97544 16.2924 4.65616C16.2925 5.33735 15.7404 5.8894 15.0597 5.8894Z" fill="url(#paint0_linear_245_2508)"/>
<path d="M22.2942 13.8518L20.3531 9.73688C20.3583 9.61411 20.3628 9.49097 20.3628 9.36637C20.3628 4.19419 16.169 0 10.9961 0C5.82244 0 1.62863 4.19419 1.62863 9.36637C1.62863 11.7806 2.34212 13.9582 4.13588 16.2642V20.519C4.13588 20.8423 4.32854 21.1342 4.62615 21.2603L13.2831 23.9357C13.5316 24.0414 13.8165 24.0157 14.0412 23.8669C14.2666 23.7178 14.402 23.4655 14.402 23.1962V20.3903C14.402 19.9465 14.7629 19.5849 15.2063 19.5849H19.1799C19.6248 19.5849 19.9841 19.2248 19.9841 18.781V16.362C19.9841 16.0533 20.1605 15.772 20.438 15.6374L21.9177 14.9187C22.315 14.7256 22.4824 14.2502 22.2942 13.8518ZM15.0597 5.88937C14.8119 5.88937 14.582 5.81569 14.3894 5.69034L12.7459 6.91791C12.8255 7.11394 12.8702 7.3282 12.8702 7.55288C12.8702 7.66556 12.859 7.77567 12.8374 7.88245L14.3023 8.59411C14.4653 8.46839 14.6684 8.3932 14.8893 8.3932C15.4197 8.3932 15.8498 8.82323 15.8498 9.35367C15.8498 9.88453 15.4197 10.3145 14.8893 10.3145C14.3611 10.3145 13.9333 9.88856 13.9288 9.36183L12.4632 8.65017C12.1537 9.01177 11.6946 9.24164 11.182 9.24164C11.0705 9.24164 10.9618 9.23011 10.8562 9.20925L10.2751 10.4127C10.4894 10.6348 10.6211 10.9357 10.6211 11.2679C10.6211 11.949 10.069 12.501 9.38827 12.501C8.70751 12.501 8.1548 11.949 8.1548 11.2679C8.1548 10.5871 8.70755 10.0351 9.38827 10.0351C9.42774 10.0351 9.46716 10.0373 9.50659 10.041L10.0869 8.83725C9.79379 8.58694 9.58768 8.23763 9.51924 7.84069L7.14891 7.63983C6.9406 8.12827 6.45699 8.47045 5.89233 8.47045C5.13793 8.47045 4.52715 7.85892 4.52715 7.10452C4.52715 6.35048 5.13793 5.73928 5.89233 5.73928C6.53738 5.73928 7.07677 6.18717 7.2196 6.78867L9.59138 6.98953C9.66582 6.78009 9.77963 6.58964 9.92546 6.4275L8.58929 4.40756C8.53646 4.41614 8.48213 4.42172 8.4271 4.42172C7.85719 4.42172 7.39519 3.95972 7.39519 3.38944C7.39519 2.81953 7.85719 2.35716 8.4271 2.35716C8.99771 2.35716 9.45971 2.81953 9.45971 3.38944C9.45971 3.59067 9.40093 3.7778 9.30127 3.93666L10.6367 5.95584C10.8078 5.89744 10.9909 5.8643 11.1821 5.8643C11.5801 5.8643 11.9454 6.00305 12.2341 6.23372L13.8775 5.00616C13.8448 4.89492 13.8262 4.77816 13.8262 4.65614C13.8262 3.97542 14.3782 3.42333 15.0597 3.42333C15.7404 3.42333 16.2924 3.97542 16.2924 4.65614C16.2925 5.33733 15.7404 5.88937 15.0597 5.88937Z" fill="url(#paint1_linear_245_2508)"/>
</g>
<defs>
<linearGradient id="paint0_linear_245_2508" x1="10.4098" y1="2.35718" x2="10.4098" y2="12.501" gradientUnits="userSpaceOnUse">
<stop stop-color="#F4E2FB"/>
<stop offset="1" stop-color="#DBAEEB"/>
</linearGradient>
<linearGradient id="paint1_linear_245_2508" x1="12" y1="0" x2="12" y2="24" gradientUnits="userSpaceOnUse">
<stop stop-color="#B4E484"/>
<stop offset="1" stop-color="#81BF43"/>
</linearGradient>
<clipPath id="clip0_245_2508">
<rect width="24" height="24" fill="white"/>
</clipPath>
</defs>
</svg>
