<svg width="24" height="25" viewBox="0 0 24 25" fill="none" xmlns="http://www.w3.org/2000/svg">
<path d="M22.4349 2.28673H20.7057V1.21211C20.7057 0.55837 20.1985 0.0284424 19.5728 0.0284424H4.42743C3.8017 0.0284424 3.29448 0.55837 3.29448 1.21211V2.28673H1.56531C0.700863 2.28673 9.15527e-05 3.01888 9.15527e-05 3.92202C9.15527e-05 4.82517 0.700863 5.55731 1.56531 5.55731H3.29448V5.65169C3.29448 10.6152 7.19214 14.639 12 14.639C16.808 14.639 20.7056 10.6152 20.7056 5.65169V5.55731H22.4348C23.2992 5.55731 24 4.82517 24 3.92202C24.0001 3.01888 23.2993 2.28673 22.4349 2.28673Z" fill="url(#paint0_linear_245_3283)"/>
<path d="M16.8373 21.8013H7.1629C6.57429 21.8013 6.09703 22.2998 6.09703 22.9149C6.09703 23.5299 6.5742 24.0284 7.1629 24.0284H16.8373C17.4259 24.0284 17.9032 23.5299 17.9032 22.9149C17.9032 22.2998 17.4259 21.8013 16.8373 21.8013Z" fill="#4F2703"/>
<path d="M15.4313 15.5139C15.3779 15.487 15.3138 15.5019 15.2764 15.5499C14.9145 16.0146 14.0915 16.8386 14.2276 17.8918C14.3825 19.0903 15.0841 19.708 14.9429 20.4823C14.9228 20.5925 14.9753 20.7033 15.0714 20.7534C15.1674 20.8036 15.2836 20.781 15.3561 20.6981C15.9026 20.0729 16.463 19.1814 16.1744 18.3676C15.7378 17.1365 15.3091 16.5902 15.501 15.6628C15.5135 15.6023 15.4847 15.5408 15.4313 15.5139Z" fill="url(#paint1_linear_245_3283)"/>
<path d="M12.1987 15.5139C12.1453 15.487 12.0812 15.5019 12.0438 15.5499C11.6819 16.0146 10.8589 16.8386 10.995 17.8918C11.1499 19.0903 11.8515 19.708 11.7104 20.4823C11.6902 20.5925 11.7427 20.7033 11.8388 20.7534C11.9349 20.8036 12.051 20.781 12.1235 20.6981C12.6701 20.0729 13.2304 19.1814 12.9418 18.3676C12.5052 17.1365 12.0765 16.5902 12.2685 15.6628C12.2809 15.6023 12.2521 15.5408 12.1987 15.5139Z" fill="url(#paint2_linear_245_3283)"/>
<path d="M8.96612 15.5139C8.91272 15.487 8.84859 15.5019 8.81121 15.5499C8.44933 16.0146 7.62629 16.8386 7.76242 17.8918C7.91733 19.0903 8.61891 19.708 8.47777 20.4823C8.45765 20.5925 8.51015 20.7033 8.60621 20.7534C8.70227 20.8036 8.81845 20.781 8.8909 20.6981C9.43747 20.0729 9.99782 19.1814 9.7092 18.3676C9.27263 17.1365 8.84394 16.5902 9.03588 15.6628C9.04841 15.6023 9.01952 15.5408 8.96612 15.5139Z" fill="url(#paint3_linear_245_3283)"/>
<defs>
<linearGradient id="paint0_linear_245_3283" x1="12" y1="0.0284424" x2="12" y2="14.639" gradientUnits="userSpaceOnUse">
<stop stop-color="#686868"/>
<stop offset="1" stop-color="#222222"/>
</linearGradient>
<linearGradient id="paint1_linear_245_3283" x1="15.2327" y1="15.5006" x2="15.2327" y2="20.7799" gradientUnits="userSpaceOnUse">
<stop stop-color="#E6A13B"/>
<stop offset="1" stop-color="#E2575F"/>
</linearGradient>
<linearGradient id="paint2_linear_245_3283" x1="12.0001" y1="15.5006" x2="12.0001" y2="20.7799" gradientUnits="userSpaceOnUse">
<stop stop-color="#E6A13B"/>
<stop offset="1" stop-color="#E2575F"/>
</linearGradient>
<linearGradient id="paint3_linear_245_3283" x1="8.76754" y1="15.5006" x2="8.76754" y2="20.7799" gradientUnits="userSpaceOnUse">
<stop stop-color="#E6A13B"/>
<stop offset="1" stop-color="#E2575F"/>
</linearGradient>
</defs>
</svg>
