<svg width="24" height="25" viewBox="0 0 24 25" fill="none" xmlns="http://www.w3.org/2000/svg">
<path d="M20.3137 6.10344C21.3865 6.10344 22.2554 5.23387 22.2554 4.16216C22.2554 3.08933 21.3865 2.22046 20.3137 2.22046C19.2412 2.22046 18.3723 3.08933 18.3723 4.16216C18.3724 5.23387 19.2413 6.10344 20.3137 6.10344Z" fill="url(#paint0_linear_265_4803)"/>
<path d="M11.9862 11.2502V11.2531C11.991 11.2531 11.9953 11.2516 12 11.2516C12.0047 11.2516 12.0091 11.2531 12.0138 11.2531V11.2502C12.7433 11.2353 13.3301 10.6419 13.3301 9.90951C13.3301 9.17601 12.7433 8.583 12.0138 8.56814V8.56519C12.009 8.56519 12.0047 8.56664 12 8.56664C11.9953 8.56664 11.991 8.56519 11.9862 8.56519V8.56814C11.2567 8.583 10.6699 9.17601 10.6699 9.90951C10.6698 10.6419 11.2567 11.2353 11.9862 11.2502Z" fill="url(#paint1_linear_265_4803)"/>
<path d="M3.6863 6.10344C4.7588 6.10344 5.62768 5.23387 5.62768 4.16216C5.62768 3.08933 4.7588 2.22046 3.6863 2.22046C2.61347 2.22046 1.74464 3.08933 1.74464 4.16216C1.7446 5.23387 2.61347 6.10344 3.6863 6.10344Z" fill="url(#paint2_linear_265_4803)"/>
<path d="M22.0358 7.02307H20.3337H19.471C18.4816 7.02307 17.5757 7.57765 17.1257 8.45848L15.5557 13.0507C15.5016 13.156 15.4011 13.2307 15.2842 13.2514C15.1673 13.2721 15.0475 13.2369 14.9601 13.156L13.9834 12.3103C13.6912 12.0399 13.308 11.8897 12.9098 11.8897H12H11.0902C10.692 11.8897 10.3088 12.0399 10.0166 12.3103L9.03998 13.156C8.95252 13.2369 8.83275 13.2721 8.71589 13.2514C8.59908 13.2307 8.49853 13.156 8.44444 13.0507L6.87436 8.45848C6.42436 7.57765 5.51845 7.02307 4.52911 7.02307H3.66633H1.96416C1.02347 7.02307 0 8.04654 0 8.98765V15.5132C0 15.9835 0.381094 16.3649 0.851437 16.3649C1.08295 16.3649 0.851438 16.3649 1.44591 16.3649L1.76962 21.9302C1.76962 22.4306 2.17575 22.8364 2.67619 22.8364C2.88741 22.8364 3.27684 22.8364 3.66628 22.8364C4.05572 22.8364 4.44516 22.8364 4.65637 22.8364C5.15681 22.8364 5.56294 22.4306 5.56294 21.9302L5.88666 16.3649L5.88267 12.3915C5.88267 12.3288 5.92552 12.2747 5.98683 12.2594C6.04819 12.2449 6.11095 12.2739 6.13964 12.3298L7.3852 15.3955C7.53548 15.6888 7.8142 15.8949 8.13867 15.9526C8.46314 16.0103 8.79595 15.9131 9.03802 15.6895L10.2299 14.8116C10.2698 14.7749 10.3275 14.7655 10.3769 14.7862C10.4266 14.8084 10.4586 14.8573 10.4586 14.911L10.4629 18.3567L10.6868 22.2092C10.6868 22.5555 10.9681 22.8364 11.3147 22.8364C11.4607 22.8364 11.7303 22.8364 12 22.8364C12.2696 22.8364 12.5393 22.8364 12.6852 22.8364C13.0318 22.8364 13.313 22.5555 13.313 22.2092L13.537 18.3567L13.5413 14.911C13.5413 14.8573 13.5733 14.8084 13.623 14.7862C13.6724 14.7655 13.7301 14.7749 13.77 14.8116L14.9619 15.6895C15.204 15.9131 15.5368 16.0103 15.8612 15.9526C16.1857 15.8949 16.4644 15.6888 16.6147 15.3955L17.8603 12.3298C17.8889 12.274 17.9517 12.2449 18.013 12.2594C18.0744 12.2747 18.1172 12.3287 18.1172 12.3915L18.1132 16.3649L18.4369 21.9302C18.4369 22.4306 18.843 22.8364 19.3435 22.8364C19.5548 22.8364 19.9442 22.8364 20.3336 22.8364C20.7231 22.8364 21.1125 22.8364 21.3237 22.8364C21.8242 22.8364 22.2303 22.4306 22.2303 21.9302L22.554 16.3649C23.1485 16.3649 22.917 16.3649 23.1485 16.3649C23.6189 16.3649 24 15.9835 24 15.5132V8.98765C24 8.04654 22.9765 7.02307 22.0358 7.02307Z" fill="url(#paint3_linear_265_4803)"/>
<defs>
<linearGradient id="paint0_linear_265_4803" x1="20.3139" y1="2.22046" x2="20.3139" y2="6.10344" gradientUnits="userSpaceOnUse">
<stop stop-color="#BEBEBE"/>
<stop offset="1" stop-color="#858585"/>
</linearGradient>
<linearGradient id="paint1_linear_265_4803" x1="12" y1="8.56519" x2="12" y2="11.2531" gradientUnits="userSpaceOnUse">
<stop stop-color="#BEBEBE"/>
<stop offset="1" stop-color="#858585"/>
</linearGradient>
<linearGradient id="paint2_linear_265_4803" x1="3.68616" y1="2.22046" x2="3.68616" y2="6.10344" gradientUnits="userSpaceOnUse">
<stop stop-color="#BEBEBE"/>
<stop offset="1" stop-color="#858585"/>
</linearGradient>
<linearGradient id="paint3_linear_265_4803" x1="12" y1="7.02307" x2="12" y2="22.8364" gradientUnits="userSpaceOnUse">
<stop stop-color="#BEBEBE"/>
<stop offset="1" stop-color="#858585"/>
</linearGradient>
</defs>
</svg>
