<svg width="24" height="25" viewBox="0 0 24 25" fill="none" xmlns="http://www.w3.org/2000/svg">
<path d="M15.4649 14.6517L14.5318 12.7859L12.7548 16.3392C12.6847 16.4793 12.5769 16.5971 12.4436 16.6795C12.3103 16.7618 12.1567 16.8054 12 16.8054C11.9764 16.8054 11.9522 16.8043 11.9272 16.8022C11.7583 16.7882 11.5975 16.7237 11.4658 16.617C11.3341 16.5103 11.2376 16.3665 11.1888 16.2042L9.26884 9.8042L7.68647 12.9641C7.61671 13.1035 7.5097 13.2208 7.37731 13.3031C7.24492 13.3854 7.09232 13.4294 6.93643 13.4303H2.15505C2.64734 14.46 3.30261 15.4736 4.12087 16.471C5.11091 17.6776 6.90584 19.6067 11.0511 22.4201C11.3307 22.6117 11.6616 22.7142 12.0005 22.7142C12.3394 22.7142 12.6704 22.6117 12.9499 22.4201C17.0952 19.6067 18.8901 17.6776 19.8802 16.471C20.2368 16.0371 20.5713 15.5855 20.8823 15.1178H16.2196C16.0629 15.1179 15.9093 15.0742 15.776 14.9919C15.6427 14.9096 15.535 14.7918 15.4649 14.6517ZM22.9711 13.4303H21.845C21.5644 14.0148 21.2427 14.5788 20.8823 15.1178H22.9711C23.1949 15.1178 23.4096 15.0289 23.5678 14.8707C23.7261 14.7125 23.815 14.4978 23.815 14.2741C23.815 14.0503 23.7261 13.8357 23.5678 13.6774C23.4096 13.5192 23.1949 13.4303 22.9711 13.4303ZM1.02893 11.7428C0.805106 11.7428 0.59045 11.8317 0.432182 11.9899C0.273915 12.1481 0.185001 12.3627 0.185001 12.5865C0.185001 12.8103 0.273915 13.0249 0.432182 13.1832C0.59045 13.3414 0.805106 13.4303 1.02893 13.4303H2.15505C1.89406 12.8853 1.67506 12.3211 1.49995 11.7428H1.02893Z" fill="url(#paint0_linear_265_4804)"/>
<path d="M8.71403 7.11849C8.78962 6.96721 8.90892 6.84214 9.05646 6.75949C9.204 6.67684 9.37297 6.64043 9.54146 6.65498C9.70994 6.66953 9.87017 6.73437 10.0014 6.8411C10.1325 6.94782 10.2286 7.0915 10.2772 7.25349L12.1968 13.6535L13.7789 10.4936C13.849 10.3534 13.9567 10.2356 14.09 10.1532C14.2233 10.0709 14.3769 10.0272 14.5335 10.0272C14.6902 10.0272 14.8438 10.0709 14.9771 10.1532C15.1104 10.2356 15.2181 10.3534 15.2882 10.4936L16.7406 13.4025H21.8434C22.6031 11.8362 22.9886 10.1148 22.9693 8.37412C22.9361 5.09872 20.3082 2.43347 17.1113 2.43347C14.5752 2.43347 12.8924 3.99128 12.0001 5.12298C11.1099 3.9897 9.42493 2.43347 6.88881 2.43347C3.69191 2.43347 1.06404 5.09872 1.03081 8.37412C1.01718 9.50518 1.17598 10.6317 1.50175 11.7149H6.41577L8.71403 7.11849Z" fill="url(#paint1_linear_265_4804)"/>
<defs>
<linearGradient id="paint0_linear_265_4804" x1="12" y1="9.8042" x2="12" y2="22.7142" gradientUnits="userSpaceOnUse">
<stop stop-color="#D91717"/>
<stop offset="1" stop-color="#AB1A1A"/>
</linearGradient>
<linearGradient id="paint1_linear_265_4804" x1="12" y1="2.43347" x2="12" y2="13.6535" gradientUnits="userSpaceOnUse">
<stop stop-color="#D91717"/>
<stop offset="1" stop-color="#AB1A1A"/>
</linearGradient>
</defs>
</svg>
