<svg width="24" height="25" viewBox="0 0 24 25" fill="none" xmlns="http://www.w3.org/2000/svg">
<g clip-path="url(#clip0_251_1610)">
<path d="M2.8695 17.5068H6.78253H8.34778H11.4782H13.0434H16.1738H17.7391H21.6521C22.0844 17.5068 22.4348 17.8573 22.4348 18.2895C22.4348 21.3102 19.9772 23.7677 16.9565 23.7677H7.56516C4.54444 23.7677 2.08688 21.3102 2.08688 18.2895C2.08688 17.8572 2.43731 17.5068 2.8695 17.5068Z" fill="url(#paint0_linear_251_1610)"/>
<path d="M16.9565 22.2023C18.8462 22.2023 20.4273 20.8505 20.7909 19.0667H3.73078C4.09439 20.8505 5.67553 22.2023 7.5652 22.2023H16.9565Z" fill="url(#paint1_linear_251_1610)"/>
<path d="M24 6.55017C24 8.00615 23.0008 9.2332 21.6522 9.58152C21.6522 9.58152 21.0117 9.68067 20.087 9.68067H17.7391L16.1739 9.68062H14.6087H13.0435H9.91308C8.18695 9.68062 6.78263 8.27629 6.78263 6.55017C6.78263 4.71937 8.36105 3.25631 10.2174 3.43438C10.9686 1.5727 13.0162 0.289307 15.3913 0.289307C17.7664 0.289307 19.814 1.5727 20.5652 3.43438C22.4205 3.25645 24 4.71824 24 6.55017Z" fill="url(#paint2_linear_251_1610)"/>
<path d="M7.56516 11.2458C7.56516 12.5404 6.51192 13.5936 5.21733 13.5936L3.65213 13.5936H2.34778C1.05319 13.5936 -4.62532e-05 12.5403 -4.62532e-05 11.2457C-4.62532e-05 10.337 0.549141 9.52356 1.36664 9.13829C1.60444 8.12673 2.51822 7.33276 3.65213 7.33276C4.70972 7.33276 5.6063 8.0357 5.89903 8.99889C6.86227 9.29167 7.56516 10.1882 7.56516 11.2458Z" fill="url(#paint3_linear_251_1610)"/>
<path d="M8.34783 6.55027C8.34783 7.41333 9.04997 8.11547 9.91303 8.11547H20.8695C21.7326 8.11547 22.4347 7.41333 22.4347 6.55027C22.4347 5.15461 20.7408 4.46513 19.7628 5.4435C19.4572 5.74908 18.9616 5.74918 18.656 5.44355C18.3504 5.13793 18.3503 4.64236 18.6559 4.33679C18.7917 4.20099 18.9382 4.07996 19.0928 3.9729C18.5579 2.73436 17.0712 1.85461 15.3913 1.85461C13.7113 1.85461 12.2246 2.73441 11.6897 3.9729C11.8443 4.07991 11.9908 4.20094 12.1266 4.33674C12.4321 4.64236 12.4321 5.13793 12.1266 5.4435C11.8209 5.74913 11.3254 5.74913 11.0198 5.4435C10.0404 4.46419 8.34783 5.15611 8.34783 6.55027Z" fill="url(#paint4_linear_251_1610)"/>
<path d="M2.34783 12.0285C1.9163 12.0285 1.5652 11.6774 1.5652 11.2459C1.5652 10.8357 1.90491 10.5533 2.24044 10.4863C2.61333 10.412 2.87883 10.0804 2.86978 9.70024C2.85919 9.25437 3.21727 8.89807 3.65217 8.89807C4.0837 8.89807 4.4348 9.24916 4.4348 9.6807C4.4348 10.1129 4.78519 10.4633 5.21742 10.4633C5.64895 10.4633 6.00005 10.8144 6.00005 11.2459C6.00005 11.6775 5.64895 12.0286 5.21742 12.0286L2.34783 12.0285Z" fill="url(#paint5_linear_251_1610)"/>
<path d="M17.7391 16.724V17.5067H16.1739V16.724C16.1739 16.2918 16.5243 15.9414 16.9565 15.9414C17.3888 15.9414 17.7391 16.2918 17.7391 16.724Z" fill="url(#paint6_linear_251_1610)"/>
<path d="M17.6604 12.8109C17.2968 14.5949 15.7158 15.9414 13.8261 15.9414C13.3946 15.9414 13.0435 16.2925 13.0434 16.724V17.5066H11.4783V16.724C11.4783 15.4294 12.5315 14.3762 13.8261 14.3762C15.1207 14.3762 16.1739 13.3229 16.1739 12.0283V9.68051L17.7391 9.68056V11.2458H19.3043C19.7359 11.2458 20.087 10.8947 20.087 10.4631V9.68056C21.0117 9.68056 21.6522 9.58142 21.6522 9.58142V10.4631C21.6522 11.7577 20.599 12.8109 19.3044 12.8109H17.6604Z" fill="url(#paint7_linear_251_1610)"/>
<path d="M11.4782 16.7243V17.5069H8.34778V16.7243C8.34778 14.5666 10.1032 12.8112 12.2608 12.8112C13.5554 12.8112 14.6086 11.758 14.6086 10.4634V9.68079H16.1738V12.0286C16.1738 13.3232 15.1206 14.3764 13.826 14.3764C12.5315 14.3764 11.4782 15.4297 11.4782 16.7243Z" fill="url(#paint8_linear_251_1610)"/>
<path d="M13.0435 10.4632V9.68054H14.6087V10.4632C14.6087 11.7578 13.5555 12.811 12.2609 12.811C10.1032 12.811 8.34783 14.5664 8.34783 16.724V17.5067H6.78258V16.724C6.78258 16.4583 6.80198 16.1919 6.83873 15.9362H6C4.70541 15.9362 3.65217 14.8882 3.65217 13.5936L5.21737 13.5936C5.21737 14.0252 5.56847 14.3762 6 14.3762H7.31194C8.19277 12.527 10.08 11.2458 12.2609 11.2458C12.6924 11.2458 13.0435 10.8947 13.0435 10.4632Z" fill="url(#paint9_linear_251_1610)"/>
</g>
<defs>
<linearGradient id="paint0_linear_251_1610" x1="12.2608" y1="17.5068" x2="12.2608" y2="23.7677" gradientUnits="userSpaceOnUse">
<stop stop-color="#A84914"/>
<stop offset="1" stop-color="#633013"/>
</linearGradient>
<linearGradient id="paint1_linear_251_1610" x1="12.2609" y1="19.0667" x2="12.2609" y2="22.2023" gradientUnits="userSpaceOnUse">
<stop stop-color="#D16326"/>
<stop offset="1" stop-color="#A84914"/>
</linearGradient>
<linearGradient id="paint2_linear_251_1610" x1="15.3913" y1="0.289307" x2="15.3913" y2="9.68067" gradientUnits="userSpaceOnUse">
<stop stop-color="#4B9610"/>
<stop offset="1" stop-color="#2F6901"/>
</linearGradient>
<linearGradient id="paint3_linear_251_1610" x1="3.78256" y1="7.33276" x2="3.78256" y2="13.5936" gradientUnits="userSpaceOnUse">
<stop stop-color="#4B9610"/>
<stop offset="1" stop-color="#2F6901"/>
</linearGradient>
<linearGradient id="paint4_linear_251_1610" x1="15.3913" y1="1.85461" x2="15.3913" y2="8.11547" gradientUnits="userSpaceOnUse">
<stop stop-color="#96EB42"/>
<stop offset="1" stop-color="#72C91C"/>
</linearGradient>
<linearGradient id="paint5_linear_251_1610" x1="3.78263" y1="8.89807" x2="3.78263" y2="12.0286" gradientUnits="userSpaceOnUse">
<stop stop-color="#96EB42"/>
<stop offset="1" stop-color="#72C91C"/>
</linearGradient>
<linearGradient id="paint6_linear_251_1610" x1="16.9565" y1="15.9414" x2="16.9565" y2="17.5067" gradientUnits="userSpaceOnUse">
<stop stop-color="#8B6B44"/>
<stop offset="1" stop-color="#6B3D07"/>
</linearGradient>
<linearGradient id="paint7_linear_251_1610" x1="16.5653" y1="9.58142" x2="16.5653" y2="17.5066" gradientUnits="userSpaceOnUse">
<stop stop-color="#8B6B44"/>
<stop offset="1" stop-color="#6B3D07"/>
</linearGradient>
<linearGradient id="paint8_linear_251_1610" x1="12.2608" y1="9.68079" x2="12.2608" y2="17.5069" gradientUnits="userSpaceOnUse">
<stop stop-color="#6B3D07"/>
<stop offset="1" stop-color="#492903"/>
</linearGradient>
<linearGradient id="paint9_linear_251_1610" x1="9.13043" y1="9.68054" x2="9.13043" y2="17.5067" gradientUnits="userSpaceOnUse">
<stop stop-color="#8B6B44"/>
<stop offset="1" stop-color="#6B3D07"/>
</linearGradient>
<clipPath id="clip0_251_1610">
<rect width="24" height="24" fill="white" transform="translate(0 0.0284424)"/>
</clipPath>
</defs>
</svg>
