<svg width="24" height="25" viewBox="0 0 24 25" fill="none" xmlns="http://www.w3.org/2000/svg">
<g clip-path="url(#clip0_265_4801)">
<path d="M3.8389 17.2711C3.99489 17.3593 4.16445 17.4 4.33402 17.4C4.6901 17.4 5.036 17.2101 5.22252 16.8777L7.44379 12.8964L9.96687 13.5204C10.4247 13.6323 10.8995 13.4186 11.1165 12.9981L12.7138 9.89175L15.7388 10.2648C15.9114 10.2858 16.0864 10.2622 16.2473 10.1963C16.4082 10.1304 16.5495 10.0244 16.6578 9.88836L20.0016 5.69L20.1508 6.3852C20.2525 6.86337 20.6764 7.18893 21.1444 7.18893C21.2156 7.18893 21.2868 7.18214 21.3581 7.16519C21.4886 7.13725 21.6124 7.08384 21.7223 7.00802C21.8321 6.9322 21.926 6.83545 21.9984 6.72331C22.0709 6.61117 22.1205 6.48585 22.1445 6.35451C22.1684 6.22317 22.1662 6.0884 22.138 5.9579L21.5378 3.16013L21.5276 3.12961C21.5174 3.08213 21.5005 3.03804 21.4835 2.99396C21.4768 2.977 21.47 2.95665 21.4598 2.9397C21.453 2.92952 21.4496 2.91596 21.4462 2.90578C21.4293 2.87187 21.4089 2.84135 21.3886 2.81083C21.3818 2.80405 21.3784 2.79387 21.375 2.78709C21.3411 2.73622 21.3004 2.69214 21.2597 2.65144C21.2495 2.64466 21.2428 2.63788 21.2326 2.6277C21.1987 2.59379 21.158 2.56666 21.1207 2.53953C21.109 2.53043 21.0965 2.52248 21.0834 2.51579C21.0381 2.48691 20.9905 2.46195 20.9409 2.44118C20.9342 2.43779 20.9308 2.4344 20.924 2.4344C20.8697 2.41405 20.8155 2.3971 20.7612 2.38692L20.7002 2.37675C20.6595 2.36997 20.6188 2.36658 20.5747 2.36658H20.4899L17.7091 2.52936C17.1495 2.56327 16.7188 3.04483 16.7527 3.60438C16.7867 4.16394 17.2682 4.58445 17.8278 4.56071L18.3297 4.53019L15.42 8.17917L12.256 7.78918C11.8321 7.73831 11.4217 7.95535 11.225 8.33517L9.67183 11.3568L7.17588 10.7396C6.95928 10.6854 6.73086 10.7042 6.52606 10.7931C6.32126 10.882 6.15153 11.0361 6.0432 11.2313L3.44212 15.8942C3.17082 16.3792 3.34717 16.9998 3.8389 17.2711Z" fill="url(#paint0_linear_265_4801)"/>
<path d="M2.03475 1.62724V20.8013H10.9062H11.1945L11.2188 20.9375C11.4023 21.8281 12.0312 22.8361 12.0312 22.8361H1.01737C0.454427 22.8361 0 22.3816 0 21.8187V1.62724C0 1.06429 0.454427 0.609863 1.01737 0.609863C1.58032 0.609863 2.03475 1.06429 2.03475 1.62724Z" fill="url(#paint1_linear_265_4801)"/>
<path fill-rule="evenodd" clip-rule="evenodd" d="M17.6875 21.3374C16.4822 21.3374 15.5052 20.3031 15.5052 19.027C15.5052 17.7508 16.8536 16.7507 17.6731 15.8708C18.5249 16.773 19.8698 17.7508 19.8698 19.027C19.8698 20.3031 18.8928 21.3374 17.6875 21.3374ZM17.6875 14.7749C16.5378 15.9251 14.625 17.522 14.625 19.191C14.625 20.8596 15.9961 22.2124 17.6875 22.2124C19.3789 22.2124 20.75 20.8596 20.75 19.191C20.75 17.522 18.8832 15.9548 17.6875 14.7749ZM17.6875 23.5249C15.0297 23.5249 12.875 21.3763 12.875 18.726C12.875 16.076 15.8811 13.5394 17.6875 11.7124C19.567 13.5862 22.5 16.076 22.5 18.726C22.5 21.3763 20.3453 23.5249 17.6875 23.5249ZM17.6875 10.3999C15.5525 12.5651 12 15.5712 12 18.7124C12 21.8537 14.5463 24.3999 17.6875 24.3999C20.8287 24.3999 23.375 21.8537 23.375 18.7124C23.375 15.5712 19.9087 12.6211 17.6875 10.3999Z" fill="url(#paint2_linear_265_4801)"/>
<path fill-rule="evenodd" clip-rule="evenodd" d="M17.6875 14.7776C16.5378 15.9278 14.625 17.5246 14.625 19.1937C14.625 20.8623 15.9961 22.2151 17.6875 22.2151C19.3789 22.2151 20.75 20.8623 20.75 19.1937C20.75 17.5246 18.8832 15.9575 17.6875 14.7776ZM17.6875 23.5276C15.0297 23.5276 12.875 21.379 12.875 18.7287C12.875 16.0787 15.8811 13.5421 17.6875 11.7151C19.567 13.5889 22.5 16.0787 22.5 18.7287C22.5 21.379 20.3453 23.5276 17.6875 23.5276Z" fill="url(#paint3_linear_265_4801)"/>
<path fill-rule="evenodd" clip-rule="evenodd" d="M17.6875 23.5276C15.0297 23.5276 12.875 21.379 12.875 18.7287C12.875 16.0787 15.8811 13.5421 17.6875 11.7151C19.567 13.5889 22.5 16.0787 22.5 18.7287C22.5 21.379 20.3453 23.5276 17.6875 23.5276ZM14.625 19.1937C14.625 17.5246 16.5378 15.9278 17.6875 14.7776C18.8832 15.9575 20.75 17.5246 20.75 19.1937C20.75 20.8623 19.3789 22.2151 17.6875 22.2151C15.9961 22.2151 14.625 20.8623 14.625 19.1937Z" fill="url(#paint4_linear_265_4801)"/>
<path fill-rule="evenodd" clip-rule="evenodd" d="M17.6875 21.3374C16.4822 21.3374 15.5052 20.3032 15.5052 19.027C15.5052 17.7508 16.8536 16.7507 17.6731 15.8708C18.5249 16.773 19.8698 17.7508 19.8698 19.027C19.8698 20.3032 18.8928 21.3374 17.6875 21.3374Z" fill="url(#paint5_linear_265_4801)"/>
</g>
<defs>
<linearGradient id="paint0_linear_265_4801" x1="12.7379" y1="2.36658" x2="12.7379" y2="17.4" gradientUnits="userSpaceOnUse">
<stop stop-color="#6C8FFF"/>
<stop offset="1" stop-color="#2F61FF"/>
</linearGradient>
<linearGradient id="paint1_linear_265_4801" x1="6.01562" y1="0.609863" x2="6.01563" y2="22.8361" gradientUnits="userSpaceOnUse">
<stop stop-color="#6C8FFF"/>
<stop offset="1" stop-color="#2F61FF"/>
</linearGradient>
<linearGradient id="paint2_linear_265_4801" x1="17.6875" y1="10.3999" x2="17.6875" y2="24.3999" gradientUnits="userSpaceOnUse">
<stop stop-color="#6C8FFF"/>
<stop offset="1" stop-color="#2F61FF"/>
</linearGradient>
<linearGradient id="paint3_linear_265_4801" x1="17.6875" y1="11.7151" x2="17.6875" y2="23.5276" gradientUnits="userSpaceOnUse">
<stop stop-color="#B5C6FF"/>
<stop offset="1" stop-color="#7A9AFF"/>
</linearGradient>
<linearGradient id="paint4_linear_265_4801" x1="17.6875" y1="11.7151" x2="17.6875" y2="23.5276" gradientUnits="userSpaceOnUse">
<stop stop-color="#B5C6FF"/>
<stop offset="1" stop-color="#7A9AFF"/>
</linearGradient>
<linearGradient id="paint5_linear_265_4801" x1="17.6875" y1="15.8708" x2="17.6875" y2="21.3374" gradientUnits="userSpaceOnUse">
<stop stop-color="#B5C6FF"/>
<stop offset="1" stop-color="#7A9AFF"/>
</linearGradient>
<clipPath id="clip0_265_4801">
<rect width="24" height="24" fill="white" transform="translate(0 0.528442)"/>
</clipPath>
</defs>
</svg>
