<svg width="24" height="24" viewBox="0 0 24 24" fill="none" xmlns="http://www.w3.org/2000/svg">
<path fill-rule="evenodd" clip-rule="evenodd" d="M12 18.75C9.88077 18.75 8.16307 16.977 8.16307 14.7892C8.16307 12.6015 10.5339 10.887 11.9746 9.37875C13.4723 10.9253 15.8369 12.6015 15.8369 14.7892C15.8369 16.977 14.1192 18.75 12 18.75ZM12 7.5C9.97846 9.47175 6.61538 12.2092 6.61538 15.0705C6.61538 17.931 9.02615 20.25 12 20.25C14.9738 20.25 17.3846 17.931 17.3846 15.0705C17.3846 12.2092 14.1023 9.52275 12 7.5ZM12 22.5C7.32692 22.5 3.53846 18.8168 3.53846 14.2733C3.53846 9.7305 8.82385 5.382 12 2.25C15.3046 5.46225 20.4615 9.7305 20.4615 14.2733C20.4615 18.8168 16.6731 22.5 12 22.5ZM12 0C8.24615 3.71175 2 8.865 2 14.25C2 19.635 6.47692 24 12 24C17.5231 24 22 19.635 22 14.25C22 8.865 15.9054 3.80775 12 0Z" fill="url(#paint0_linear_314_3726)"/>
<path fill-rule="evenodd" clip-rule="evenodd" d="M12 7.50452C9.9785 9.47627 6.61543 12.2138 6.61543 15.075C6.61543 17.9355 9.0262 20.2545 12 20.2545C14.9739 20.2545 17.3847 17.9355 17.3847 15.075C17.3847 12.2138 14.1024 9.52727 12 7.50452ZM12 22.5045C7.32697 22.5045 3.53851 18.8213 3.53851 14.2778C3.53851 9.73502 8.82389 5.38652 12 2.25452C15.3047 5.46677 20.4616 9.73502 20.4616 14.2778C20.4616 18.8213 16.6731 22.5045 12 22.5045Z" fill="url(#paint1_linear_314_3726)"/>
<path fill-rule="evenodd" clip-rule="evenodd" d="M12 22.5045C7.32697 22.5045 3.53851 18.8213 3.53851 14.2778C3.53851 9.73502 8.82389 5.38652 12 2.25452C15.3047 5.46677 20.4616 9.73502 20.4616 14.2778C20.4616 18.8213 16.6731 22.5045 12 22.5045ZM6.61543 15.075C6.61543 12.2138 9.9785 9.47627 12 7.50452C14.1024 9.52727 17.3847 12.2138 17.3847 15.075C17.3847 17.9355 14.9739 20.2545 12 20.2545C9.0262 20.2545 6.61543 17.9355 6.61543 15.075Z" fill="url(#paint2_linear_314_3726)"/>
<path fill-rule="evenodd" clip-rule="evenodd" d="M12.0002 18.75C9.88093 18.75 8.16323 16.977 8.16323 14.7893C8.16323 12.6015 10.534 10.887 11.9748 9.37878C13.4725 10.9253 15.8371 12.6015 15.8371 14.7893C15.8371 16.977 14.1194 18.75 12.0002 18.75Z" fill="url(#paint3_linear_314_3726)"/>
<defs>
<linearGradient id="paint0_linear_314_3726" x1="12" y1="0" x2="12" y2="24" gradientUnits="userSpaceOnUse">
<stop stop-color="#6C8FFF"/>
<stop offset="1" stop-color="#2F61FF"/>
</linearGradient>
<linearGradient id="paint1_linear_314_3726" x1="12" y1="2.25452" x2="12" y2="22.5045" gradientUnits="userSpaceOnUse">
<stop stop-color="#B5C6FF"/>
<stop offset="1" stop-color="#7A9AFF"/>
</linearGradient>
<linearGradient id="paint2_linear_314_3726" x1="12" y1="2.25452" x2="12" y2="22.5045" gradientUnits="userSpaceOnUse">
<stop stop-color="#B5C6FF"/>
<stop offset="1" stop-color="#7A9AFF"/>
</linearGradient>
<linearGradient id="paint3_linear_314_3726" x1="12.0002" y1="9.37878" x2="12.0002" y2="18.75" gradientUnits="userSpaceOnUse">
<stop stop-color="#B5C6FF"/>
<stop offset="1" stop-color="#7A9AFF"/>
</linearGradient>
</defs>
</svg>
