<svg width="24" height="24" viewBox="0 0 24 24" fill="none" xmlns="http://www.w3.org/2000/svg">
<g clip-path="url(#clip0_245_1594)">
<path d="M14.6393 9.89929C13.6591 9.89929 12.7376 10.3154 12.0022 11.0682C11.269 10.3077 10.3581 9.89929 9.36026 9.89929C7.618 9.89929 6.07894 11.1631 5.61761 12.9725C5.37585 13.9203 5.3253 15.429 6.45649 17.2329C7.46687 18.8441 9.20228 20.3282 11.6144 21.644C11.7344 21.7095 11.8666 21.7421 11.9991 21.7421C12.1314 21.7421 12.2639 21.7095 12.3838 21.6442C14.7966 20.3283 16.5326 18.8441 17.5434 17.233C18.6751 15.4291 18.6247 13.9205 18.383 12.9727C17.9215 11.1631 16.3821 9.89929 14.6393 9.89929ZM11.999 20.0188C6.7263 17.006 6.96795 14.1787 7.17435 13.3694C7.44962 12.2897 8.36895 11.5059 9.36015 11.5059C10.1142 11.5059 10.8074 11.9648 11.3118 12.798C11.4573 13.0384 11.7179 13.1852 11.9989 13.1853C12.2799 13.1853 12.5406 13.0386 12.686 12.7983C13.1911 11.9649 13.8846 11.5059 14.6392 11.5059C15.631 11.5059 16.5507 12.2897 16.826 13.3694C17.0324 14.1786 17.2736 17.0057 11.999 20.0188Z" fill="url(#paint0_linear_245_1594)"/>
<path d="M11.999 20.0258C6.7263 17.013 6.96795 14.1857 7.17435 13.3764C7.44962 12.2967 8.36895 11.5129 9.36015 11.5129C10.1142 11.5129 10.8074 11.9718 11.3118 12.805C11.4573 13.0454 11.7179 13.1922 11.9989 13.1923C12.2799 13.1923 12.5406 13.0456 12.686 12.8053C13.1911 11.9719 13.8846 11.5129 14.6392 11.5129C15.631 11.5129 16.5507 12.2967 16.826 13.3764C17.0324 14.1856 17.2736 17.0127 11.999 20.0258Z" fill="url(#paint1_linear_245_1594)"/>
<path d="M21.1007 7.00708C19.5021 7.00708 18.2017 8.30773 18.2017 9.90635C18.2017 11.5049 19.5023 12.8053 21.1007 12.8053C22.6995 12.8053 24 11.5048 24 9.90635C24 8.30773 22.6995 7.00708 21.1007 7.00708ZM21.1007 11.1987C20.3882 11.1987 19.8084 10.6189 19.8084 9.90645C19.8084 9.19374 20.3882 8.61384 21.1007 8.61384C21.8134 8.61384 22.3933 9.19374 22.3933 9.90645C22.3933 10.6191 21.8134 11.1987 21.1007 11.1987Z" fill="url(#paint2_linear_245_1594)"/>
<path d="M21.1007 11.1988C20.3882 11.1988 19.8084 10.619 19.8084 9.9065C19.8084 9.19379 20.3882 8.61389 21.1007 8.61389C21.8134 8.61389 22.3933 9.19379 22.3933 9.9065C22.3933 10.6191 21.8134 11.1988 21.1007 11.1988Z" fill="url(#paint3_linear_245_1594)"/>
<path d="M15.4662 8.52207C17.1932 8.52207 18.5983 7.11711 18.5983 5.39016C18.5983 3.663 17.1932 2.25793 15.4662 2.25793C13.7392 2.25793 12.3341 3.66312 12.3341 5.39016C12.334 7.11711 13.739 8.52207 15.4662 8.52207ZM15.4662 3.86458C16.3073 3.86458 16.9917 4.54902 16.9917 5.39016C16.9917 6.23119 16.3073 6.91542 15.4662 6.91542C14.6249 6.91542 13.9407 6.23119 13.9407 5.39016C13.9406 4.54892 14.6249 3.86458 15.4662 3.86458Z" fill="url(#paint4_linear_245_1594)"/>
<path d="M15.4662 3.86462C16.3073 3.86462 16.9917 4.54906 16.9917 5.3902C16.9917 6.23123 16.3073 6.91546 15.4662 6.91546C14.6249 6.91546 13.9407 6.23123 13.9407 5.3902C13.9406 4.54896 14.6249 3.86462 15.4662 3.86462Z" fill="url(#paint5_linear_245_1594)"/>
<path d="M8.53435 8.52207C10.2614 8.52207 11.6665 7.11711 11.6665 5.39016C11.6665 3.663 10.2614 2.25793 8.53435 2.25793C6.80719 2.25793 5.40201 3.66312 5.40201 5.39016C5.40201 7.11711 6.80719 8.52207 8.53435 8.52207ZM8.53435 3.86458C9.37558 3.86458 10.0598 4.54902 10.0598 5.39016C10.0598 6.23119 9.37547 6.91542 8.53435 6.91542C7.69309 6.91542 7.00866 6.23119 7.00866 5.39016C7.00866 4.54892 7.69298 3.86458 8.53435 3.86458Z" fill="url(#paint6_linear_245_1594)"/>
<path d="M8.53435 3.86462C9.37558 3.86462 10.0598 4.54906 10.0598 5.3902C10.0598 6.23123 9.37547 6.91546 8.53435 6.91546C7.69309 6.91546 7.00866 6.23123 7.00866 5.3902C7.00866 4.54896 7.69298 3.86462 8.53435 3.86462Z" fill="url(#paint7_linear_245_1594)"/>
<path d="M2.89905 7.00708C1.30053 7.00708 0 8.30773 0 9.90645C0 11.505 1.30053 12.8054 2.89905 12.8054C4.49777 12.8054 5.79831 11.5049 5.79831 9.90645C5.79842 8.30773 4.49777 7.00708 2.89905 7.00708ZM2.89905 11.1987C2.18644 11.1987 1.60666 10.6191 1.60666 9.90645C1.60666 9.19374 2.18644 8.61384 2.89905 8.61384C3.61176 8.61384 4.19166 9.19374 4.19166 9.90645C4.19177 10.6191 3.61187 11.1987 2.89905 11.1987Z" fill="url(#paint8_linear_245_1594)"/>
<path d="M2.89905 11.1918C2.18644 11.1918 1.60666 10.6122 1.60666 9.89954C1.60666 9.18683 2.18644 8.60693 2.89905 8.60693C3.61176 8.60693 4.19166 9.18683 4.19166 9.89954C4.19177 10.6122 3.61187 11.1918 2.89905 11.1918Z" fill="url(#paint9_linear_245_1594)"/>
</g>
<defs>
<linearGradient id="paint0_linear_245_1594" x1="12.0002" y1="9.89929" x2="12.0002" y2="21.7421" gradientUnits="userSpaceOnUse">
<stop stop-color="#FD8181"/>
<stop offset="1" stop-color="#CF5757"/>
</linearGradient>
<linearGradient id="paint1_linear_245_1594" x1="12.0001" y1="11.5129" x2="12.0001" y2="20.0258" gradientUnits="userSpaceOnUse">
<stop stop-color="#F3E0FA"/>
<stop offset="1" stop-color="#DBAEEB"/>
</linearGradient>
<linearGradient id="paint2_linear_245_1594" x1="21.1008" y1="7.00708" x2="21.1008" y2="12.8053" gradientUnits="userSpaceOnUse">
<stop stop-color="#BEBEBE"/>
<stop offset="1" stop-color="#858585"/>
</linearGradient>
<linearGradient id="paint3_linear_245_1594" x1="21.1009" y1="8.61389" x2="21.1009" y2="11.1988" gradientUnits="userSpaceOnUse">
<stop stop-color="#F3E0FA"/>
<stop offset="1" stop-color="#DBAEEB"/>
</linearGradient>
<linearGradient id="paint4_linear_245_1594" x1="15.4662" y1="2.25793" x2="15.4662" y2="8.52207" gradientUnits="userSpaceOnUse">
<stop stop-color="#DB8C44"/>
<stop offset="1" stop-color="#B86D29"/>
</linearGradient>
<linearGradient id="paint5_linear_245_1594" x1="15.4662" y1="3.86462" x2="15.4662" y2="6.91546" gradientUnits="userSpaceOnUse">
<stop stop-color="#F3E0FA"/>
<stop offset="1" stop-color="#DBAEEB"/>
</linearGradient>
<linearGradient id="paint6_linear_245_1594" x1="8.53423" y1="2.25793" x2="8.53423" y2="8.52207" gradientUnits="userSpaceOnUse">
<stop stop-color="#D3D1D1"/>
<stop offset="1" stop-color="#C2BFBF"/>
</linearGradient>
<linearGradient id="paint7_linear_245_1594" x1="8.53423" y1="3.86462" x2="8.53423" y2="6.91546" gradientUnits="userSpaceOnUse">
<stop stop-color="#F3E0FA"/>
<stop offset="1" stop-color="#DBAEEB"/>
</linearGradient>
<linearGradient id="paint8_linear_245_1594" x1="2.89915" y1="7.00708" x2="2.89915" y2="12.8054" gradientUnits="userSpaceOnUse">
<stop stop-color="#A35813"/>
<stop offset="1" stop-color="#773B04"/>
</linearGradient>
<linearGradient id="paint9_linear_245_1594" x1="2.89916" y1="8.60693" x2="2.89916" y2="11.1918" gradientUnits="userSpaceOnUse">
<stop stop-color="#F3E0FA"/>
<stop offset="1" stop-color="#DBAEEB"/>
</linearGradient>
<clipPath id="clip0_245_1594">
<rect width="24" height="24" fill="white"/>
</clipPath>
</defs>
</svg>
