<svg width="24" height="24" viewBox="0 0 24 24" fill="none" xmlns="http://www.w3.org/2000/svg">
<path d="M23.8207 11.4149C23.5629 11.1205 23.1126 11.0934 22.818 11.3533L20.724 13.2071L14.809 18.441C14.4362 18.7698 13.9616 18.9463 13.4738 18.9463C13.3318 18.9463 13.1896 18.9324 13.0469 18.9024L9.666 18.1531L5.58347 17.2522L2.72044 16.6187L2.31103 16.5271C2.18137 16.4832 2.06638 16.4261 1.96532 16.3506C1.80271 16.2327 1.67381 16.0796 1.58522 15.9038C1.49437 15.7273 1.44679 15.531 1.44679 15.3311C1.44679 15.2088 1.46732 15.0806 1.50393 14.9553C1.54861 14.8198 1.61236 14.6975 1.69068 14.5891C1.80567 14.4265 1.96166 14.2976 2.13744 14.2097C2.31103 14.1181 2.50659 14.0712 2.70726 14.0712C2.74097 14.0712 2.77466 14.0742 2.80832 14.0742L5.75925 14.7114L12.603 16.1916C13.4504 16.3777 14.3345 16.1477 14.9848 15.572L19.1927 11.8652L23.4891 8.08081C23.8749 7.73877 24.0375 7.20997 23.9057 6.71262C23.7769 6.21093 23.3769 5.82787 22.8724 5.71944L22.3369 5.60446L18.4338 4.76071L13.4907 3.69369C12.644 3.50765 11.7599 3.73765 11.1088 4.31403L4.50604 10.1141L2.52047 11.8587L0.792652 13.3763C0.72159 13.4576 0.660793 13.5389 0.606606 13.6268C0.575856 13.6641 0.548762 13.6978 0.521621 13.7389C0.352449 13.9696 0.216934 14.2332 0.125387 14.5218C0.0404029 14.7891 0.000137329 15.0638 0.000137329 15.3312C0.000137329 15.9105 0.186184 16.4628 0.515012 16.9168C0.680528 17.1476 0.880496 17.3504 1.11487 17.5196C1.34484 17.6895 1.60926 17.8251 1.89713 17.9129L1.92787 17.9232L4.93959 18.5839L7.79235 19.2071L12.7457 20.2912C12.986 20.3454 13.2299 20.3696 13.4738 20.3696C14.3036 20.3696 15.1136 20.0715 15.7508 19.5118L15.92 19.3631L21.8014 14.1556L23.7598 12.4212C24.0544 12.1597 24.0814 11.71 23.8207 11.4149Z" fill="url(#paint0_linear_245_1804)"/>
<path d="M20.724 13.2071L22.818 11.3533C23.6115 10.0855 23.7072 9.3664 23.4891 8.08081L19.1927 11.8652L14.9848 15.572C14.3345 16.1477 13.4504 16.3777 12.603 16.1916L5.75925 14.7114L2.80832 14.0742C2.77466 14.0742 2.74097 14.0712 2.70726 14.0712C2.50659 14.0712 2.31103 14.1181 2.13744 14.2097C1.96166 14.2976 1.80567 14.4265 1.69068 14.5891C1.61236 14.6975 1.54861 14.8198 1.50393 14.9553C1.46732 15.0806 1.44679 15.2088 1.44679 15.3311C1.44679 15.531 1.49437 15.7273 1.58521 15.9038C1.67381 16.0796 1.80271 16.2327 1.96532 16.3506C2.06638 16.4261 2.18137 16.4832 2.31103 16.5271L2.72044 16.6187L5.58347 17.2522L9.666 18.1531L13.0469 18.9024C13.1896 18.9324 13.3318 18.9463 13.4738 18.9463C13.9616 18.9463 14.4362 18.7698 14.809 18.441L20.724 13.2071Z" fill="url(#paint1_linear_245_1804)"/>
<defs>
<linearGradient id="paint0_linear_245_1804" x1="12" y1="3.63049" x2="12" y2="20.3696" gradientUnits="userSpaceOnUse">
<stop stop-color="#AF8F27"/>
<stop offset="1" stop-color="#755B05"/>
</linearGradient>
<linearGradient id="paint1_linear_245_1804" x1="12.5186" y1="8.08081" x2="12.5186" y2="18.9463" gradientUnits="userSpaceOnUse">
<stop stop-color="#EDEDED"/>
<stop offset="1" stop-color="#CCCCCC"/>
</linearGradient>
</defs>
</svg>
