<svg width="24" height="25" viewBox="0 0 24 25" fill="none" xmlns="http://www.w3.org/2000/svg">
<g clip-path="url(#clip0_265_4815)">
<path d="M6.5139 21.6466C6.56664 21.6607 6.62132 21.6607 6.67601 21.6466H11.0393V23.5394H6.4514V21.6466H6.5139Z" fill="url(#paint0_linear_265_4815)"/>
<path d="M17.4866 21.6466C17.4338 21.6607 17.3791 21.6607 17.3244 21.6466H12.9612V23.5394H17.5491V21.6466H17.4866Z" fill="url(#paint1_linear_265_4815)"/>
<path fill-rule="evenodd" clip-rule="evenodd" d="M12.9709 20.6884H17.2502C17.7188 20.6884 17.9922 20.6093 18.2483 20.8528C18.3088 20.9373 18.3459 21.0477 18.3459 21.1675V24.0183C18.3459 24.2837 18.1682 24.4974 17.9475 24.4974H12.5627C12.342 24.4974 12.1643 24.2837 12.1643 24.0183V21.1416C12.1643 21.1252 12.1643 21.1064 12.1662 21.09C12.1688 20.9551 12.1721 20.822 12.1764 20.6913L12.9709 20.6884ZM17.3244 21.6465C17.3791 21.6606 17.4338 21.6606 17.4866 21.6465H17.5491V23.5393H12.9612V21.6465H17.3244Z" fill="url(#paint2_linear_265_4815)"/>
<path fill-rule="evenodd" clip-rule="evenodd" d="M11.0295 20.6884H6.74828C6.32031 20.6884 6.05296 20.625 5.75218 20.8528C5.69164 20.9373 5.65453 21.0477 5.65453 21.1675V24.0183C5.65453 24.2837 5.83421 24.4974 6.05296 24.4974H11.4397C11.6604 24.4974 11.8381 24.2837 11.8381 24.0183V21.1416C11.8381 20.9952 11.8345 20.8433 11.8288 20.6913L11.0295 20.6884ZM6.67601 21.6465C6.62132 21.6606 6.56664 21.6606 6.5139 21.6465H6.4514V23.5393H11.0393V21.6465H6.67601Z" fill="url(#paint3_linear_265_4815)"/>
<path d="M12.9709 20.6884H17.2502C17.5877 20.285 17.9571 19.8657 18.3327 19.4395L18.3537 19.4156L18.3547 19.4146C19.1571 18.5014 19.9947 17.5482 20.8557 16.3557C21.8401 14.9914 21.9455 14.5193 22.2444 13.1831C22.301 12.9319 22.3635 12.6501 22.4455 12.3002L22.9573 10.1374L22.9631 10.1139C23.2366 9.15105 23.258 8.51465 23.1448 8.14831C23.1096 8.03559 23.0647 7.96044 23.0119 7.92052C22.9709 7.88764 22.9162 7.8759 22.8596 7.88295C22.7268 7.89939 22.5764 8.00036 22.4397 8.18119L20.9201 12.5327C20.9065 12.5726 20.8869 12.6101 20.8655 12.643C20.7756 12.8379 20.6545 13.0282 20.4983 13.209L17.801 16.8207C17.6545 17.018 17.4026 17.0344 17.2405 16.8583C17.0764 16.6822 17.0627 16.3792 17.2092 16.1843L19.9065 12.5702C19.9182 12.5538 19.9299 12.5374 19.9436 12.5233C20.2229 12.2039 20.3108 11.8587 20.2619 11.6074C20.2463 11.5299 20.219 11.4642 20.1799 11.4195C20.1428 11.3796 20.094 11.3514 20.0334 11.3444C19.7932 11.3139 19.4397 11.5276 19.008 12.1405C18.9963 12.1569 18.9826 12.1734 18.969 12.1898L17.9241 13.2982L17.9182 13.3053C16.7873 14.5921 16.301 14.8974 15.4143 15.454C15.2287 15.5714 15.0256 15.6982 14.7737 15.8626C14.6741 15.9283 14.5764 16.0082 14.4807 16.0951C14.3791 16.189 14.2815 16.2853 14.1897 16.3792C13.7209 16.8536 13.4748 17.2387 13.3342 17.6638C13.1877 18.1053 13.135 18.643 13.0627 19.3804C13.0334 19.6786 13.0119 19.9722 12.9944 20.2657C12.9828 20.4065 12.977 20.5451 12.9712 20.6813L12.9709 20.6884Z" fill="url(#paint4_linear_265_4815)"/>
<path d="M11.0295 20.6884H6.74827C6.41082 20.285 6.04136 19.8657 5.66578 19.4395L5.64476 19.4156L5.64382 19.4146C4.84137 18.5014 4.0038 17.5482 3.1428 16.3557C2.15843 14.9914 2.05296 14.5193 1.75413 13.1831C1.69749 12.9319 1.63499 12.6501 1.55296 12.3002L1.04124 10.1374L1.03538 10.1139C0.761944 9.15105 0.74046 8.51465 0.853741 8.14831C0.888897 8.03559 0.933819 7.96044 0.986554 7.92052C1.02757 7.88764 1.08226 7.8759 1.1389 7.88295C1.27562 7.89704 1.42601 8.00036 1.56273 8.17884L3.08226 12.5303C3.09593 12.5702 3.11546 12.6078 3.13694 12.6407C3.22679 12.8356 3.34788 13.0258 3.50413 13.2066L6.19944 16.8207C6.34593 17.018 6.59788 17.0344 6.75999 16.8583C6.92405 16.6822 6.93773 16.3792 6.79124 16.1843L4.09398 12.5679C4.08226 12.5514 4.07054 12.535 4.05687 12.5209C3.77757 12.2015 3.68968 11.8563 3.73851 11.6051C3.75413 11.5276 3.78148 11.4618 3.82054 11.4172C3.85765 11.3773 3.90648 11.3491 3.96702 11.342C4.20726 11.3115 4.56273 11.5252 4.99241 12.1381C5.00413 12.1546 5.0178 12.171 5.03148 12.1874L6.0764 13.2959L6.08226 13.3029C7.21312 14.5898 7.69944 14.8951 8.58616 15.4516C8.77171 15.5691 8.97484 15.6959 9.22679 15.8602C9.3264 15.926 9.42406 16.0058 9.51976 16.0927C9.62132 16.1867 9.71898 16.2829 9.81077 16.3769C10.2795 16.8512 10.5256 17.2364 10.6662 17.6614C10.8127 18.1029 10.8655 18.6407 10.9377 19.3781C10.967 19.6763 10.9885 19.9698 11.0061 20.2634C11.0176 20.4065 11.0235 20.545 11.0292 20.6813L11.0295 20.6884Z" fill="url(#paint5_linear_265_4815)"/>
<path d="M18.3327 19.4395C17.9571 19.8657 17.5877 20.285 17.2502 20.6884C17.7188 20.6884 17.9922 20.6094 18.2483 20.8528L18.2765 20.8205C18.4855 20.5803 18.6911 20.3442 18.8967 20.1037C19.7209 19.1667 20.5784 18.1898 21.4553 16.9757C22.5621 15.4455 22.6798 14.9169 23.0113 13.4277L23.0119 13.425C23.0725 13.162 23.1369 12.8638 23.2112 12.5538L23.719 10.4051C24.0549 9.21916 24.0588 8.36202 23.8869 7.81016C23.7893 7.49314 23.633 7.263 23.4436 7.11505C23.2444 6.96006 23.0159 6.89901 22.7795 6.92719C22.4338 6.96946 22.0725 7.20899 21.7873 7.61995C21.7619 7.65752 21.7424 7.69744 21.7268 7.73971H21.7248L20.6955 10.6892C20.5393 10.5248 20.344 10.4168 20.1155 10.3886H20.1135C19.6467 10.3276 19.0373 10.6188 18.4143 11.4947L17.3948 12.5773C17.3869 12.5843 17.3772 12.5937 17.3694 12.6031C16.3149 13.803 15.8654 14.0861 15.0483 14.6007L15.0432 14.6039C14.844 14.7307 14.6252 14.8693 14.3909 15.0219C14.2463 15.1182 14.1174 15.2215 13.9983 15.3295C13.885 15.4305 13.7776 15.5385 13.6721 15.6466C13.0959 16.2313 12.7854 16.7315 12.592 17.3115C12.4045 17.8775 12.3459 18.4669 12.2678 19.2724C12.2385 19.58 12.2151 19.89 12.1975 20.2023C12.1887 20.3606 12.1818 20.524 12.1764 20.6913L12.9709 20.6884L12.9712 20.6813C12.977 20.5451 12.9828 20.4065 12.9944 20.2657C13.0119 19.9722 13.0334 19.6787 13.0627 19.3804C13.135 18.643 13.1877 18.1053 13.3342 17.6638C13.4748 17.2387 13.7209 16.8536 14.1897 16.3792C14.2815 16.2853 14.3791 16.189 14.4807 16.0951C14.5764 16.0082 14.6741 15.9284 14.7737 15.8626C15.0256 15.6982 15.2287 15.5714 15.4143 15.454C16.301 14.8974 16.7873 14.5922 17.9182 13.3053L17.9241 13.2982L18.969 12.1898C18.9826 12.1734 18.9963 12.1569 19.008 12.1405C19.4397 11.5276 19.7932 11.3139 20.0334 11.3444C20.094 11.3515 20.1428 11.3796 20.1799 11.4196C20.219 11.4642 20.2463 11.5299 20.2619 11.6074C20.3108 11.8587 20.2229 12.2039 19.9436 12.5233C19.9299 12.5374 19.9182 12.5538 19.9065 12.5702L17.2092 16.1843C17.0627 16.3792 17.0764 16.6822 17.2405 16.8583C17.4026 17.0344 17.6545 17.018 17.801 16.8207L20.4983 13.209C20.6545 13.0282 20.7756 12.838 20.8655 12.643C20.8869 12.6102 20.9065 12.5726 20.9201 12.5327L22.4397 8.1812C22.5764 8.00038 22.7268 7.8994 22.8596 7.88296C22.9162 7.87592 22.9709 7.88766 23.0119 7.92053C23.0647 7.96046 23.1096 8.0356 23.1448 8.14832C23.258 8.51466 23.2366 9.15106 22.9631 10.1139L22.9573 10.1374L22.4455 12.3002C22.3635 12.6501 22.301 12.9319 22.2444 13.1832C22.207 13.3501 22.1726 13.5042 22.1392 13.6476C21.9054 14.6514 21.7169 15.1621 20.8557 16.3558C19.9947 17.5482 19.1571 18.5014 18.3547 19.4146L18.3537 19.4156L18.3327 19.4395Z" fill="url(#paint6_linear_265_4815)"/>
<path d="M3.14281 16.3558C2.15843 14.9914 2.05296 14.5194 1.75413 13.1832C1.69749 12.9319 1.63499 12.6501 1.55296 12.3002L1.04124 10.1374L1.03538 10.1139C0.761946 9.15106 0.740461 8.51466 0.853743 8.14832C0.888899 8.0356 0.933821 7.96046 0.986555 7.92053C1.02757 7.88766 1.08226 7.87592 1.1389 7.88296C1.27562 7.89705 1.42601 8.00038 1.56273 8.17885L3.08226 12.5303C3.09593 12.5702 3.11546 12.6078 3.13695 12.6407C3.22679 12.8356 3.34788 13.0258 3.50413 13.2066L6.19945 16.8207C6.34593 17.018 6.59788 17.0344 6.75999 16.8583C6.92406 16.6822 6.93773 16.3792 6.79124 16.1843L4.09398 12.5679C4.08226 12.5515 4.07054 12.535 4.05687 12.5209C3.77757 12.2016 3.68968 11.8563 3.73851 11.6051C3.75413 11.5276 3.78148 11.4618 3.82054 11.4172C3.85765 11.3773 3.90648 11.3491 3.96702 11.3421C4.20726 11.3115 4.56273 11.5252 4.99241 12.1381C5.00413 12.1546 5.01781 12.171 5.03148 12.1875L6.0764 13.2959L6.08226 13.3029C7.21312 14.5898 7.69945 14.8951 8.58616 15.4516C8.77171 15.5691 8.97484 15.6959 9.22679 15.8603C9.3264 15.926 9.42406 16.0059 9.51976 16.0927C9.62132 16.1867 9.71898 16.283 9.81077 16.3769C10.2795 16.8513 10.5256 17.2364 10.6662 17.6614C10.8127 18.1029 10.8655 18.6407 10.9377 19.3781C10.967 19.6763 10.9885 19.9699 11.0061 20.2634C11.0176 20.4065 11.0235 20.545 11.0292 20.6813L11.0295 20.6884L11.8288 20.6913C11.8227 20.5264 11.8141 20.3612 11.8049 20.2023C11.7873 19.89 11.7639 19.58 11.7346 19.2724C11.6565 18.4669 11.5979 17.8775 11.4104 17.3115C11.217 16.7315 10.9065 16.2313 10.3303 15.6466C10.2248 15.5385 10.1174 15.4305 10.0041 15.3295C9.88499 15.2215 9.75609 15.1182 9.61156 15.0219C9.37718 14.8693 9.15843 14.7307 8.95921 14.6039L8.95411 14.6007C8.13703 14.0861 7.68749 13.803 6.63304 12.6031C6.62523 12.5937 6.61546 12.5843 6.60765 12.5773L5.58812 11.4947C4.96507 10.6188 4.3557 10.3276 3.8889 10.3886H3.88695C3.65843 10.4168 3.46312 10.5248 3.30687 10.6892L2.27757 7.73971H2.27562C2.25999 7.69744 2.24046 7.65752 2.21507 7.61995C1.92991 7.20899 1.56859 6.96946 1.22288 6.92719C0.986555 6.89901 0.758039 6.96006 0.558821 7.11505C0.369368 7.263 0.213118 7.49314 0.115461 7.81016C-0.0564137 8.36202 -0.0525074 9.21916 0.28343 10.4051L0.791243 12.5538C0.865461 12.8638 0.929914 13.162 0.990461 13.425L0.99106 13.4277C1.32263 14.9169 1.44035 15.4455 2.5471 16.9757C3.42406 18.1898 4.28148 19.1667 5.1057 20.1037C5.31229 20.3475 5.52073 20.587 5.73279 20.8306L5.75218 20.8528C6.05296 20.625 6.32031 20.6884 6.74827 20.6884C6.41082 20.285 6.04136 19.8657 5.66578 19.4395L5.64476 19.4156L5.64381 19.4146C4.84136 18.5014 4.00379 17.5482 3.14281 16.3558Z" fill="url(#paint7_linear_265_4815)"/>
<path fill-rule="evenodd" clip-rule="evenodd" d="M11.1615 4.26038C11.9727 3.40439 12.5412 2.66591 13.791 2.52075C15.6458 2.30531 17.3822 3.77766 17.4448 5.58411C17.4198 5.55416 17.3936 5.52536 17.3662 5.49771C17.1245 5.25307 16.7968 5.11515 16.4548 5.11406H15.1001C14.7584 5.11586 14.4311 5.25354 14.1889 5.49735C13.9467 5.74116 13.8091 6.07152 13.8058 6.41706V7.22351H13.0083C12.666 7.22452 12.3382 7.36293 12.0968 7.6083C11.9557 7.7519 11.8485 7.92601 11.7835 8.11752L11.2332 6.68549L10.8914 5.76959L10.5496 6.68434L9.653 8.98849L8.42367 6.58872L7.5179 8.45277H6.15072C5.50244 7.56568 5.04443 6.60946 5.01139 5.57259C4.9362 3.70277 6.39111 2.50923 8.06364 2.52996C9.55729 2.5507 10.1885 3.30646 11.1615 4.26038ZM13.4583 11.2074C13.2669 11.3929 13.0869 11.5691 12.9251 11.7316L11.1626 13.5L9.70654 12.0818C8.83382 11.2327 7.6888 10.2754 6.7443 9.20162H7.97363L8.44076 8.2431L9.743 10.7823L10.8823 7.84218L11.722 10.0104C11.7429 10.2593 11.8342 10.4969 11.9852 10.6947V10.7028C12.0188 10.746 12.055 10.7872 12.0934 10.826C12.335 11.0711 12.6627 11.2095 13.0049 11.2108L13.4583 11.2074Z" fill="url(#paint8_linear_265_4815)"/>
<path fill-rule="evenodd" clip-rule="evenodd" d="M15.1001 5.95618H16.4513C16.5722 5.95618 16.6881 6.00473 16.7736 6.09115C16.8591 6.17757 16.9071 6.29479 16.9071 6.41701V8.06793H18.5374C18.6583 8.06793 18.7742 8.11648 18.8597 8.2029C18.9452 8.28932 18.9932 8.40654 18.9932 8.52876V9.89857C18.9932 10.0208 18.9452 10.138 18.8597 10.2244C18.7742 10.3109 18.6583 10.3594 18.5374 10.3594H16.9105V11.9723C16.9105 12.0945 16.8625 12.2117 16.777 12.2982C16.6915 12.3846 16.5756 12.4331 16.4548 12.4331H15.1001C14.9792 12.4331 14.8633 12.3846 14.7778 12.2982C14.6924 12.2117 14.6444 12.0945 14.6444 11.9723V10.3594H13.0117C12.8909 10.3594 12.7749 10.3109 12.6895 10.2244C12.604 10.138 12.556 10.0208 12.556 9.89857V8.53106C12.556 8.40884 12.604 8.29163 12.6895 8.20521C12.7749 8.11878 12.8909 8.07023 13.0117 8.07023H14.641V6.41701C14.641 6.29479 14.689 6.17757 14.7744 6.09115C14.8599 6.00473 14.9758 5.95618 15.0967 5.95618H15.1001Z" fill="url(#paint9_linear_265_4815)"/>
</g>
<defs>
<linearGradient id="paint0_linear_265_4815" x1="12.0002" y1="21.6466" x2="12.0002" y2="23.5394" gradientUnits="userSpaceOnUse">
<stop stop-color="#E8E018"/>
<stop offset="1" stop-color="#CAC311"/>
</linearGradient>
<linearGradient id="paint1_linear_265_4815" x1="12.0002" y1="21.6466" x2="12.0002" y2="23.5394" gradientUnits="userSpaceOnUse">
<stop stop-color="#E8E018"/>
<stop offset="1" stop-color="#CAC311"/>
</linearGradient>
<linearGradient id="paint2_linear_265_4815" x1="12.0002" y1="20.6761" x2="12.0002" y2="24.4974" gradientUnits="userSpaceOnUse">
<stop stop-color="#B4A948"/>
<stop offset="1" stop-color="#968915"/>
</linearGradient>
<linearGradient id="paint3_linear_265_4815" x1="12.0002" y1="20.6761" x2="12.0002" y2="24.4974" gradientUnits="userSpaceOnUse">
<stop stop-color="#B4A948"/>
<stop offset="1" stop-color="#968915"/>
</linearGradient>
<linearGradient id="paint4_linear_265_4815" x1="11.9992" y1="7.88098" x2="11.9992" y2="20.6884" gradientUnits="userSpaceOnUse">
<stop stop-color="#F3E0FA"/>
<stop offset="1" stop-color="#DBAEEB"/>
</linearGradient>
<linearGradient id="paint5_linear_265_4815" x1="11.9992" y1="7.88098" x2="11.9992" y2="20.6884" gradientUnits="userSpaceOnUse">
<stop stop-color="#F3E0FA"/>
<stop offset="1" stop-color="#DBAEEB"/>
</linearGradient>
<linearGradient id="paint6_linear_265_4815" x1="12.0012" y1="6.92053" x2="12.0012" y2="20.8528" gradientUnits="userSpaceOnUse">
<stop stop-color="#DBAEEB"/>
<stop offset="1" stop-color="#DB8C44"/>
</linearGradient>
<linearGradient id="paint7_linear_265_4815" x1="12.0012" y1="6.92053" x2="12.0012" y2="20.8528" gradientUnits="userSpaceOnUse">
<stop stop-color="#DBAEEB"/>
<stop offset="1" stop-color="#DB8C44"/>
</linearGradient>
<linearGradient id="paint8_linear_265_4815" x1="11.2267" y1="2.49976" x2="11.2267" y2="13.5" gradientUnits="userSpaceOnUse">
<stop stop-color="#E65D5D"/>
<stop offset="1" stop-color="#AB1A1A"/>
</linearGradient>
<linearGradient id="paint9_linear_265_4815" x1="15.7746" y1="5.95618" x2="15.7746" y2="12.4331" gradientUnits="userSpaceOnUse">
<stop stop-color="#F08E89"/>
<stop offset="1" stop-color="#D8453E"/>
</linearGradient>
<clipPath id="clip0_265_4815">
<rect width="24" height="24" fill="white" transform="translate(9.15527e-05 0.5)"/>
</clipPath>
</defs>
</svg>
