<svg width="24" height="24" viewBox="0 0 24 24" fill="none" xmlns="http://www.w3.org/2000/svg">
<g clip-path="url(#clip0_245_3282)">
<path fill-rule="evenodd" clip-rule="evenodd" d="M1.44 8.16003C0.646875 8.16003 0 8.80691 0 9.60003V24H2.88V21.6H21.12V24H24V18.24H2.88V9.60003C2.88 8.80691 2.23312 8.16003 1.44 8.16003Z" fill="url(#paint0_linear_245_3282)"/>
<path fill-rule="evenodd" clip-rule="evenodd" d="M9.12 12.48C8.85563 12.48 8.64 12.6937 8.64 12.96V17.28H24V14.88C24 13.5562 22.9238 12.48 21.6 12.48H9.12Z" fill="url(#paint1_linear_245_3282)"/>
<path fill-rule="evenodd" clip-rule="evenodd" d="M5.76 12.48C4.43625 12.48 3.36 13.5562 3.36 14.88C3.36 16.2037 4.43625 17.28 5.76 17.28C7.08375 17.28 8.16 16.2037 8.16 14.88C8.16 13.5562 7.08375 12.48 5.76 12.48Z" fill="url(#paint2_linear_245_3282)"/>
<path d="M7.68 4.80005V5.76005H10.32L7.68 8.64005V9.60005H12V8.64005H8.88L11.52 5.76005V4.80005H7.68Z" fill="url(#paint3_linear_245_3282)"/>
<path d="M13.44 0V0.96H15.36L13.44 2.88V3.84H16.8V2.88H14.64L16.56 0.96V0H13.44Z" fill="url(#paint4_linear_245_3282)"/>
</g>
<defs>
<linearGradient id="paint0_linear_245_3282" x1="12" y1="8.16003" x2="12" y2="24" gradientUnits="userSpaceOnUse">
<stop stop-color="#955011"/>
<stop offset="1" stop-color="#4F2703"/>
</linearGradient>
<linearGradient id="paint1_linear_245_3282" x1="16.32" y1="12.48" x2="16.32" y2="17.28" gradientUnits="userSpaceOnUse">
<stop stop-color="#6A9AF5"/>
<stop offset="1" stop-color="#4376D9"/>
</linearGradient>
<linearGradient id="paint2_linear_245_3282" x1="5.76" y1="12.48" x2="5.76" y2="17.28" gradientUnits="userSpaceOnUse">
<stop stop-color="#6A9AF5"/>
<stop offset="1" stop-color="#4376D9"/>
</linearGradient>
<linearGradient id="paint3_linear_245_3282" x1="9.84" y1="4.80005" x2="9.84" y2="9.60005" gradientUnits="userSpaceOnUse">
<stop stop-color="#BEBEBE"/>
<stop offset="1" stop-color="#858585"/>
</linearGradient>
<linearGradient id="paint4_linear_245_3282" x1="15.12" y1="0" x2="15.12" y2="3.84" gradientUnits="userSpaceOnUse">
<stop stop-color="#BEBEBE"/>
<stop offset="1" stop-color="#858585"/>
</linearGradient>
<clipPath id="clip0_245_3282">
<rect width="24" height="24" fill="white"/>
</clipPath>
</defs>
</svg>
