<svg width="24" height="25" viewBox="0 0 24 25" fill="none" xmlns="http://www.w3.org/2000/svg">
<g clip-path="url(#clip0_265_4800)">
<path d="M12.8593 23.2957L16.5016 19.6534C16.6883 19.4667 16.6883 19.164 16.5016 18.9773C16.3149 18.7906 16.0123 18.7906 15.8255 18.9773L12.244 22.5588C12.8145 17.2495 17.2316 13.0743 22.6444 12.8845C22.4533 18.335 18.2211 22.7752 12.8593 23.2957Z" fill="url(#paint0_linear_265_4800)"/>
<path d="M17.5667 18.3903C17.6891 18.3903 17.8114 18.3435 17.9048 18.2502L18.6815 17.4735C18.8682 17.2868 18.8682 16.9841 18.6815 16.7973C18.4948 16.6107 18.1921 16.6107 18.0054 16.7973L17.2286 17.5741C17.0419 17.7608 17.0419 18.0635 17.2286 18.2502C17.322 18.3436 17.4443 18.3903 17.5667 18.3903Z" fill="url(#paint1_linear_265_4800)"/>
<path d="M11.8037 24.3036C14.9565 24.3036 17.9207 23.0758 20.1501 20.8464C22.3795 18.6169 23.6073 15.6528 23.6073 12.4999C23.6037 12.1276 23.4013 11.9252 23.029 11.9216C19.8761 11.9216 16.912 13.1494 14.6825 15.3788C12.5464 17.515 11.3305 20.3259 11.2326 23.331C5.52349 23.0321 0.956175 18.2702 0.956175 12.4999C0.956175 6.51858 5.82234 1.65242 11.8037 1.65242C13.2384 1.65242 14.6321 1.92799 15.9461 2.47148C16.1902 2.57231 16.4697 2.45642 16.5707 2.2124C16.6715 1.96838 16.5556 1.6888 16.3116 1.58787C14.8811 0.996241 13.3644 0.696289 11.8037 0.696289C8.65081 0.696289 5.68661 1.92411 3.4572 4.15348C1.22778 6.38285 0 9.34705 0 12.4999C0 15.6347 1.21582 18.5867 3.42349 20.812C5.62977 23.0359 8.56929 24.2754 11.7006 24.3023H11.7006L11.8037 24.3036ZM12.8593 23.2956L16.5016 19.6533C16.6883 19.4666 16.6883 19.1639 16.5016 18.9772C16.3149 18.7905 16.0123 18.7905 15.8255 18.9772L12.244 22.5587C12.8145 17.2494 17.2316 13.0742 22.6444 12.8844C22.4533 18.3349 18.2211 22.7751 12.8593 23.2956Z" fill="url(#paint2_linear_265_4800)"/>
<path d="M17.3945 3.20249C17.6284 3.34347 17.8595 3.49498 18.0815 3.65284C18.1655 3.7126 18.2622 3.74139 18.3581 3.74139C18.5076 3.74139 18.6549 3.67144 18.7481 3.5403C18.9011 3.32511 18.8507 3.02664 18.6356 2.87366C18.394 2.70188 18.1426 2.53708 17.8883 2.38371C17.662 2.24727 17.3684 2.32022 17.232 2.54621C17.0957 2.7723 17.1684 3.06618 17.3945 3.20249Z" fill="url(#paint3_linear_265_4800)"/>
<path d="M17.5667 18.3903C17.6891 18.3903 17.8114 18.3436 17.9048 18.2502L18.6815 17.4735C18.8682 17.2868 18.8682 16.9841 18.6815 16.7973C18.4948 16.6107 18.1921 16.6107 18.0054 16.7973L17.2286 17.5741C17.0419 17.7608 17.0419 18.0635 17.2286 18.2502C17.322 18.3436 17.4443 18.3903 17.5667 18.3903Z" fill="url(#paint4_linear_265_4800)"/>
<path d="M23.86 6.17L22.9618 5.27186L23.1677 5.06595C23.2573 4.97626 23.3077 4.85468 23.3077 4.7279C23.3077 4.60111 23.2573 4.47948 23.1677 4.38984L22.3971 3.61931C22.0041 3.22632 21.4816 3.00989 20.9258 3.00989C20.3701 3.00989 19.8476 3.22632 19.4546 3.61931L19.026 4.04786C18.633 4.4409 18.4166 4.96335 18.4166 5.51913C18.4166 6.07491 18.633 6.59741 19.026 6.9904L19.7966 7.76093C19.89 7.85425 20.0123 7.90096 20.1347 7.90096C20.257 7.90096 20.3793 7.85425 20.4727 7.76093L20.6786 7.55507L21.5768 8.45325C21.6701 8.54657 21.7925 8.59328 21.9148 8.59328C22.0372 8.59328 22.1595 8.54657 22.2529 8.45325C22.4396 8.26656 22.4396 7.96383 22.2529 7.77709L21.3547 6.87891L22.2856 5.94798L23.1838 6.84611C23.2772 6.93943 23.3995 6.98614 23.5219 6.98614C23.6442 6.98614 23.7665 6.93943 23.8599 6.84611C24.0467 6.65942 24.0467 6.35669 23.86 6.17ZM19.7021 6.31424C19.4898 6.10187 19.3727 5.81947 19.3727 5.51908C19.3727 5.2187 19.4897 4.93634 19.7021 4.72393L20.1307 4.29537C20.3431 4.083 20.6255 3.96597 20.9258 3.96597C21.2262 3.96597 21.5086 4.08296 21.721 4.29537L22.1535 4.72785L20.1347 6.74676L19.7021 6.31424Z" fill="url(#paint5_linear_265_4800)"/>
<path d="M19.7021 6.31421C19.4898 6.10185 19.3727 5.81944 19.3727 5.51906C19.3727 5.21868 19.4897 4.93632 19.7021 4.7239L20.1307 4.29534C20.3431 4.08298 20.6255 3.96594 20.9258 3.96594C21.2262 3.96594 21.5086 4.08293 21.721 4.29534L22.1535 4.72782L20.1347 6.74674L19.7021 6.31421Z" fill="url(#paint6_linear_265_4800)"/>
</g>
<defs>
<linearGradient id="paint0_linear_265_4800" x1="17.4442" y1="12.8845" x2="17.4442" y2="23.2957" gradientUnits="userSpaceOnUse">
<stop stop-color="#7BEA97"/>
<stop offset="1" stop-color="#29A649"/>
</linearGradient>
<linearGradient id="paint1_linear_265_4800" x1="17.4442" y1="12.8845" x2="17.4442" y2="23.2957" gradientUnits="userSpaceOnUse">
<stop stop-color="#7BEA97"/>
<stop offset="1" stop-color="#29A649"/>
</linearGradient>
<linearGradient id="paint2_linear_265_4800" x1="11.8036" y1="0.696289" x2="11.8036" y2="24.3036" gradientUnits="userSpaceOnUse">
<stop stop-color="#333333"/>
<stop offset="1" stop-color="#555555"/>
</linearGradient>
<linearGradient id="paint3_linear_265_4800" x1="17.9999" y1="2.31494" x2="17.9999" y2="3.74139" gradientUnits="userSpaceOnUse">
<stop stop-color="#333333"/>
<stop offset="1" stop-color="#555555"/>
</linearGradient>
<linearGradient id="paint4_linear_265_4800" x1="17.9551" y1="16.6573" x2="17.9551" y2="18.3903" gradientUnits="userSpaceOnUse">
<stop stop-color="#333333"/>
<stop offset="1" stop-color="#555555"/>
</linearGradient>
<linearGradient id="paint5_linear_265_4800" x1="21.2083" y1="3.00989" x2="21.2083" y2="8.59328" gradientUnits="userSpaceOnUse">
<stop stop-color="#333333"/>
<stop offset="1" stop-color="#555555"/>
</linearGradient>
<linearGradient id="paint6_linear_265_4800" x1="20.7631" y1="3.96594" x2="20.7631" y2="6.74674" gradientUnits="userSpaceOnUse">
<stop stop-color="#8DA9FF"/>
<stop offset="1" stop-color="#BCCCFF"/>
</linearGradient>
<clipPath id="clip0_265_4800">
<rect width="24" height="24" fill="white" transform="translate(0 0.5)"/>
</clipPath>
</defs>
</svg>
