<?xml version="1.0" encoding="utf-8"?>
<!-- Uploaded to: SVG Repo, www.svgrepo.com, Generator: SVG Repo Mixer Tools -->
<svg fill="#000000" height="800px" width="800px" version="1.1" id="_x31_" xmlns="http://www.w3.org/2000/svg" xmlns:xlink="http://www.w3.org/1999/xlink" 
	 viewBox="0 0 128 128" xml:space="preserve">
<g>
	
		<ellipse transform="matrix(2.101440e-02 -0.9998 0.9998 2.101440e-02 52.3718 101.6032)" cx="78.1" cy="24.1" rx="17.3" ry="17.3"/>
	<path d="M119.4,71.8L91.1,51c-4.2-3.1-9.3-4.9-14.9-5c0,0-20.1-0.5-21-0.3l-27.6,4l-2.8-17.9l36.1,2.9L59,7.7l-37.8,8.5l0.1,1.7
		c-1.6-1.8-4.1-2.7-6.7-2.2c-4.2,0.7-7.1,4.5-6.3,8.6l5.4,35.1c0.7,4.2,4.5,7.1,8.7,6.4l33.9-5.2l-2.1,57.1l37.7,0.7l1-47.2
		l14.5,10.6l-0.5,31.6c0,0,0,0-0.1,0.2c-0.1,4.2,3.2,7.7,7.4,7.8c4.2,0.1,7.7-3.2,7.8-7.4l0.7-35.5C123,75.7,121.6,73.1,119.4,71.8z
		 M57.1,26.5l-23.4-9.8l22.4-5L57.1,26.5z"/>
</g>
</svg>