<?xml version="1.0" encoding="iso-8859-1"?>
<!-- Uploaded to: SVG Repo, www.svgrepo.com, Generator: SVG Repo Mixer Tools -->
<svg fill="#000000" height="800px" width="800px" version="1.1" id="Layer_1" xmlns="http://www.w3.org/2000/svg" xmlns:xlink="http://www.w3.org/1999/xlink" 
	 viewBox="0 0 512 512" xml:space="preserve">
<g>
	<g>
		<path d="M473.042,244.87H306.085c-10.161,0-17.961,9.011-16.529,19.056l33.391,233.739c1.175,8.225,8.22,14.335,16.529,14.335
			H439.65c8.309,0,15.353-6.109,16.529-14.335l33.391-233.739C491.006,253.863,483.186,244.87,473.042,244.87z M425.17,478.609
			h-71.214l-14.31-100.174h99.834L425.17,478.609z M444.251,345.043H334.875l-9.541-66.783h128.457L444.251,345.043z"/>
	</g>
</g>
<g>
	<g>
		<path d="M243.204,183.652c7.949-8.869,12.794-20.572,12.794-33.391c0-40.313-28.725-74.042-66.783-81.799V16.696
			C189.216,7.475,181.74,0,172.52,0h-66.783c-9.22,0-16.696,7.475-16.696,16.696v51.767c-38.057,7.756-66.783,41.484-66.783,81.799
			c0,12.819,4.846,24.523,12.794,33.391c-7.949,8.869-12.794,20.572-12.794,33.391c0,12.819,4.846,24.523,12.794,33.391
			c-7.949,8.869-12.794,20.572-12.794,33.391c0,12.819,4.846,24.523,12.794,33.391c-7.949,8.869-12.794,20.572-12.794,33.391
			v111.304c0,27.618,22.469,50.087,50.087,50.087h133.565c27.618,0,50.087-22.469,50.087-50.087V350.609
			c0-12.819-4.846-24.523-12.794-33.391c7.949-8.869,12.794-20.572,12.794-33.391c0-12.819-4.846-24.523-12.794-33.391
			c7.949-8.869,12.794-20.572,12.794-33.391C255.998,204.225,251.152,192.521,243.204,183.652z M122.433,33.391h33.391v33.391
			h-33.391V33.391z M222.607,461.913c0,9.206-7.49,16.696-16.696,16.696H72.346c-9.206,0-16.696-7.49-16.696-16.696V350.609
			c0-9.206,7.49-16.696,16.696-16.696h133.565c9.206,0,16.696,7.49,16.696,16.696V461.913z M205.911,300.522H72.346
			c-9.207,0-16.696-7.49-16.696-16.696c0-9.206,7.49-16.696,16.696-16.696h133.565c9.206,0,16.696,7.49,16.696,16.696
			C222.607,293.032,215.117,300.522,205.911,300.522z M205.911,233.739H72.346c-9.207,0-16.696-7.49-16.696-16.696
			c0-9.206,7.49-16.696,16.696-16.696h133.565c9.206,0,16.696,7.49,16.696,16.696C222.607,226.249,215.117,233.739,205.911,233.739z
			 M205.911,166.957H72.346c-9.206,0-16.696-7.49-16.696-16.696c0-27.618,22.468-50.087,50.087-50.087h66.783
			c27.618,0,50.087,22.469,50.087,50.087C222.607,159.467,215.117,166.957,205.911,166.957z"/>
	</g>
</g>
</svg>