<?xml version="1.0" standalone="no"?>
<!DOCTYPE svg PUBLIC "-//W3C//DTD SVG 20010904//EN"
 "http://www.w3.org/TR/2001/REC-SVG-20010904/DTD/svg10.dtd">
<svg version="1.0" xmlns="http://www.w3.org/2000/svg"
 width="1500.000000pt" height="1500.000000pt" viewBox="0 0 1500.000000 1500.000000"
 preserveAspectRatio="xMidYMid meet">

<g transform="translate(0.000000,1500.000000) scale(0.100000,-0.100000)"
fill="#000000" stroke="none">
<path d="M4603 13180 c-638 -67 -1274 -336 -1827 -774 -418 -330 -748 -697
-991 -1101 -273 -453 -442 -953 -512 -1513 -24 -194 -24 -643 0 -842 95 -775
401 -1465 908 -2045 48 -55 1090 -1102 2316 -2326 2384 -2382 2272 -2275 2463
-2366 188 -90 319 -118 545 -117 221 0 350 29 535 117 191 91 79 -16 2463
2366 1226 1224 2268 2271 2316 2326 128 147 192 230 295 383 335 500 537 1050
612 1662 25 204 25 639 1 840 -58 465 -165 830 -362 1235 -180 369 -390 667
-680 963 -588 603 -1224 976 -1930 1132 -258 57 -334 65 -665 65 -268 0 -323
-3 -452 -23 -744 -116 -1482 -492 -2040 -1041 l-98 -96 -97 96 c-556 546
-1297 925 -2033 1040 -107 16 -193 21 -410 24 -151 2 -312 0 -357 -5z m549
-1256 c513 -70 1018 -334 1434 -748 139 -139 255 -290 334 -436 93 -170 168
-249 305 -318 85 -43 169 -62 275 -62 113 0 191 19 293 72 130 68 198 144 311
350 130 238 436 546 746 752 292 194 599 321 930 382 118 22 394 30 517 15
444 -55 859 -251 1268 -602 111 -95 322 -310 396 -404 548 -692 689 -1633 368
-2456 -89 -228 -226 -464 -389 -669 -56 -70 -564 -586 -1534 -1557 l-1451
-1452 -709 744 c-390 410 -712 745 -716 745 -3 0 -330 -340 -726 -755 -395
-415 -724 -755 -729 -755 -14 0 -2097 2088 -2300 2305 -87 94 -298 314 -467
490 -170 176 -323 341 -341 367 -17 25 -53 75 -79 110 -57 78 -163 287 -224
444 -54 137 -115 373 -140 539 -25 166 -26 533 -1 695 80 523 303 992 642
1349 472 497 962 779 1489 856 127 18 363 18 498 -1z m3428 -7510 c-118 -118
-411 -408 -651 -644 l-435 -429 -645 645 -644 644 1295 0 1295 0 -215 -216z"/>
<path d="M6697 9205 l-787 -825 1581 0 1580 0 -313 328 c-172 180 -526 551
-787 825 -261 273 -477 497 -481 497 -3 0 -360 -371 -793 -825z"/>
<path d="M6707 7365 l-787 -825 1581 0 1580 0 -313 328 c-172 180 -526 551
-787 825 -261 273 -477 497 -481 497 -3 0 -360 -371 -793 -825z"/>
</g>
</svg>
