<?xml version="1.0" encoding="utf-8"?>
<!-- Uploaded to: SVG Repo, www.svgrepo.com, Generator: SVG Repo Mixer Tools -->
<svg fill="#000000" height="800px" width="800px" version="1.2" baseProfile="tiny" id="Layer_1" xmlns="http://www.w3.org/2000/svg" xmlns:xlink="http://www.w3.org/1999/xlink"
	  viewBox="0 0 256 256" xml:space="preserve">
<path d="M60,2C41.7,2,26.9,16.9,26.9,35.1c0,0-0.4,183.4-0.4,184.9c0,17.8,14.2,32.3,31.8,33v0.1h171.1v-9.3
	c-13.2,0-23.8-10.7-23.8-23.8s10.7-23.8,23.8-23.8v-0.2V2H60z M63.7,20.1h9.3v156.5h-9.3C63.7,176.6,63.7,20.1,63.7,20.1z
	 M196.2,219.9c0,9.4,4,17.8,10.3,23.8h-147c-13.2,0.1-23.9-10.7-23.9-23.8c0-12.5,9.8-22.7,22-23.6l149.2-0.3
	C200.4,202,196.2,210.4,196.2,219.9z"/>
</svg>