<svg width="24" height="25" viewBox="0 0 24 25" fill="none" xmlns="http://www.w3.org/2000/svg">
<g clip-path="url(#clip0_224_1715)">
<path d="M11.9683 15.3041C15.4831 15.3041 18.7262 15.8725 21.101 16.883L20.1094 18.5188C17.9999 17.6788 15.0694 17.1925 11.9683 17.1925C8.93044 17.1925 5.99044 17.6725 3.87781 18.4999L2.88623 16.8641C5.26097 15.8662 8.49465 15.3041 11.9683 15.3041Z" fill="#CB6E3A"/>
<path d="M14.422 14.2462C15.5622 14.2485 16.6678 13.8553 17.5504 13.1336C18.4331 12.4118 19.038 11.4063 19.2622 10.2884C19.4864 9.17053 19.3158 8.0095 18.7797 7.00329C18.2435 5.99707 17.375 5.20798 16.3221 4.77055C15.2692 4.33312 14.0972 4.27444 13.0059 4.60452C11.9145 4.9346 10.9715 5.63299 10.3375 6.58062C9.70356 7.52825 9.41791 8.66645 9.5293 9.80114C9.64068 10.9358 10.1422 11.9967 10.9483 12.803C11.4039 13.2603 11.9452 13.6232 12.5413 13.8709C13.1374 14.1185 13.7765 14.2461 14.422 14.2462ZM12.2778 7.17881C12.7017 6.75455 13.2418 6.46553 13.83 6.34832C14.4181 6.23112 15.0278 6.29098 15.5819 6.52035C16.1361 6.74972 16.6097 7.13828 16.9429 7.63689C17.2762 8.13549 17.4541 8.72173 17.4541 9.32144C17.4541 9.92115 17.2762 10.5074 16.9429 11.006C16.6097 11.5046 16.1361 11.8932 15.5819 12.1225C15.0278 12.3519 14.4181 12.4118 13.83 12.2946C13.2418 12.1773 12.7017 11.8883 12.2778 11.4641C11.9959 11.183 11.7721 10.8491 11.6195 10.4814C11.4668 10.1137 11.3883 9.71954 11.3883 9.32144C11.3883 8.92334 11.4668 8.52915 11.6195 8.16147C11.7721 7.79379 11.9959 7.45986 12.2778 7.17881Z" fill="#CB6E3A"/>
<path d="M11.9937 0.5C9.62028 0.5 7.3002 1.20379 5.32681 2.52236C3.35343 3.84094 1.81535 5.71509 0.907103 7.9078C-0.0011483 10.1005 -0.238788 12.5133 0.224234 14.8411C0.687257 17.1689 1.83015 19.3071 3.50838 20.9853C5.18661 22.6635 7.3248 23.8064 9.65257 24.2694C11.9803 24.7324 14.3931 24.4948 16.5859 23.5866C18.7786 22.6783 20.6527 21.1402 21.9713 19.1668C23.2899 17.1935 23.9937 14.8734 23.9937 12.5C23.9937 9.3174 22.7294 6.26515 20.4789 4.01472C18.2285 1.76428 15.1763 0.5 11.9937 0.5ZM20.689 17.7492C19.4214 19.8515 17.4351 21.4233 15.0978 22.1738C12.7605 22.9242 10.2305 22.8026 7.97598 21.8312C5.72148 20.8599 3.89522 19.1047 2.83521 16.8905C1.77521 14.6763 1.55325 12.1531 2.21041 9.78785C2.86758 7.42261 4.35937 5.37553 6.40966 4.02551C8.45995 2.6755 10.9299 2.11398 13.3623 2.44487C15.7948 2.77577 18.025 3.97669 19.6401 5.82533C21.2553 7.67397 22.146 10.0452 22.1475 12.5C22.1517 14.3504 21.6472 16.1663 20.689 17.7492Z" fill="#333333"/>
</g>
<defs>
<clipPath id="clip0_224_1715">
<rect width="24" height="24" fill="white" transform="translate(0 0.5)"/>
</clipPath>
</defs>
</svg>
