<svg width="24" height="25" viewBox="0 0 24 25" fill="none" xmlns="http://www.w3.org/2000/svg">
<g clip-path="url(#clip0_224_1721)">
<path fill-rule="evenodd" clip-rule="evenodd" d="M19.5078 16.877L17.7016 16.437C17.7016 16.437 17.4275 16.3965 17.0327 16.3423C17.6753 15.4871 18.1041 14.4694 18.257 13.4108H19.2785C19.5234 13.4108 19.7582 13.3136 19.9313 13.1404C20.1044 12.9673 20.2016 12.7325 20.2016 12.4877C20.2016 12.2429 20.1044 12.0081 19.9313 11.835C19.7582 11.6619 19.5234 11.5647 19.2785 11.5647L18.257 11.5677C18.0987 10.4554 17.6473 9.4051 16.9493 8.52465L18.0355 7.4385C18.2089 7.2655 18.3065 7.03069 18.3068 6.78574C18.307 6.54079 18.21 6.30576 18.037 6.13234C17.864 5.95893 17.6292 5.86135 17.3842 5.86106C17.1393 5.86077 16.9043 5.9578 16.7309 6.13081L15.6139 7.26004C14.7998 6.68927 13.8627 6.31823 12.8785 6.17696V5.26927C12.8785 5.02445 12.7813 4.78966 12.6082 4.61655C12.4351 4.44344 12.2003 4.34619 11.9555 4.34619C11.7107 4.34619 11.4759 4.44344 11.3028 4.61655C11.1296 4.78966 11.0324 5.02445 11.0324 5.26927V6.17696C10.0498 6.31087 9.11269 6.67455 8.29701 7.2385L7.17701 6.13081C7.0036 5.9578 6.76857 5.86077 6.52361 5.86106C6.27866 5.86135 6.04386 5.95893 5.87086 6.13234C5.69785 6.30576 5.60082 6.54079 5.60111 6.78574C5.6014 7.03069 5.69898 7.2655 5.8724 7.4385L6.94624 8.51234C6.24355 9.39568 5.78897 10.4503 5.62932 11.5677H4.72163C4.47681 11.5677 4.24202 11.665 4.06891 11.8381C3.8958 12.0112 3.79855 12.246 3.79855 12.4908C3.79855 12.7356 3.8958 12.9704 4.06891 13.1435C4.24202 13.3166 4.47681 13.4139 4.72163 13.4139H5.62932C5.7836 14.4727 6.20315 15.4753 6.84883 16.3283C6.66819 16.3607 6.48784 16.3949 6.30778 16.4308L4.50163 16.8647C4.02037 17.0064 3.54644 17.1717 3.08154 17.36C3.385 17.9176 3.73851 18.4426 4.13617 18.9295C4.61427 18.7543 5.13025 18.5961 5.67678 18.4562C6.3324 18.2884 7.03197 18.1469 7.76277 18.0342C8.03409 17.9924 8.30971 17.9545 8.58898 17.9208C9.67528 17.7894 10.8169 17.72 11.9755 17.72C13.1224 17.72 14.2457 17.7866 15.3131 17.9129C15.588 17.9454 15.8593 17.9819 16.1262 18.0222C16.8465 18.1311 17.5357 18.2679 18.1829 18.4304C18.7781 18.5799 19.3378 18.7511 19.8535 18.9423C20.1609 18.5673 20.4425 18.1688 20.6955 17.7493C20.7698 17.6265 20.8414 17.5023 20.9103 17.3767C20.3425 17.1546 19.5078 16.877 19.5078 16.877ZM8.74009 15.7154C8.76197 15.7312 8.78255 15.7487 8.80163 15.7677C8.89243 15.8548 8.98646 15.9378 9.08343 16.0165C10.0439 15.9206 11.0091 15.873 11.9755 15.8739C12.7322 15.8722 13.7802 15.9591 14.7731 16.0651C14.9109 15.957 15.0427 15.8404 15.1678 15.7154C15.8033 15.0798 16.236 14.27 16.4113 13.3885C16.5866 12.5069 16.4965 11.5932 16.1525 10.7629C15.8085 9.93249 15.226 9.22277 14.4787 8.72344C13.7314 8.22411 12.8527 7.9576 11.9539 7.9576C11.0551 7.9576 10.1765 8.22411 9.42917 8.72344C8.68184 9.22277 8.09934 9.93249 7.75534 10.7629C7.41134 11.5932 7.32129 12.5069 7.49658 13.3885C7.67186 14.27 8.1046 15.0798 8.74009 15.7154Z" fill="#D4AC1C"/>
<path d="M12 0.5C9.62663 0.5 7.30655 1.20379 5.33316 2.52236C3.35977 3.84094 1.8217 5.71509 0.913451 7.9078C0.00519936 10.1005 -0.232441 12.5133 0.230582 14.8411C0.693605 17.1689 1.83649 19.307 3.51472 20.9853C5.19295 22.6635 7.33115 23.8064 9.65892 24.2694C11.9867 24.7324 14.3995 24.4948 16.5922 23.5866C18.7849 22.6783 20.6591 21.1402 21.9776 19.1668C23.2962 17.1934 24 14.8734 24 12.5C24 9.3174 22.7357 6.26515 20.4853 4.01472C18.2348 1.76428 15.1826 0.5 12 0.5ZM20.6954 17.7492C19.4278 19.8515 17.4415 21.4233 15.1042 22.1738C12.7669 22.9242 10.2368 22.8026 7.98232 21.8312C5.72783 20.8599 3.90156 19.1047 2.84156 16.8905C1.78156 14.6763 1.55959 12.1531 2.21676 9.78785C2.87392 7.42261 4.36572 5.37553 6.41601 4.02551C8.4663 2.6755 10.9362 2.11398 13.3687 2.44487C15.8011 2.77577 18.0313 3.97669 19.6465 5.82533C21.2616 7.67397 22.1524 10.0452 22.1538 12.5C22.1581 14.3504 21.6536 16.1663 20.6954 17.7492Z" fill="#333333"/>
</g>
<defs>
<clipPath id="clip0_224_1721">
<rect width="24" height="24" fill="white" transform="translate(0 0.5)"/>
</clipPath>
</defs>
</svg>
