<svg width="24" height="25" viewBox="0 0 24 25" fill="none" xmlns="http://www.w3.org/2000/svg">
<g clip-path="url(#clip0_224_1712)">
<path d="M12 0.5C9.62663 0.5 7.30655 1.20379 5.33316 2.52236C3.35977 3.84094 1.8217 5.71509 0.913451 7.9078C0.00519936 10.1005 -0.232441 12.5133 0.230582 14.8411C0.693605 17.1689 1.83649 19.3071 3.51472 20.9853C5.19295 22.6635 7.33115 23.8064 9.65892 24.2694C11.9867 24.7324 14.3995 24.4948 16.5922 23.5866C18.7849 22.6783 20.6591 21.1402 21.9776 19.1668C23.2962 17.1935 24 14.8734 24 12.5C24 9.3174 22.7357 6.26515 20.4853 4.01472C18.2348 1.76428 15.1826 0.5 12 0.5ZM20.6954 17.7492C19.4278 19.8515 17.4415 21.4233 15.1042 22.1738C12.7669 22.9242 10.2368 22.8026 7.98232 21.8312C5.72783 20.8599 3.90156 19.1047 2.84156 16.8905C1.78156 14.6763 1.55959 12.1531 2.21676 9.78785C2.87392 7.42261 4.36572 5.37553 6.41601 4.02551C8.4663 2.6755 10.9363 2.11398 13.3687 2.44487C15.8011 2.77577 18.0313 3.97669 19.6465 5.82533C21.2616 7.67397 22.1524 10.0452 22.1538 12.5C22.1581 14.3504 21.6536 16.1663 20.6954 17.7492Z" fill="#333333"/>
<path d="M18.203 14.903C16.7196 15.4126 15.096 15.3238 13.677 14.6557C12.258 13.9875 11.1552 12.7926 10.603 11.3245C10.2863 10.4698 10.1699 9.55373 10.2627 8.64691C10.3555 7.74009 10.6551 6.86665 11.1384 6.09376C11.1374 6.08456 11.1374 6.07527 11.1384 6.06607C11.2347 5.90229 11.278 5.71279 11.2626 5.52345C11.2472 5.3341 11.1737 5.15413 11.0522 5.00807C10.9308 4.86202 10.7672 4.75701 10.5838 4.70737C10.4004 4.65772 10.2062 4.66587 10.0276 4.73068C9.03259 5.08237 8.11865 5.63102 7.34043 6.34387C6.56221 7.05672 5.93566 7.91912 5.49824 8.87956C5.06082 9.84 4.82149 10.8788 4.79455 11.9338C4.76762 12.9888 4.95363 14.0384 5.34147 15.0199C5.93211 16.4813 6.94602 17.7329 8.25305 18.6139C9.56009 19.495 11.1006 19.9653 12.6769 19.9645C13.5828 19.9652 14.4817 19.8058 15.3322 19.4938C16.9774 18.895 18.3726 17.7589 19.2922 16.2691C19.396 16.1069 19.4464 15.9162 19.4364 15.7238C19.4263 15.5315 19.3564 15.3471 19.2363 15.1965C19.1162 15.0459 18.952 14.9366 18.7667 14.884C18.5814 14.8313 18.3843 14.838 18.203 14.903ZM14.6984 17.7615C13.2303 18.2889 11.6152 18.228 10.191 17.5913C8.76694 16.9547 7.64437 15.7918 7.0584 14.3461C6.75718 13.5951 6.6122 12.7906 6.6323 11.9817C6.65241 11.1728 6.83717 10.3765 7.17532 9.64145C7.49865 8.92998 7.95745 8.2883 8.52609 7.75222C8.2498 9.16325 8.36907 10.6232 8.87071 11.9707C9.42181 13.4376 10.3976 14.707 11.6735 15.6167C12.9493 16.5265 14.4674 17.0354 16.0338 17.0784C15.6192 17.3614 15.1705 17.5909 14.6984 17.7615Z" fill="#AEC0FF"/>
</g>
<defs>
<clipPath id="clip0_224_1712">
<rect width="24" height="24" fill="white" transform="translate(0 0.5)"/>
</clipPath>
</defs>
</svg>
