<svg width="24" height="25" viewBox="0 0 24 25" fill="none" xmlns="http://www.w3.org/2000/svg">
<g clip-path="url(#clip0_224_1718)">
<path d="M18.3354 11.5985C18.1771 10.4861 17.7258 9.43587 17.0277 8.55541L18.1139 7.46926C18.2873 7.29626 18.3849 7.06145 18.3852 6.8165C18.3854 6.57155 18.2884 6.33652 18.1154 6.16311C17.9424 5.9897 17.7076 5.89211 17.4627 5.89182C17.2177 5.89154 16.9827 5.98857 16.8093 6.16157L15.6923 7.2908C14.8782 6.72003 13.9411 6.34899 12.957 6.20772V5.30003C12.957 5.05521 12.8597 4.82043 12.6866 4.64732C12.5135 4.47421 12.2787 4.37695 12.0339 4.37695C11.7891 4.37695 11.5543 4.47421 11.3812 4.64732C11.208 4.82043 11.1108 5.05521 11.1108 5.30003V6.20772C10.1282 6.34163 9.19109 6.70532 8.37541 7.26926L7.25541 6.16157C7.082 5.98857 6.84697 5.89154 6.60202 5.89182C6.35707 5.89211 6.12226 5.9897 5.94926 6.16311C5.77626 6.33652 5.67923 6.57155 5.67952 6.8165C5.6798 7.06145 5.77739 7.29626 5.9508 7.46926L7.02464 8.54311C6.32195 9.42644 5.86737 10.4811 5.70772 11.5985H4.80003C4.55521 11.5985 4.32043 11.6957 4.14732 11.8689C3.97421 12.042 3.87695 12.2768 3.87695 12.5216C3.87695 12.7664 3.97421 13.0012 4.14732 13.1743C4.32043 13.3474 4.55521 13.4446 4.80003 13.4446H5.70772C5.86289 14.5096 6.28643 15.5177 6.93849 16.3739L5.95388 17.3277C5.8586 17.4097 5.78105 17.5102 5.726 17.6232C5.67095 17.7362 5.63955 17.8592 5.63372 17.9847C5.62789 18.1103 5.64776 18.2357 5.69211 18.3533C5.73646 18.4709 5.80435 18.5782 5.89163 18.6686C5.97891 18.759 6.08374 18.8307 6.19969 18.8792C6.31563 18.9276 6.44026 18.9519 6.56593 18.9506C6.6916 18.9492 6.81566 18.9222 6.93052 18.8711C7.04537 18.8201 7.1486 18.7462 7.23388 18.6539L8.24926 17.6693C9.08886 18.286 10.0674 18.6865 11.0985 18.8354V19.5493C11.0985 19.7941 11.1957 20.0289 11.3689 20.202C11.542 20.3751 11.7768 20.4723 12.0216 20.4723C12.2664 20.4723 12.5012 20.3751 12.6743 20.202C12.8474 20.0289 12.9446 19.7941 12.9446 19.5493V18.8354C13.982 18.6866 14.9663 18.2827 15.8093 17.66L16.8093 18.6539C16.9823 18.8267 17.217 18.9238 17.4616 18.9238C17.7062 18.9238 17.9408 18.8267 18.1139 18.6539C18.2867 18.4808 18.3838 18.2462 18.3838 18.0016C18.3838 17.7569 18.2867 17.5223 18.1139 17.3493L17.1231 16.3585C17.7656 15.5033 18.1825 14.5002 18.3354 13.4416H19.357C19.6018 13.4416 19.8366 13.3443 20.0097 13.1712C20.1828 12.9981 20.28 12.7633 20.28 12.5185C20.28 12.2737 20.1828 12.0389 20.0097 11.8658C19.8366 11.6927 19.6018 11.5954 19.357 11.5954H18.3354V11.5985ZM15.2462 15.7462C14.4059 16.5857 13.2579 17.0503 12.0701 17.0624C10.8824 17.0745 9.7372 16.6208 8.88003 15.7985C8.86096 15.7794 8.84038 15.7619 8.81849 15.7462C8.183 15.1106 7.75026 14.3008 7.57498 13.4193C7.3997 12.5377 7.48975 11.624 7.83375 10.7936C8.17774 9.96325 8.76024 9.25353 9.50758 8.7542C10.2549 8.25487 11.1335 7.98836 12.0323 7.98836C12.9311 7.98836 13.8098 8.25487 14.5571 8.7542C15.3044 9.25353 15.8869 9.96325 16.2309 10.7936C16.5749 11.624 16.665 12.5377 16.4897 13.4193C16.3144 14.3008 15.8817 15.1106 15.2462 15.7462Z" fill="#DDC809"/>
<path fill-rule="evenodd" clip-rule="evenodd" d="M12 0.5C9.62663 0.5 7.30655 1.20379 5.33316 2.52236C3.35977 3.84094 1.8217 5.71509 0.913451 7.9078C0.00519936 10.1005 -0.232441 12.5133 0.230582 14.8411C0.693605 17.1689 1.83649 19.307 3.51472 20.9853C5.19295 22.6635 7.33115 23.8064 9.65892 24.2694C11.9867 24.7324 14.3995 24.4948 16.5922 23.5866C18.7849 22.6783 20.6591 21.1402 21.9776 19.1668C23.2962 17.1934 24 14.8734 24 12.5C24 9.3174 22.7357 6.26515 20.4853 4.01472C18.2348 1.76428 15.1826 0.5 12 0.5ZM12 2.34615C13.7195 2.34678 15.4107 2.78408 16.915 3.61703C18.4192 4.44997 19.6873 5.6513 20.6004 7.10835C21.5134 8.56541 22.0415 10.2305 22.1351 11.9474C22.2287 13.6644 21.8847 15.377 21.1354 16.9246L20.1723 18.5215C19.2335 19.807 18.0034 20.8517 16.5829 21.57C15.1623 22.2883 13.5918 22.6597 12 22.6538C10.4063 22.65 8.83561 22.2724 7.4142 21.5516C5.99278 20.8307 4.76019 19.7866 3.81539 18.5031L2.85231 16.9062C2.10678 15.3583 1.7662 13.6466 1.86244 11.9312C1.95867 10.2159 2.48859 8.55299 3.40258 7.09823C4.31656 5.64348 5.58473 4.44443 7.08838 3.61331C8.59202 2.7822 10.282 2.34621 12 2.34615Z" fill="#333333"/>
</g>
<defs>
<clipPath id="clip0_224_1718">
<rect width="24" height="24" fill="white" transform="translate(0 0.5)"/>
</clipPath>
</defs>
</svg>
