<svg xmlns="http://www.w3.org/2000/svg" width="1000" height="1000" viewBox="0 0 1000 1000" version="1.1"><path d="M 312.995 131.250 C 312.990 133.720, 322.092 234.402, 322.344 234.659 C 322.430 234.746, 361.200 229.697, 408.500 223.437 C 455.800 217.178, 495.400 212.026, 496.500 211.988 C 498.277 211.928, 498.221 211.768, 496 210.564 C 492.977 208.924, 314.102 129, 313.455 129 C 313.205 129, 312.998 130.012, 312.995 131.250 M 623 157.097 C 588.625 172.486, 547.226 191.016, 531.002 198.275 C 514.778 205.534, 502.178 211.595, 503.002 211.744 C 506.343 212.349, 677.512 234.807, 677.656 234.659 C 677.908 234.402, 687.010 133.720, 687.005 131.250 C 687.002 130.012, 686.663 129.026, 686.250 129.058 C 685.837 129.090, 657.375 141.707, 623 157.097 M 89.769 410.436 C 69.567 480.800, 53.244 538.577, 53.496 538.829 C 54.127 539.461, 163.004 550.078, 165.566 549.758 C 167.574 549.507, 167.069 545.852, 147.372 418 C 136.229 345.675, 126.975 285.600, 126.806 284.500 C 126.638 283.400, 109.971 340.071, 89.769 410.436 M 872.080 291 C 871.407 295.675, 862.197 355.750, 851.613 424.500 C 832.898 546.063, 832.426 549.507, 834.434 549.758 C 836.973 550.075, 945.870 539.464, 946.495 538.838 C 946.851 538.482, 877.285 294.434, 874.138 285 C 873.468 282.990, 873.064 284.166, 872.080 291" stroke="none" fill="#554236" fill-rule="evenodd"/><path d="M 54.550 540.856 C 56.122 542.274, 329.438 747.537, 331.029 748.494 C 331.838 748.982, 330.438 746.932, 327.917 743.940 C 325.396 740.948, 289.447 697.550, 248.030 647.500 C 206.613 597.450, 171.501 555.221, 170.002 553.658 L 167.277 550.816 112.389 545.437 C 52.325 539.551, 53.177 539.619, 54.550 540.856 M 886.130 545.498 L 832.759 550.779 830.014 553.640 C 828.505 555.213, 793.381 597.450, 751.961 647.500 C 710.541 697.550, 674.593 740.948, 672.076 743.940 C 669.559 746.932, 668.162 748.982, 668.971 748.494 C 670.562 747.537, 943.878 542.274, 945.450 540.856 C 946.896 539.553, 943.644 539.808, 886.130 545.498" stroke="none" fill="#554236" fill-rule="evenodd"/><path d="M 169.646 552.242 C 170.071 552.934, 205.288 595.575, 247.904 647 C 290.521 698.425, 327.519 743.072, 330.122 746.215 L 334.855 751.929 355.408 690.279 C 366.712 656.371, 375.768 628.435, 375.532 628.199 C 375.296 627.963, 329.742 610.951, 274.301 590.394 C 218.861 569.838, 172.459 552.561, 171.186 552.002 C 169.395 551.215, 169.047 551.269, 169.646 552.242 M 727.708 589.485 C 671.173 610.531, 624.714 627.953, 624.466 628.201 C 624.218 628.449, 633.275 656.395, 644.592 690.302 L 665.168 751.953 667.418 749.227 C 668.656 747.727, 705.648 703.075, 749.622 650 C 822.809 561.667, 831.751 550.776, 830.809 551.110 C 830.639 551.170, 784.244 568.439, 727.708 589.485" stroke="none" fill="#F77825" fill-rule="evenodd"/><path d="M 355.878 690.778 L 335.257 752.735 416.820 875.342 C 461.680 942.776, 498.515 997.818, 498.676 997.658 C 498.836 997.497, 471.412 914.443, 437.734 813.093 L 376.500 628.821 355.878 690.778 M 562.213 813.166 C 528.536 914.550, 500.986 997.874, 500.991 998.332 C 500.996 998.790, 514.189 979.215, 530.309 954.832 C 546.429 930.449, 583.280 875.024, 612.200 831.664 L 664.782 752.829 644.556 692.164 C 633.432 658.799, 624.131 630.900, 623.887 630.166 C 623.643 629.432, 595.890 711.782, 562.213 813.166" stroke="none" fill="#F1EFA5" fill-rule="evenodd"/><path d="M 56 543.503 C 59.466 547.377, 63.331 551.382, 97.500 586.503 C 114 603.462, 129.750 619.671, 132.500 622.522 C 135.250 625.373, 150.823 641.385, 167.107 658.103 C 183.391 674.821, 199.310 691.200, 202.484 694.500 C 205.658 697.800, 221.359 713.970, 237.377 730.433 C 253.395 746.895, 268.750 762.682, 271.500 765.514 C 274.250 768.346, 290 784.529, 306.500 801.475 C 323 818.422, 338.750 834.623, 341.500 837.478 C 344.250 840.334, 360 856.540, 376.500 873.493 C 393 890.445, 408.750 906.640, 411.500 909.482 C 417.544 915.727, 471.051 970.743, 487.379 987.500 L 499.071 999.500 467.713 952 C 450.466 925.875, 413.375 870.075, 385.288 828 L 334.221 751.500 307.361 731.394 C 292.587 720.336, 229.425 672.908, 167 625.999 C 104.575 579.089, 54.625 541.966, 56 543.503 M 805.166 646.815 L 664.833 752.500 584.330 873.500 C 540.053 940.050, 503.384 995.400, 502.842 996.500 C 502.300 997.600, 506.898 993.325, 513.059 987 C 519.221 980.675, 537.413 962, 553.488 945.500 C 569.562 929, 585.310 912.800, 588.484 909.500 C 591.658 906.200, 607.359 890.030, 623.377 873.567 C 639.395 857.105, 654.750 841.318, 657.500 838.486 C 660.250 835.654, 676 819.457, 692.500 802.493 C 709 785.528, 724.750 769.323, 727.500 766.482 C 730.250 763.640, 746 747.455, 762.500 730.515 C 779 713.574, 794.750 697.378, 797.500 694.522 C 800.250 691.666, 816 675.460, 832.500 658.507 C 849 641.555, 864.750 625.360, 867.500 622.518 C 875.925 613.813, 932.214 555.912, 937 551.028 C 942.603 545.310, 946.482 540.980, 945.924 541.065 C 945.691 541.100, 882.350 588.688, 805.166 646.815" stroke="none" fill="#60B99A" fill-rule="evenodd"/><path d="M 124.750 53.700 C 122.666 57.511, 122.438 59.607, 124.500 56 C 125.762 53.793, 125.933 57.217, 125.965 85.250 C 125.984 102.713, 126.338 117, 126.750 117.001 C 127.422 117.002, 127.420 93.674, 126.745 62 L 126.500 50.500 124.750 53.700 M 872.776 84 C 872.624 102.151, 872.837 117.001, 873.250 117 C 873.663 117, 874.016 102.713, 874.035 85.250 C 874.067 57.217, 874.238 53.793, 875.500 56 C 876.286 57.375, 876.945 58.140, 876.965 57.700 C 877.011 56.661, 874.084 51, 873.501 51 C 873.254 51, 872.928 65.850, 872.776 84 M 107.199 89.551 C 105.439 93.119, 104.022 96.367, 104.049 96.769 C 104.076 97.171, 105.680 94.417, 107.614 90.648 C 109.548 86.880, 110.965 83.632, 110.764 83.430 C 110.562 83.229, 108.958 85.983, 107.199 89.551 M 889.097 83.500 C 889.097 84.050, 890.628 87.425, 892.500 91 C 894.372 94.575, 895.903 97.050, 895.903 96.500 C 895.903 95.950, 894.372 92.575, 892.500 89 C 890.628 85.425, 889.097 82.950, 889.097 83.500 M 88.199 128.551 C 86.439 132.119, 85.022 135.367, 85.049 135.769 C 85.076 136.171, 86.680 133.417, 88.614 129.648 C 90.548 125.880, 91.965 122.632, 91.764 122.430 C 91.562 122.229, 89.958 124.983, 88.199 128.551 M 908.097 122.500 C 908.097 123.050, 909.628 126.425, 911.500 130 C 913.372 133.575, 914.903 136.050, 914.903 135.500 C 914.903 134.950, 913.372 131.575, 911.500 128 C 909.628 124.425, 908.097 121.950, 908.097 122.500 M 68.702 168.552 C 66.666 172.666, 65.022 176.363, 65.050 176.767 C 65.077 177.170, 66.906 173.966, 69.114 169.647 C 71.321 165.328, 72.965 161.631, 72.766 161.432 C 72.567 161.233, 70.738 164.437, 68.702 168.552 M 927.097 161.500 C 927.097 162.050, 928.628 165.425, 930.500 169 C 932.372 172.575, 933.903 175.050, 933.903 174.500 C 933.903 173.950, 932.372 170.575, 930.500 167 C 928.628 163.425, 927.097 160.950, 927.097 161.500 M 49.702 207.552 C 47.666 211.666, 46.022 215.363, 46.050 215.767 C 46.077 216.170, 47.906 212.966, 50.114 208.647 C 52.321 204.328, 53.965 200.631, 53.766 200.432 C 53.567 200.233, 51.738 203.437, 49.702 207.552 M 946.099 200.500 C 946.099 201.050, 947.854 204.875, 950 209 C 952.146 213.125, 953.901 216.050, 953.901 215.500 C 953.901 214.950, 952.146 211.125, 950 207 C 947.854 202.875, 946.099 199.950, 946.099 200.500 M 30.702 246.552 C 28.666 250.666, 27.022 254.363, 27.050 254.767 C 27.077 255.170, 28.906 251.966, 31.114 247.647 C 33.321 243.328, 34.965 239.631, 34.766 239.432 C 34.567 239.233, 32.738 242.437, 30.702 246.552 M 965.099 239.500 C 965.099 240.050, 966.854 243.875, 969 248 C 971.146 252.125, 972.901 255.050, 972.901 254.500 C 972.901 253.950, 971.146 250.125, 969 246 C 966.854 241.875, 965.099 238.950, 965.099 239.500 M 984.099 278.500 C 984.099 279.050, 985.854 282.875, 988 287 C 990.146 291.125, 991.901 294.050, 991.901 293.500 C 991.901 292.950, 990.146 289.125, 988 285 C 985.854 280.875, 984.099 277.950, 984.099 278.500 M 11.199 286.551 C 9.439 290.119, 8.022 293.367, 8.049 293.769 C 8.076 294.171, 9.680 291.417, 11.614 287.648 C 13.548 283.880, 14.965 280.632, 14.764 280.430 C 14.562 280.229, 12.958 282.983, 11.199 286.551 M 437.760 558.250 C 403.218 597.662, 376.519 628.939, 376.938 629.500 C 377.349 630.050, 405.093 713.179, 438.592 814.232 C 472.092 915.284, 499.725 997.960, 500 997.956 C 500.275 997.952, 528.112 914.731, 561.860 813.020 L 623.220 628.090 620.360 624.683 C 609.426 611.655, 500.540 488, 500.003 488 C 499.632 488, 471.623 519.612, 437.760 558.250" stroke="none" fill="#F77825" fill-rule="evenodd"/><path d="M 322.521 239.587 C 323.282 243.058, 327.001 268.392, 327.573 274 C 327.881 277.025, 328.982 284.900, 330.019 291.500 C 331.055 298.100, 332.172 306.200, 332.501 309.500 C 332.830 312.800, 333.974 321.125, 335.043 328 C 337.006 340.626, 337.530 344.416, 338.564 353.500 C 338.877 356.250, 339.982 363.900, 341.019 370.500 C 342.055 377.100, 343.179 385.200, 343.515 388.500 C 343.851 391.800, 344.976 399.900, 346.015 406.500 C 347.054 413.100, 348.179 421.200, 348.515 424.500 C 348.851 427.800, 349.973 435.900, 351.007 442.500 C 352.818 454.049, 353.303 457.607, 354.558 468.500 C 354.875 471.250, 355.982 478.900, 357.019 485.500 C 358.055 492.100, 359.179 500.200, 359.515 503.500 C 359.851 506.800, 360.976 514.900, 362.015 521.500 C 363.054 528.100, 364.179 536.200, 364.515 539.500 C 364.851 542.800, 365.973 550.900, 367.007 557.500 C 368.818 569.049, 369.303 572.607, 370.558 583.500 C 370.875 586.250, 372.002 593.994, 373.063 600.708 C 374.124 607.423, 375.269 615.973, 375.607 619.708 C 375.945 623.444, 376.300 626.590, 376.394 626.700 C 376.489 626.809, 404.147 595.422, 437.857 556.951 L 499.149 487.003 490.871 475.251 C 446.470 412.223, 324.517 240.185, 323.461 239.087 C 322.298 237.878, 322.162 237.950, 322.521 239.587 M 662.705 258.250 C 648.691 277.991, 506.620 478.768, 502.779 484.261 L 500.848 487.023 559.766 554.261 C 592.172 591.243, 619.784 622.783, 621.128 624.352 C 623.178 626.743, 623.584 626.905, 623.650 625.352 C 623.780 622.279, 625.005 613.174, 626.992 600.500 C 628.027 593.900, 629.149 585.800, 629.485 582.500 C 629.821 579.200, 630.946 571.100, 631.985 564.500 C 633.024 557.900, 634.149 549.800, 634.485 546.500 C 634.821 543.200, 635.945 535.100, 636.981 528.500 C 638.018 521.900, 639.125 514.250, 639.442 511.500 C 640.697 500.607, 641.182 497.049, 642.993 485.500 C 644.027 478.900, 645.149 470.800, 645.485 467.500 C 645.821 464.200, 646.946 456.100, 647.985 449.500 C 649.024 442.900, 650.142 434.800, 650.471 431.500 C 650.800 428.200, 651.944 419.875, 653.014 413 C 654.084 406.125, 655.199 398.475, 655.492 396 C 656.832 384.673, 657.232 381.763, 658.995 370.500 C 660.028 363.900, 661.149 355.800, 661.485 352.500 C 661.821 349.200, 662.945 341.100, 663.981 334.500 C 665.018 327.900, 666.123 320.250, 666.436 317.500 C 667.450 308.593, 667.979 304.718, 669.987 291.500 C 671.073 284.350, 672.196 276.250, 672.483 273.500 C 673.016 268.390, 676.756 242.912, 677.436 239.750 C 677.643 238.787, 677.648 238, 677.447 238 C 677.245 238, 670.612 247.113, 662.705 258.250" stroke="none" fill="#F77825" fill-rule="evenodd"/><path d="M 245.500 392.252 C 203.700 478.140, 169.500 549.064, 169.500 549.861 C 169.500 550.869, 200.838 562.943, 272.500 589.546 C 329.150 610.576, 375.639 627.655, 375.810 627.498 C 376.084 627.246, 322.274 238.546, 321.722 236.796 C 321.600 236.409, 287.300 306.364, 245.500 392.252 M 678.083 236.873 C 678.037 237.628, 665.843 325.583, 650.985 432.329 C 636.127 539.074, 624.089 626.716, 624.235 627.088 C 624.594 628.005, 830.297 551.609, 830.696 550.411 C 830.870 549.889, 799.010 483.771, 759.895 403.481 C 720.780 323.192, 686.390 252.550, 683.471 246.500 C 680.553 240.450, 678.128 236.118, 678.083 236.873" stroke="none" fill="#F1EFA5" fill-rule="evenodd"/><path d="M 408.885 223.479 C 362.346 229.674, 323.839 234.914, 323.313 235.122 C 322.431 235.471, 498.876 485.922, 500 485.917 C 500.581 485.915, 677.780 235.634, 677.487 235.229 C 676.969 234.512, 502.849 212.023, 498.500 212.112 C 495.750 212.168, 455.423 217.283, 408.885 223.479 M 224.500 258.065 C 172.800 270.120, 129.554 280.080, 128.397 280.198 C 127.082 280.332, 126.421 280.990, 126.632 281.956 C 126.817 282.805, 136.005 342.675, 147.049 415 C 158.094 487.325, 167.438 547.253, 167.815 548.174 C 168.278 549.304, 192.849 499.846, 243.500 395.833 C 284.750 311.125, 319.064 240.509, 319.753 238.909 C 320.757 236.578, 320.757 236.015, 319.753 236.074 C 319.064 236.114, 276.200 246.010, 224.500 258.065 M 680.247 238.908 C 680.936 240.507, 715.250 311.130, 756.500 395.847 C 807.466 500.519, 831.720 549.337, 832.187 548.189 C 832.565 547.260, 841.908 487.325, 852.949 415 C 863.990 342.675, 873.177 282.803, 873.365 281.952 C 873.556 281.087, 873 280.349, 872.104 280.280 C 871.222 280.212, 827.691 270.221, 775.369 258.078 C 723.047 245.935, 679.958 236, 679.616 236 C 679.274 236, 679.558 237.308, 680.247 238.908" stroke="none" fill="#F77825" fill-rule="evenodd"/><path d="M 312.995 131.250 C 312.990 133.720, 322.092 234.402, 322.344 234.659 C 322.430 234.746, 361.200 229.697, 408.500 223.437 C 455.800 217.178, 495.400 212.026, 496.500 211.988 C 498.277 211.928, 498.221 211.768, 496 210.564 C 492.977 208.924, 314.102 129, 313.455 129 C 313.205 129, 312.998 130.012, 312.995 131.250 M 623 157.097 C 588.625 172.486, 547.226 191.016, 531.002 198.275 C 514.778 205.534, 502.178 211.595, 503.002 211.744 C 506.343 212.349, 677.512 234.807, 677.656 234.659 C 677.908 234.402, 687.010 133.720, 687.005 131.250 C 687.002 130.012, 686.663 129.026, 686.250 129.058 C 685.837 129.090, 657.375 141.707, 623 157.097 M 89.769 410.436 C 69.567 480.800, 53.244 538.577, 53.496 538.829 C 54.127 539.461, 163.004 550.078, 165.566 549.758 C 167.574 549.507, 167.069 545.852, 147.372 418 C 136.229 345.675, 126.975 285.600, 126.806 284.500 C 126.638 283.400, 109.971 340.071, 89.769 410.436 M 872.080 291 C 871.407 295.675, 862.197 355.750, 851.613 424.500 C 832.898 546.063, 832.426 549.507, 834.434 549.758 C 836.973 550.075, 945.870 539.464, 946.495 538.838 C 946.851 538.482, 877.285 294.434, 874.138 285 C 873.468 282.990, 873.064 284.166, 872.080 291" stroke="none" fill="#554236" fill-rule="evenodd"/><path d="M 219.018 204.723 C 168.703 246.281, 128.428 280.014, 129.518 279.686 C 130.608 279.359, 173.575 269.366, 225 257.481 C 276.425 245.595, 319.201 235.672, 320.057 235.429 C 321.438 235.038, 321.074 229.172, 316.848 183.744 C 314.227 155.560, 312.063 131.713, 312.041 130.750 C 312.018 129.787, 311.663 129.037, 311.250 129.082 C 310.837 129.128, 269.333 163.166, 219.018 204.723 M 687.948 130.750 C 687.920 131.713, 685.758 155.560, 683.143 183.744 C 678.931 229.148, 678.567 235.039, 679.945 235.430 C 680.800 235.673, 723.575 245.595, 775 257.481 C 826.425 269.366, 869.387 279.357, 870.470 279.683 C 871.554 280.008, 831.158 246.238, 780.703 204.637 C 730.247 163.037, 688.748 129, 688.483 129 C 688.217 129, 687.977 129.787, 687.948 130.750 M 62.500 296.212 C 28.400 304.472, 0.420 311.297, 0.321 311.377 C 0.058 311.593, 51.758 537.094, 52.159 537.477 C 52.347 537.657, 68.891 480.585, 88.923 410.652 C 108.956 340.718, 125.542 282.938, 125.780 282.250 C 126.019 281.563, 125.828 281.043, 125.357 281.096 C 124.886 281.149, 96.600 287.951, 62.500 296.212 M 874.173 282.135 C 874.434 282.886, 891.039 340.719, 911.074 410.653 C 931.108 480.587, 947.653 537.659, 947.839 537.481 C 948.236 537.100, 999.937 311.588, 999.676 311.376 C 999.579 311.297, 972.050 304.638, 938.500 296.578 C 904.950 288.518, 876.644 281.663, 875.599 281.346 C 874.273 280.944, 873.841 281.182, 874.173 282.135" stroke="none" fill="#60B99A" fill-rule="evenodd"/><path d="M 127 198.552 L 127 280.151 133.750 274.545 C 137.463 271.462, 178.829 237.345, 225.677 198.729 C 272.524 160.114, 310.696 128.363, 310.505 128.171 C 310.313 127.980, 272.434 125.646, 226.328 122.985 C 180.223 120.325, 139.012 117.879, 134.750 117.551 L 127 116.953 127 198.552 M 778.682 122.528 C 729.832 125.429, 689.701 127.965, 689.503 128.164 C 689.304 128.363, 728.822 161.241, 777.321 201.226 C 825.819 241.212, 867.188 275.326, 869.250 277.036 L 873 280.146 873 198.573 L 873 117 870.250 117.126 C 868.737 117.196, 827.532 119.626, 778.682 122.528" stroke="none" fill="#554236" fill-rule="evenodd"/><path d="M 63.839 213.564 C 29.375 266.329, 1.552 309.638, 2.009 309.807 C 3.062 310.195, 125.235 280.929, 126.256 280.044 C 126.672 279.683, 126.897 242.992, 126.756 198.508 L 126.500 117.628 63.839 213.564 M 873.244 199.004 L 873.500 280.352 935 295.178 C 968.825 303.332, 997.018 309.890, 997.651 309.752 C 998.558 309.553, 876.673 121.333, 873.744 118.409 C 873.328 117.994, 873.103 154.262, 873.244 199.004" stroke="none" fill="#554236" fill-rule="evenodd"/><path d="M 97.795 110.606 C 82.557 141.898, 64.165 179.650, 56.922 194.500 C 41.232 226.673, 28.772 252.288, 17.424 275.697 C 12.839 285.155, 7.895 295.280, 6.436 298.197 C 4.978 301.113, 4.211 303.050, 4.731 302.500 C 5.251 301.950, 32.755 259.987, 65.852 209.249 L 126.028 116.998 125.764 85.355 L 125.500 53.713 97.795 110.606 M 874.040 85.270 L 874 117.041 934.162 209.270 C 967.251 259.997, 994.747 301.950, 995.265 302.500 C 995.783 303.050, 994.303 299.683, 991.976 295.018 C 989.649 290.354, 985.163 281.129, 982.007 274.518 C 973.388 256.464, 877.550 59.914, 875.692 56.479 C 874.180 53.685, 874.078 55.472, 874.040 85.270" stroke="none" fill="#F77825" fill-rule="evenodd"/><path d="M 348.802 0.531 C 348.510 0.824, 347.422 1.231, 346.385 1.438 C 342.293 2.251, 333.187 4.266, 322 6.832 C 317.325 7.905, 309.900 9.557, 305.500 10.502 C 301.100 11.448, 295.250 12.832, 292.500 13.577 C 287.447 14.946, 283.971 15.697, 278.500 16.603 C 276.850 16.876, 271.844 17.992, 267.376 19.083 C 262.908 20.174, 258.183 21.264, 256.876 21.505 C 254.685 21.910, 250.782 22.786, 234.500 26.527 C 205.169 33.265, 200.754 34.252, 194 35.583 C 192.625 35.854, 186.775 37.228, 181 38.636 C 168.450 41.695, 167.886 41.822, 161.500 43.031 C 156.761 43.928, 154.158 44.520, 137.500 48.493 C 133.650 49.411, 129.713 50.154, 128.750 50.144 C 127.118 50.126, 127 52.352, 127 83.062 C 127 101.178, 127.272 116, 127.605 116 C 128.189 116, 349.074 2.100, 349.917 1.364 C 350.146 1.164, 350.108 0.775, 349.833 0.500 C 349.558 0.225, 349.094 0.239, 348.802 0.531 M 650.015 0.691 C 650.029 1.426, 870.995 116, 872.399 116 C 872.729 116, 872.999 101.263, 872.997 83.250 L 872.993 50.500 864.747 48.786 C 857.343 47.246, 841.078 43.618, 836.877 42.569 C 835.984 42.346, 833.734 41.916, 831.877 41.613 C 830.020 41.310, 825.125 40.182, 821 39.107 C 816.875 38.032, 812.150 36.920, 810.500 36.635 C 808.850 36.351, 806.375 35.844, 805 35.508 C 803.625 35.172, 801.461 34.682, 800.191 34.419 C 798.156 33.996, 783.627 30.691, 765.500 26.527 C 762.200 25.769, 756.125 24.410, 752 23.508 C 747.875 22.606, 740 20.792, 734.500 19.478 C 729 18.163, 723.150 16.866, 721.500 16.597 C 716.119 15.717, 712.584 14.955, 707.500 13.577 C 704.750 12.832, 698.900 11.447, 694.500 10.499 C 680.919 7.573, 673.815 5.978, 665.500 3.988 C 661.100 2.935, 656.270 1.864, 654.766 1.606 C 653.263 1.349, 651.576 0.856, 651.016 0.510 C 650.457 0.165, 650.007 0.246, 650.015 0.691 M 497.854 485.228 C 499.067 486.776, 492.986 494.064, 439.448 555.228 C 406.581 592.777, 378.971 624.426, 378.094 625.558 C 374.036 630.797, 386.627 616.584, 440.912 554.646 C 473.038 517.991, 499.628 488, 500 488 C 500.623 488, 613.525 616.324, 620.625 625.102 C 623.659 628.853, 623.750 628.890, 623.750 626.376 C 623.750 624.952, 623.465 624.247, 623.117 624.810 C 622.770 625.373, 595.105 594.585, 561.640 556.393 C 507.152 494.207, 500.936 486.772, 502.147 485.226 C 503.369 483.667, 503.331 483.633, 501.750 484.872 C 500.267 486.036, 499.733 486.036, 498.250 484.872 C 496.669 483.632, 496.631 483.667, 497.854 485.228" stroke="none" fill="#F77825" fill-rule="evenodd"/><path d="M 240.243 58.809 C 179.051 90.439, 129.178 116.512, 129.415 116.748 C 129.789 117.122, 311.338 127.964, 311.600 127.628 C 312.114 126.968, 352.066 1.749, 351.823 1.556 C 351.645 1.414, 301.434 27.178, 240.243 58.809 M 648 1.548 C 648 2.139, 688.079 127.216, 688.400 127.628 C 688.661 127.962, 870.210 117.123, 870.582 116.752 C 870.816 116.517, 823.644 91.884, 765.754 62.012 C 707.864 32.139, 657.688 6.152, 654.250 4.263 C 650.813 2.374, 648 1.152, 648 1.548" stroke="none" fill="#F77825" fill-rule="evenodd"/><path d="M 346.876 20.665 C 343.369 31.562, 334.165 60.058, 326.423 83.989 L 312.345 127.500 315.923 129.123 C 323.895 132.739, 490.813 207.374, 494.800 209.105 C 497.469 210.264, 498.814 210.503, 498.345 209.736 C 496.798 207.204, 354.798 2.468, 354.040 1.676 C 353.606 1.222, 350.382 9.767, 346.876 20.665 M 575.394 103.131 C 536.402 159.328, 503.672 206.582, 502.660 208.140 L 500.821 210.973 504.160 209.555 C 527.097 199.815, 686.546 127.863, 686.785 127.144 C 687.078 126.265, 647.484 2.151, 646.642 1.309 C 646.448 1.114, 614.386 46.934, 575.394 103.131" stroke="none" fill="#F1EFA5" fill-rule="evenodd"/></svg>